<svg width="400" height="315" viewBox="0 0 400 315" fill="none" xmlns="http://www.w3.org/2000/svg">
<g clip-path="url(#clip0_98_277)">
<path d="M200.49 8.81598C200.472 9.84435 200.251 10.859 199.841 11.8021C199.43 12.7451 198.838 13.598 198.097 14.3121C197.357 15.0262 196.484 15.5874 195.526 15.9638C194.569 16.3401 193.547 16.5242 192.519 16.5055H155.538C155.404 16.5021 155.27 16.4986 155.136 16.4883C154.79 16.466 154.445 16.4189 154.105 16.3475V3.25671C154.105 2.73293 154.265 2.22157 154.563 1.79112C154.862 1.36066 155.285 1.03166 155.775 0.848145H192.801C194.876 0.887387 196.851 1.74832 198.293 3.24206C199.734 4.7358 200.525 6.74037 200.49 8.81598Z" fill="#E6E6E6"/>
<path d="M395.731 1.79834e-05H157.236C156.722 -0.00150003 156.213 0.0930982 155.733 0.278929C154.921 0.582945 154.22 1.12799 153.726 1.84109C153.231 2.55419 152.967 3.4013 152.967 4.26902V264.394C152.967 265.526 153.417 266.611 154.218 267.412C155.018 268.212 156.104 268.662 157.236 268.663H395.731C396.863 268.662 397.949 268.212 398.749 267.412C399.55 266.611 400 265.526 400 264.394V4.26902C400 3.13694 399.55 2.05134 398.749 1.25083C397.949 0.450328 396.863 0.000428329 395.731 1.79834e-05ZM398.292 264.394C398.291 265.073 398.021 265.723 397.541 266.204C397.061 266.684 396.41 266.954 395.731 266.955H157.236C156.557 266.954 155.906 266.684 155.426 266.204C154.946 265.723 154.676 265.073 154.675 264.394V4.26902C154.676 3.59001 154.946 2.9391 155.426 2.45897C155.906 1.97883 156.557 1.70864 157.236 1.70762H395.731C396.41 1.70864 397.061 1.97883 397.541 2.45897C398.021 2.9391 398.291 3.59001 398.292 4.26902V264.394Z" fill="#E6E6E6"/>
<path d="M269.151 89.3767C272.245 89.3767 274.754 86.8683 274.754 83.774C274.754 80.6798 272.245 78.1714 269.151 78.1714C266.057 78.1714 263.548 80.6798 263.548 83.774C263.548 86.8683 266.057 89.3767 269.151 89.3767Z" fill="#AC2727"/>
<path d="M292.495 89.3767C295.59 89.3767 298.098 86.8683 298.098 83.774C298.098 80.6798 295.59 78.1714 292.495 78.1714C289.401 78.1714 286.893 80.6798 286.893 83.774C286.893 86.8683 289.401 89.3767 292.495 89.3767Z" fill="#AC2727"/>
<path d="M222.462 135.675C225.557 135.675 228.065 133.167 228.065 130.072C228.065 126.978 225.557 124.47 222.462 124.47C219.368 124.47 216.86 126.978 216.86 130.072C216.86 133.167 219.368 135.675 222.462 135.675Z" fill="#AC2727"/>
<path d="M245.807 135.675C248.901 135.675 251.409 133.167 251.409 130.072C251.409 126.978 248.901 124.47 245.807 124.47C242.712 124.47 240.204 126.978 240.204 130.072C240.204 133.167 242.712 135.675 245.807 135.675Z" fill="#AC2727"/>
<path d="M269.151 158.824C272.245 158.824 274.754 156.316 274.754 153.221C274.754 150.127 272.245 147.619 269.151 147.619C266.057 147.619 263.548 150.127 263.548 153.221C263.548 156.316 266.057 158.824 269.151 158.824Z" fill="#AC2727"/>
<path d="M292.495 158.824C295.59 158.824 298.098 156.316 298.098 153.221C298.098 150.127 295.59 147.619 292.495 147.619C289.401 147.619 286.893 150.127 286.893 153.221C286.893 156.316 289.401 158.824 292.495 158.824Z" fill="#AC2727"/>
<path d="M315.84 158.824C318.934 158.824 321.442 156.316 321.442 153.221C321.442 150.127 318.934 147.619 315.84 147.619C312.745 147.619 310.237 150.127 310.237 153.221C310.237 156.316 312.745 158.824 315.84 158.824Z" fill="#AC2727"/>
<path d="M175.451 4.13938C175.326 4.26427 175.256 4.43365 175.256 4.61027C175.256 4.7869 175.326 4.95629 175.451 5.0812L178.31 7.94027H171.26C171.084 7.94079 170.915 8.01119 170.791 8.13603C170.666 8.26087 170.596 8.42997 170.596 8.60627C170.596 8.78257 170.666 8.95167 170.791 9.07651C170.915 9.20135 171.084 9.27175 171.26 9.27227H178.31L175.451 12.1313C175.326 12.2562 175.256 12.4256 175.256 12.6022C175.256 12.7788 175.326 12.9482 175.451 13.0731C175.576 13.198 175.746 13.2682 175.922 13.2682C176.099 13.2682 176.268 13.1981 176.393 13.0732L180.389 9.0772C180.514 8.9523 180.584 8.7829 180.584 8.60627C180.584 8.42964 180.514 8.26024 180.389 8.13534L176.393 4.13938C176.268 4.01449 176.099 3.94434 175.922 3.94434C175.746 3.94434 175.576 4.01449 175.451 4.13938Z" fill="white"/>
<path d="M344.302 95.727H193.865C193.283 95.727 192.811 95.4722 192.811 95.1578C192.811 94.8435 193.283 94.5886 193.865 94.5886H344.302C344.884 94.5886 345.356 94.8435 345.356 95.1578C345.356 95.4722 344.884 95.727 344.302 95.727Z" fill="#E6E6E6"/>
<path d="M344.302 70.5808H193.865C193.283 70.5808 192.811 70.3259 192.811 70.0116C192.811 69.6972 193.283 69.4424 193.865 69.4424H344.302C344.884 69.4424 345.356 69.6972 345.356 70.0116C345.356 70.3259 344.884 70.5808 344.302 70.5808Z" fill="#E6E6E6"/>
<path d="M344.787 119.214H193.515C193.364 119.214 193.22 119.154 193.113 119.047C193.006 118.94 192.946 118.796 192.946 118.645C192.946 118.494 193.006 118.349 193.113 118.242C193.22 118.135 193.364 118.075 193.515 118.075H344.787C344.938 118.075 345.082 118.135 345.189 118.242C345.296 118.349 345.356 118.494 345.356 118.645C345.356 118.796 345.296 118.94 345.189 119.047C345.082 119.154 344.938 119.214 344.787 119.214Z" fill="#E6E6E6"/>
<path d="M344.787 141.982H193.515C193.364 141.982 193.22 141.922 193.113 141.815C193.006 141.708 192.946 141.564 192.946 141.413C192.946 141.262 193.006 141.117 193.113 141.01C193.22 140.903 193.364 140.843 193.515 140.843H344.787C344.938 140.843 345.082 140.903 345.189 141.01C345.296 141.117 345.356 141.262 345.356 141.413C345.356 141.564 345.296 141.708 345.189 141.815C345.082 141.922 344.938 141.982 344.787 141.982Z" fill="#E6E6E6"/>
<path d="M344.787 165.319H193.515C193.364 165.319 193.22 165.259 193.113 165.152C193.006 165.046 192.946 164.901 192.946 164.75C192.946 164.599 193.006 164.454 193.113 164.347C193.22 164.241 193.364 164.181 193.515 164.181H344.787C344.938 164.181 345.082 164.241 345.189 164.347C345.296 164.454 345.356 164.599 345.356 164.75C345.356 164.901 345.296 165.046 345.189 165.152C345.082 165.259 344.938 165.319 344.787 165.319Z" fill="#E6E6E6"/>
<path d="M327.142 164.146V70.3645C327.142 70.1696 327.397 70.0116 327.712 70.0116C328.026 70.0116 328.281 70.1696 328.281 70.3645V164.146C328.281 164.341 328.026 164.499 327.712 164.499C327.397 164.499 327.142 164.341 327.142 164.146Z" fill="#E6E6E6"/>
<path d="M303.805 164.146V70.3645C303.805 70.1696 304.06 70.0116 304.374 70.0116C304.689 70.0116 304.944 70.1696 304.944 70.3645V164.146C304.944 164.341 304.689 164.499 304.374 164.499C304.06 164.499 303.805 164.341 303.805 164.146Z" fill="#E6E6E6"/>
<path d="M280.468 164.146V70.3645C280.468 70.1696 280.723 70.0116 281.037 70.0116C281.352 70.0116 281.606 70.1696 281.606 70.3645V164.146C281.606 164.341 281.352 164.499 281.037 164.499C280.723 164.499 280.468 164.341 280.468 164.146Z" fill="#E6E6E6"/>
<path d="M257.7 164.146V70.3645C257.7 70.1696 257.955 70.0116 258.269 70.0116C258.583 70.0116 258.838 70.1696 258.838 70.3645V164.146C258.838 164.341 258.583 164.499 258.269 164.499C257.955 164.499 257.7 164.341 257.7 164.146Z" fill="#E6E6E6"/>
<path d="M233.794 187.963V70.4538C233.826 70.3273 233.899 70.2152 234.002 70.1351C234.105 70.0551 234.232 70.0116 234.363 70.0116C234.493 70.0116 234.62 70.0551 234.723 70.1351C234.826 70.2152 234.9 70.3273 234.932 70.4538V187.963C234.9 188.09 234.826 188.202 234.723 188.282C234.62 188.362 234.493 188.405 234.363 188.405C234.232 188.405 234.105 188.362 234.002 188.282C233.899 188.202 233.826 188.09 233.794 187.963Z" fill="#E6E6E6"/>
<path d="M209.887 187.963V70.4538C209.919 70.3273 209.993 70.2152 210.096 70.1351C210.199 70.0551 210.326 70.0116 210.456 70.0116C210.587 70.0116 210.714 70.0551 210.817 70.1351C210.92 70.2152 210.993 70.3273 211.026 70.4538V187.963C210.993 188.09 210.92 188.202 210.817 188.282C210.714 188.362 210.587 188.405 210.456 188.405C210.326 188.405 210.199 188.362 210.096 188.282C209.993 188.202 209.919 188.09 209.887 187.963Z" fill="#E6E6E6"/>
<path d="M193.515 188.656C193.364 188.657 193.22 188.597 193.113 188.491C193.006 188.384 192.945 188.24 192.945 188.089C192.945 187.938 193.004 187.793 193.111 187.686C193.217 187.579 193.362 187.518 193.513 187.518L251.436 187.267C251.586 187.27 251.729 187.331 251.835 187.436C251.942 187.542 252.004 187.684 252.008 187.834C252.008 187.909 251.994 187.983 251.966 188.052C251.937 188.121 251.896 188.184 251.843 188.237C251.79 188.29 251.728 188.332 251.659 188.361C251.59 188.39 251.516 188.405 251.441 188.405L193.518 188.656H193.515Z" fill="#E6E6E6"/>
<path d="M235.864 45.6374C235.713 45.6375 235.568 45.5777 235.461 45.471C235.354 45.3643 235.294 45.2196 235.294 45.0686C235.294 44.9177 235.354 44.7729 235.461 44.666C235.567 44.5592 235.712 44.4991 235.863 44.499L317.102 44.3976H317.103C317.254 44.3975 317.399 44.4573 317.506 44.564C317.613 44.6707 317.673 44.8154 317.673 44.9664C317.673 45.1173 317.613 45.2621 317.506 45.369C317.4 45.4758 317.255 45.5359 317.104 45.536L235.865 45.6374H235.864Z" fill="#E6E6E6"/>
<path d="M263.372 231.211C261.116 231.211 258.911 230.542 257.036 229.289C255.161 228.036 253.699 226.255 252.836 224.171C251.973 222.087 251.747 219.794 252.187 217.582C252.627 215.37 253.713 213.338 255.308 211.743C256.903 210.148 258.935 209.062 261.147 208.622C263.359 208.182 265.652 208.407 267.736 209.271C269.82 210.134 271.601 211.595 272.854 213.471C274.107 215.346 274.776 217.551 274.776 219.807C274.776 221.304 274.481 222.787 273.908 224.171C273.335 225.555 272.495 226.812 271.436 227.871C270.377 228.93 269.12 229.77 267.736 230.343C266.352 230.916 264.869 231.211 263.372 231.211Z" fill="#E6E6E6"/>
<path d="M267.872 218.682H264.497V215.307C264.497 215.009 264.378 214.722 264.167 214.511C263.956 214.3 263.67 214.182 263.372 214.182C263.073 214.182 262.787 214.3 262.576 214.511C262.365 214.722 262.247 215.009 262.247 215.307V218.682H258.872C258.574 218.682 258.288 218.8 258.077 219.011C257.866 219.222 257.747 219.508 257.747 219.807C257.747 220.105 257.866 220.391 258.077 220.602C258.288 220.813 258.574 220.932 258.872 220.932H262.247V224.307C262.247 224.454 262.275 224.601 262.332 224.738C262.388 224.875 262.471 224.999 262.575 225.104C262.68 225.208 262.804 225.291 262.941 225.348C263.077 225.405 263.224 225.434 263.372 225.434C263.52 225.434 263.666 225.405 263.803 225.348C263.94 225.291 264.064 225.208 264.168 225.104C264.273 224.999 264.356 224.875 264.412 224.738C264.468 224.601 264.497 224.454 264.497 224.307V220.932H267.872C268.17 220.932 268.456 220.813 268.667 220.602C268.878 220.391 268.997 220.105 268.997 219.807C268.997 219.508 268.878 219.222 268.667 219.011C268.456 218.8 268.17 218.682 267.872 218.682Z" fill="white"/>
<path d="M289.555 231.211C287.299 231.211 285.095 230.542 283.219 229.289C281.344 228.036 279.882 226.255 279.019 224.171C278.156 222.087 277.93 219.794 278.37 217.582C278.81 215.37 279.896 213.338 281.491 211.743C283.086 210.148 285.118 209.062 287.33 208.622C289.542 208.182 291.835 208.407 293.919 209.271C296.003 210.134 297.784 211.595 299.037 213.471C300.29 215.346 300.959 217.551 300.959 219.807C300.959 221.304 300.664 222.787 300.091 224.171C299.518 225.555 298.678 226.812 297.619 227.871C296.56 228.93 295.303 229.77 293.919 230.343C292.536 230.916 291.053 231.211 289.555 231.211Z" fill="#E6E6E6"/>
<path d="M295.327 224.66L292.356 221.182C293.052 220.198 293.354 218.989 293.203 217.793C293.052 216.598 292.459 215.502 291.541 214.721C290.622 213.941 289.445 213.532 288.241 213.576C287.037 213.62 285.892 214.113 285.033 214.958C284.174 215.804 283.662 216.94 283.599 218.143C283.535 219.347 283.924 220.53 284.69 221.461C285.455 222.392 286.541 223.003 287.734 223.173C288.927 223.344 290.141 223.062 291.136 222.382L294.029 225.769C294.176 225.939 294.385 226.045 294.61 226.062C294.835 226.079 295.058 226.007 295.23 225.86C295.401 225.714 295.508 225.505 295.526 225.28C295.544 225.055 295.473 224.832 295.327 224.66ZM285.286 218.384C285.286 217.765 285.47 217.159 285.814 216.644C286.158 216.13 286.647 215.728 287.219 215.491C287.791 215.254 288.42 215.192 289.027 215.313C289.635 215.434 290.192 215.732 290.63 216.17C291.068 216.608 291.366 217.166 291.487 217.773C291.608 218.38 291.546 219.01 291.309 219.582C291.072 220.154 290.671 220.643 290.156 220.987C289.641 221.331 289.036 221.514 288.417 221.514C287.587 221.513 286.791 221.183 286.204 220.596C285.617 220.009 285.287 219.214 285.286 218.384Z" fill="white"/>
<path d="M235.864 232.335C235.713 232.336 235.568 232.276 235.461 232.169C235.354 232.062 235.294 231.918 235.294 231.767C235.294 231.616 235.354 231.471 235.461 231.364C235.567 231.257 235.712 231.197 235.863 231.197L317.102 231.095H317.103C317.254 231.095 317.399 231.155 317.506 231.262C317.613 231.368 317.673 231.513 317.673 231.664C317.673 231.815 317.613 231.96 317.506 232.067C317.4 232.174 317.255 232.234 317.104 232.234L235.865 232.335H235.864Z" fill="#E6E6E6"/>
<path d="M131.901 306.806L139.163 306.805L142.617 278.799L131.9 278.799L131.901 306.806Z" fill="#FFB6B6"/>
<path d="M130.052 304.434V313.843H153.463V313.547C153.463 311.13 152.503 308.813 150.794 307.104C149.085 305.395 146.767 304.435 144.35 304.434L140.07 301.19L139.848 301.281L132.095 304.434H130.052Z" fill="#2F2E41"/>
<path d="M66.2936 297.366L72.7921 300.604L88.3774 277.08L78.7858 272.3L66.2936 297.366Z" fill="#FFB6B6"/>
<path d="M61.4976 302.84L82.4498 313.28L82.5807 313.018C83.1153 311.947 83.4336 310.782 83.5175 309.588C83.6014 308.394 83.4492 307.195 83.0697 306.06C82.6901 304.926 82.0907 303.877 81.3055 302.973C80.5204 302.07 79.5649 301.331 78.4938 300.797L76.1089 295.987L75.8585 295.97L67.5254 295.327L67.3546 295.242L65.6925 294.416L61.4976 302.84Z" fill="#2F2E41"/>
<path d="M136.826 156.272L96.788 157.673L96.5091 157.268C96.5091 157.268 93.0939 165.236 93.0939 172.067C93.0939 174.338 94.6733 189.191 93.8704 192.001C93.7705 192.351 94.4576 193.207 94.2323 194.835C94.0861 195.891 93.2793 195.079 93.0939 196.542C92.9608 197.593 94.3808 198.173 94.2323 199.388C94.07 200.716 92.1166 205.017 91.9408 206.494C90.0689 222.219 87.5765 244.999 87.5765 244.999C87.5765 244.999 77.5662 271.81 75.4487 272.246C71.8943 272.977 69.4946 279.44 71.4643 280.784C72.4022 281.424 84.5243 285.73 84.5243 285.73C85.1903 285.85 87.2741 284.805 85.9466 282.333C85.7023 281.878 87.1597 283.036 87.4019 282.492C87.6594 281.912 87.1538 279.607 87.4488 278.965C90.098 273.191 94.1654 265.19 98.0199 261.082C103.715 255.012 107.322 247.281 108.314 239.017L117.155 189.994L120.185 203.741L122.692 206.219L122.004 211.996L122.123 217.603L128.384 240.94C128.384 240.94 129.323 284.523 127.815 285.907C126.998 286.656 123.532 295.889 130.092 296.722L142.01 295.802C142.01 295.802 143.616 292.418 142.813 291.214C142.01 290.009 142.058 290.338 143.038 288.367C144.017 286.396 143.616 283.057 143.616 283.057C145.177 267.361 145.793 251.586 145.46 235.817C144.863 209.917 141.242 180.162 141.242 179.556C141.212 178.936 141.326 178.318 141.576 177.75V176.115L140.038 170.323L136.826 156.272Z" fill="#2F2E41"/>
<path d="M84.9909 170.835C84.6551 170.261 84.4493 169.621 84.3878 168.959C84.3263 168.297 84.4107 167.63 84.635 167.004C84.8593 166.378 85.2181 165.809 85.6861 165.337C86.154 164.865 86.7198 164.501 87.3436 164.272L87.0559 135.503L94.1517 139.992L93.3361 167.258C93.6526 168.332 93.5643 169.484 93.0881 170.497C92.6118 171.509 91.7806 172.312 90.7519 172.753C89.7233 173.194 88.5687 173.242 87.5069 172.889C86.4451 172.535 85.5499 171.804 84.9909 170.835Z" fill="#FFB8B8"/>
<path d="M86.6107 158.775L87.2147 158.746L87.2867 158.748L89.5214 158.74L93.202 158.732L93.4686 158.728L93.5886 158.751L94.8451 158.97L94.8972 158.633L97.3465 153.954L99.2295 151.364L98.5444 148.312L97.1932 146.629L99.4882 143.848L99.7781 142.474L101.699 133.441L108.066 103.479L108.067 103.461L108.2 102.825L110.271 93.0916L109.633 90.6441L108.922 87.957C108.468 86.251 107.414 84.7659 105.953 83.7736C105.32 83.3447 104.622 83.0189 103.886 82.8082C102.949 82.5305 101.964 82.4495 100.994 82.5701L100.983 82.5734C100.432 82.6419 99.8911 82.7727 99.37 82.9632L99.1626 83.0442C98.8741 83.1612 98.5933 83.2964 98.3219 83.4489C97.4808 83.9166 96.7412 84.5469 96.1461 85.3031C95.5509 86.0594 95.1122 86.9264 94.8553 87.8538L88.1088 95.3689L86.9221 99.6213L86.5405 100.987L85.3176 108.267L85.3358 136.917L85.118 138.214L84.8084 145.407L86.0183 147.056L84.6514 149.054L84.6045 150.151L84.5953 150.434L86.421 152.288L86.5375 156.286L86.6107 158.775Z" fill="#3F3D56"/>
<path d="M93.201 165.637C103.311 167.386 110.09 166.72 114.261 160.515C119.704 153.584 129.602 161.767 137.953 164.81L138.944 163.74L140.628 161.924L139.08 160.171L140.628 156.79L139.336 152.618L137.686 152.316L138.13 148.724L138.824 146.624L136.786 144.387L135.056 138.803L136.302 127.118C138.008 111.1 134.703 94.9473 126.842 80.8871L122.112 76.6409L120.149 74.8764L117.513 69.9585L114.73 70.2829L107.194 71.1538L106.937 71.7685L105.088 76.2311L98.3673 83.4499C97.4168 84.4709 96.6946 85.6825 96.2487 87.0043C95.8028 88.326 95.6434 89.7276 95.7811 91.1157L95.9747 93.0623L96.117 94.4626L96.7886 101.202L99.5265 128.734L99.7314 130.197L101.934 146.026C98.3539 149.487 98.136 148.732 96.6162 154.823C96.4455 155.5 94.4647 157.008 94.3394 157.669C94.163 158.602 93.201 165.637 93.201 165.637Z" fill="#3F3D56"/>
<path d="M113.727 67.0573C120.956 67.0573 126.817 61.197 126.817 53.9679C126.817 46.7388 120.956 40.8784 113.727 40.8784C106.498 40.8784 100.638 46.7388 100.638 53.9679C100.638 61.197 106.498 67.0573 113.727 67.0573Z" fill="#FFB6B6"/>
<path d="M100.033 44.1144C101.79 42.2851 104.596 41.3828 106.979 42.2509C107.512 40.7259 108.453 39.3763 109.7 38.3492C110.947 37.322 112.452 36.6566 114.051 36.4254C115.649 36.1942 117.281 36.406 118.768 37.0379C120.255 37.6698 121.539 38.6975 122.483 40.009C122.914 39.8154 123.388 39.7364 123.859 39.7796C124.329 39.8229 124.781 39.9869 125.17 40.2559C125.941 40.8048 126.563 41.5384 126.978 42.3898C128.048 44.4229 128.547 46.708 128.421 49.0021C128.296 51.2962 127.55 53.5133 126.265 55.4174C126.777 54.3831 125.337 56.1645 123.933 55.6977C122.727 55.3817 117.774 52.2058 116.538 52.3664C115.302 52.5269 114.901 51.5302 113.692 51.228C112.508 50.8492 109.485 55.7449 108.879 58.9842C108.764 59.5981 108.485 60.3608 107.861 60.3747C107.092 60.392 106.862 59.2907 106.213 58.8772C105.908 58.7217 105.554 58.6909 105.226 58.7914C104.898 58.8919 104.622 59.1158 104.455 59.4159C104.304 59.7243 104.228 60.0644 104.235 60.408C104.241 60.7516 104.329 61.0887 104.492 61.3912C104.824 61.9925 105.25 62.5364 105.755 63.0018L105.419 63.1863C105.088 63.4232 104.685 63.5377 104.279 63.5101C103.874 63.4826 103.49 63.3147 103.194 63.0352C101.944 63.5992 98.5438 60.4185 98.9952 58.4941C98.0458 56.1352 97.5266 53.6254 97.4623 51.0835C97.4099 48.5195 98.3279 46.0304 100.033 44.1144Z" fill="#2F2E41"/>
<path d="M196.051 122.137C195.418 122.337 194.747 122.396 194.088 122.308C193.43 122.221 192.798 121.991 192.237 121.633C191.677 121.275 191.202 120.799 190.846 120.238C190.49 119.676 190.261 119.044 190.176 118.385L162.063 112.27L168.017 106.35L194.42 113.206C195.537 113.136 196.641 113.478 197.522 114.168C198.404 114.857 199.002 115.846 199.203 116.947C199.404 118.048 199.194 119.184 198.613 120.141C198.033 121.098 197.121 121.808 196.051 122.137Z" fill="#FFB8B8"/>
<path d="M120.079 81.5541C118.45 81.6135 116.887 82.2143 115.637 83.2614C114.945 83.8347 114.368 84.5339 113.937 85.3219C113.462 86.1767 113.166 87.119 113.067 88.0916L113.067 88.0973C112.921 89.5298 113.203 90.9733 113.877 92.2458C114.551 93.5183 115.586 94.5627 116.853 95.2473L126.114 100.266L127.287 100.9C135.177 108.942 148.482 113.146 163.789 115.935L172.589 118.343L175.547 117.245L176.263 120.057L179.209 120.154L180.811 119.821L184.162 118.506L184.802 117.219L184.802 117.214L186.177 111.112L186.186 111.071L186.186 111.066L186.507 109.67L184.617 108.795L182.973 106.599L180 106.659L177.288 106.895L176.494 105.036L142.138 89.1387L135.025 85.8438L135.007 85.8333L134.668 85.6742L125.388 81.3806L122.862 81.4607L120.079 81.5541Z" fill="#3F3D56"/>
<path d="M195.155 129.221C198.249 129.221 200.758 126.712 200.758 123.618C200.758 120.524 198.249 118.015 195.155 118.015C192.061 118.015 189.552 120.524 189.552 123.618C189.552 126.712 192.061 129.221 195.155 129.221Z" fill="#AC2727"/>
<path d="M34.5465 310.96C30.4361 311.322 26.2966 310.762 22.4304 309.32C18.5643 307.877 15.0691 305.59 12.2001 302.624C8.44882 298.669 5.87451 293.578 3.38491 288.655C2.6602 287.222 1.91109 285.741 1.14897 284.321C0.299299 282.773 -0.067407 281.006 0.0960953 279.248C0.259598 277.489 0.945814 275.82 2.06635 274.455C3.14016 273.091 4.59794 272.079 6.25186 271.551C7.90577 271.023 9.68003 271.002 11.346 271.491L11.7093 271.596L14.9789 284.354C15.4667 282.451 16.5136 278.163 17.1748 273.962L17.2303 273.61L17.5559 273.755C20.9698 275.266 24.18 277.2 27.1106 279.513C32.3022 283.677 36.5247 288.922 39.4846 294.883C42.4445 300.844 44.0708 307.378 44.2505 314.031L44.2591 314.428L34.5465 310.96Z" fill="#F2F2F2"/>
<path d="M159.342 314.711L0.677741 314.886C0.497994 314.886 0.325603 314.815 0.198503 314.688C0.0714026 314.56 0 314.388 0 314.208C0 314.029 0.0714026 313.856 0.198503 313.729C0.325603 313.602 0.497994 313.531 0.677741 313.531L159.342 313.356C159.522 313.356 159.694 313.428 159.82 313.555C159.947 313.682 160.018 313.854 160.018 314.033C160.018 314.213 159.947 314.385 159.82 314.512C159.694 314.639 159.522 314.711 159.342 314.711Z" fill="#CACACA"/>
<path d="M291.567 38.0343H261.4C260.72 38.0343 260.069 37.7644 259.589 37.2841C259.108 36.8037 258.838 36.1522 258.838 35.4729C258.838 34.7936 259.108 34.1421 259.589 33.6617C260.069 33.1814 260.72 32.9115 261.4 32.9115H291.567C292.247 32.9115 292.898 33.1814 293.379 33.6617C293.859 34.1421 294.129 34.7936 294.129 35.4729C294.129 36.1522 293.859 36.8037 293.379 37.2841C292.898 37.7644 292.247 38.0343 291.567 38.0343Z" fill="#E6E6E6"/>
<path d="M386.586 16.2832C385.346 16.2832 384.133 15.9153 383.102 15.2263C382.071 14.5372 381.267 13.5577 380.792 12.4118C380.318 11.2659 380.193 10.0049 380.435 8.78841C380.677 7.5719 381.275 6.45447 382.152 5.57742C383.029 4.70036 384.146 4.10308 385.363 3.8611C386.579 3.61913 387.84 3.74332 388.986 4.21798C390.132 4.69263 391.112 5.49644 391.801 6.52775C392.49 7.55905 392.858 8.77154 392.858 10.0119C392.858 11.6751 392.197 13.2702 391.021 14.4463C389.845 15.6224 388.249 16.2832 386.586 16.2832Z" fill="#E6E6E6"/>
</g>
<defs>
<clipPath id="clip0_98_277">
<rect width="400" height="314.886" fill="white"/>
</clipPath>
</defs>
</svg>
