<svg width="500" height="355" viewBox="0 0 500 355" fill="none" xmlns="http://www.w3.org/2000/svg">
<g clip-path="url(#clip0_33_807)">
<path opacity="0.1" d="M166.229 353.969C190.579 353.969 210.318 350.799 210.318 346.888C210.318 342.977 190.579 339.807 166.229 339.807C141.88 339.807 122.14 342.977 122.14 346.888C122.14 350.799 141.88 353.969 166.229 353.969Z" fill="#AC2727"/>
<path opacity="0.1" d="M405.89 354.168C436.275 354.168 460.906 350.998 460.906 347.087C460.906 343.176 436.275 340.006 405.89 340.006C375.506 340.006 350.874 343.176 350.874 347.087C350.874 350.998 375.506 354.168 405.89 354.168Z" fill="#AC2727"/>
<path opacity="0.1" d="M6.26219 153.026H52.1836V215.617H9.62406C9.51094 216.259 9.40235 216.906 9.2847 217.553H52.1836V268.031C52.1067 268.008 52.0388 267.981 51.9664 267.954C50.7538 267.474 49.5502 266.968 48.3466 266.425L47.5774 266.076C46.3708 265.506 45.1642 264.903 43.9577 264.266C43.5369 264.045 43.1161 263.814 42.6998 263.579C36.0013 259.826 29.9161 255.072 24.6552 249.48C24.5013 249.33 24.3566 249.172 24.2027 249.027C23.4697 248.231 22.7503 247.425 22.0535 246.602L21.2843 245.697C20.4608 244.688 19.6644 243.652 18.8907 242.602C18.7776 242.448 18.669 242.294 18.5513 242.15C15.4046 237.787 12.7918 233.062 10.7688 228.078C10.7055 227.928 10.6512 227.766 10.5923 227.625C9.97095 226.027 9.42044 224.413 8.94082 222.784C8.73269 222.101 8.5336 221.426 8.36166 220.716C8.29831 220.508 8.24402 220.304 8.19424 220.101C5.6242 210.069 5.32104 199.649 5.32104 189.301C5.32104 188.093 5.32104 186.88 5.32104 185.681C5.32104 181.496 5.37082 177.283 5.44321 173.075C5.44321 171.985 5.48846 170.899 5.51108 169.804C5.57443 167.026 5.66492 164.247 5.78257 161.469C5.80972 160.696 5.84591 159.926 5.88664 159.157C5.88664 158.714 5.90926 158.27 5.95451 157.827C6.0631 156.216 6.15359 154.619 6.26219 153.026Z" fill="#AC2727"/>
<path opacity="0.1" d="M52.1836 83.3363H26.9945C31.0891 76.9274 35.563 70.7688 40.3922 64.8935C44.1342 60.2964 48.0842 55.817 52.1836 51.5004V83.3363Z" fill="#AC2727"/>
<path opacity="0.1" d="M52.1836 85.2729V151.09H6.40698C6.40698 150.9 6.43865 150.705 6.45223 150.515C6.49295 149.995 6.53367 149.474 6.57892 148.958C6.62869 148.352 6.68299 147.741 6.74181 147.149C6.80063 146.556 6.86398 145.832 6.93185 145.176C6.99972 144.52 7.06307 143.855 7.13999 143.198C7.21691 142.542 7.28478 141.886 7.36622 141.235C7.44767 140.583 7.52006 139.923 7.60603 139.271C7.67391 138.728 7.7463 138.19 7.81869 137.647C7.92276 136.882 8.03136 136.113 8.149 135.353C8.149 135.239 8.18067 135.122 8.19877 135.013C9.02462 129.449 10.1499 123.932 11.5697 118.489C13.0559 112.779 14.9537 107.184 17.2482 101.747C19.6869 96.0607 22.5422 90.5618 25.7909 85.2956L52.1836 85.2729Z" fill="#AC2727"/>
<path opacity="0.1" d="M63.147 153.022V215.617H161.229V153.022H63.147ZM63.147 217.549V271.302C63.7081 271.42 64.2646 271.533 64.8167 271.628C65.5678 271.773 66.3143 271.904 67.079 272.017C67.2238 272.04 67.3731 272.062 67.5315 272.076C67.8301 272.126 68.1378 272.167 68.4364 272.207C69.1921 272.311 69.9432 272.397 70.6988 272.465C71.0563 272.501 71.4182 272.533 71.7802 272.56L72.6535 272.628C73.1286 272.664 73.5991 272.691 74.0652 272.705C74.3548 272.705 74.6444 272.732 74.943 272.741C75.1692 272.741 75.3955 272.741 75.6307 272.741C75.866 272.741 76.2009 272.741 76.4859 272.741C76.875 272.741 77.2642 272.741 77.6488 272.741H78.1691C78.5582 272.741 78.9474 272.741 79.332 272.705H79.3591C79.6261 272.705 79.8976 272.705 80.169 272.669C80.2444 272.673 80.3199 272.673 80.3953 272.669C80.6215 272.669 80.8477 272.669 81.0649 272.637H81.2233L82.7391 272.519C83.2368 272.474 83.739 272.415 84.2458 272.361L85.2775 272.239C89.4745 271.651 93.6249 270.768 97.6978 269.596C106.847 267.045 115.797 263.475 124.941 260.859C136.764 257.488 149.827 255.832 161.252 259.954V217.549H63.147ZM161.229 83.3363V0.00446997C150.491 -0.111871 139.782 1.1441 129.362 3.74189C104.526 9.98148 82.2414 23.5149 63.147 40.7994V83.3318H68.0699V85.2638H63.147V151.089H161.229V85.2683H88.2819V83.3363H161.229ZM287.211 55.188C281.067 54.9708 274.958 53.0252 269.434 50.0208C258.868 44.2744 250.43 35.4014 241 27.913C221.408 12.3162 197.111 2.90482 172.184 0.57006V83.3363H312.201L312.55 82.9698L287.211 55.188ZM299.967 52.9256L313.491 67.7667V49.0344C308.962 49.5954 304.993 50.9302 299.985 52.9075L299.967 52.9256ZM313.491 284.65V217.549H284.673C284.596 217.264 284.519 216.974 284.429 216.684C284.515 216.974 284.587 217.264 284.668 217.549H172.202V266.076C173.27 266.868 174.324 267.701 175.369 268.547C176.496 269.452 177.609 270.406 178.727 271.343L179.853 272.275C180.392 272.728 180.935 273.18 181.482 273.605C182.568 274.486 183.665 275.355 184.772 276.212C185.319 276.664 185.88 277.071 186.437 277.497C195.272 284.252 204.593 290.348 214.323 295.736C216.503 296.942 218.704 298.12 220.924 299.27C222.404 300.025 223.892 300.776 225.385 301.505C227.63 302.6 229.892 303.656 232.173 304.672C253.197 314.11 275.429 320.586 298.234 323.916C303.298 324.664 308.383 325.252 313.486 325.68V284.646H313.939L313.491 284.65ZM172.202 85.2683V151.089H313.509V85.2683H172.202ZM172.202 153.022V215.617H313.509V153.022H172.202ZM324.477 48.9529V69.8481L341.739 50.9076C336.02 49.9846 330.266 49.3255 324.477 48.9303V48.9529ZM324.477 153.044V215.617H461.915V153.022L324.477 153.044ZM461.413 289.618L461.897 217.549H324.477V326.4C333.33 326.772 342.196 326.666 351.037 326.083H351.191C355.414 325.818 359.617 325.432 363.801 324.925H363.896C386.217 322.327 408.043 316.503 428.69 307.636M488.417 163.329C487.901 162.112 487.362 160.904 486.815 159.709C485.792 157.447 484.711 155.248 483.598 153.049H472.874V215.617H499.986C499.973 197.898 495.489 179.799 488.43 163.306L488.417 163.329ZM472.874 217.571V279.56C480.512 272.239 486.964 263.864 491.611 254.289C497.199 242.76 499.756 230.277 499.964 217.562L472.874 217.571ZM472.874 134.805V151.094H482.593C479.653 145.487 476.413 140.042 472.888 134.782L472.874 134.805ZM379.665 61.233C378.95 60.9615 378.235 60.6855 377.516 60.4186C369.928 57.6165 362.175 55.2864 354.299 53.4414L327.884 82.4313L327.377 82.9698L327.717 83.3408H421.731C408.638 74.3278 394.522 66.8991 379.679 61.2104L379.665 61.233ZM424.487 85.291H326.404L324.477 87.0556V151.089H341.372H341.399H461.934V120.073C451.03 106.886 438.445 95.1845 424.5 85.2683L424.487 85.291Z" fill="#AC2727"/>
<path opacity="0.1" d="M52.1836 118.471V151.09H6.40698C6.40698 150.9 6.43865 150.705 6.45223 150.515C6.49295 149.995 6.53367 149.474 6.57892 148.958C6.62869 148.352 6.68299 147.741 6.74181 147.149C6.80063 146.556 6.86398 145.832 6.93185 145.176C6.99972 144.52 7.06307 143.855 7.13999 143.198C7.21691 142.542 7.28478 141.886 7.36622 141.235C7.44767 140.583 7.52006 139.923 7.60603 139.271C7.67391 138.728 7.7463 138.19 7.81869 137.647C7.92276 136.882 8.03136 136.113 8.149 135.353C8.149 135.239 8.18067 135.122 8.19877 135.013C9.02462 129.449 10.1499 123.932 11.5697 118.489L52.1836 118.471Z" fill="#AC2727"/>
<path opacity="0.1" d="M6.26219 153.026H52.1836V215.617H9.62406C9.51094 216.259 9.40235 216.906 9.2847 217.553H52.1836V268.031C52.1067 268.008 52.0388 267.981 51.9664 267.954C50.7538 267.474 49.5502 266.968 48.3466 266.425L47.5774 266.076C46.3708 265.506 45.1642 264.903 43.9577 264.266C43.5369 264.045 43.1161 263.814 42.6998 263.579C36.0013 259.826 29.9161 255.072 24.6552 249.48C24.5013 249.33 24.3566 249.172 24.2027 249.027C23.4697 248.231 22.7503 247.425 22.0535 246.602L21.2843 245.697C20.4608 244.688 19.6644 243.652 18.8907 242.602C18.7776 242.448 18.669 242.294 18.5513 242.15C15.4046 237.787 12.7918 233.062 10.7688 228.078C10.7055 227.928 10.6512 227.766 10.5923 227.625C9.97095 226.027 9.42044 224.413 8.94082 222.784C8.73269 222.101 8.5336 221.426 8.36166 220.716C8.29831 220.508 8.24402 220.304 8.19424 220.101C5.6242 210.069 5.32104 199.649 5.32104 189.301C5.32104 188.093 5.32104 186.88 5.32104 185.681C5.32104 181.496 5.37082 177.283 5.44321 173.075C5.44321 171.985 5.48846 170.899 5.51108 169.804C5.57443 167.026 5.66492 164.247 5.78257 161.469C5.80972 160.696 5.84591 159.926 5.88664 159.157C5.88664 158.714 5.90926 158.27 5.95451 157.827C6.0631 156.216 6.15359 154.619 6.26219 153.026Z" fill="#AC2727"/>
<path opacity="0.1" d="M97.6752 94.6934V151.09H63.147V94.6934H68.0699V75.5991H88.2773V94.6934H97.6752Z" fill="#AC2727"/>
<path opacity="0.1" d="M97.6752 153.022H63.1516V215.612H97.6752V153.022Z" fill="#AC2727"/>
<path opacity="0.1" d="M63.147 217.553H97.6752V269.588C93.6023 270.758 89.4518 271.639 85.2548 272.225L84.2232 272.352C83.7164 272.411 83.2142 272.461 82.7165 272.511C82.2187 272.56 81.7029 272.596 81.2007 272.628H81.0423C80.8251 272.628 80.5898 272.655 80.3772 272.66H80.1464C79.8749 272.66 79.6035 272.687 79.332 272.696C78.9474 272.719 78.5628 272.723 78.1691 272.728C78.0017 272.728 77.8433 272.728 77.6759 272.728C77.2868 272.728 76.9022 272.728 76.5131 272.728H75.6579C75.4271 272.728 75.2054 272.728 74.9656 272.728L74.0923 272.696C73.6399 272.696 73.1512 272.646 72.6806 272.615L71.8119 272.551L70.7305 272.452C69.9703 272.384 69.2147 272.298 68.4681 272.194L67.5632 272.067L67.1107 272.004C66.3551 271.886 65.6085 271.759 64.8483 271.615C64.2918 271.52 63.7398 271.402 63.1787 271.289L63.147 217.553Z" fill="#AC2727"/>
<path opacity="0.1" d="M313.509 88.033H285.039V151.085H313.509V88.033Z" fill="#AC2727"/>
<path opacity="0.1" d="M313.514 153.022V215.617H172.202V188.618H247.471V204.545H285.039V153.022H313.514Z" fill="#AC2727"/>
<path opacity="0.1" d="M313.961 284.664H313.509V325.726C308.411 325.294 303.328 324.708 298.261 323.966C275.445 320.625 253.204 314.135 232.173 304.681C226.1 301.948 220.152 298.965 214.327 295.731C204.597 290.341 195.276 284.245 186.437 277.492C184.217 275.791 182.025 274.05 179.862 272.271C178.365 271.035 176.876 269.768 175.369 268.538C174.324 267.692 173.27 266.859 172.202 266.063V217.553H284.664C284.587 217.264 284.51 216.974 284.429 216.689C284.515 216.974 284.596 217.264 284.673 217.553H313.509V284.637C313.663 284.641 313.812 284.655 313.961 284.664Z" fill="#AC2727"/>
<path opacity="0.1" d="M387.76 83.3363H369.208V77.5718H377.525V60.4005C378.246 60.6629 378.964 60.9329 379.679 61.2104V77.5718H387.76V83.3363Z" fill="#AC2727"/>
<path opacity="0.1" d="M432.455 151.09H341.381C341.381 151.09 341.381 151.09 341.413 151.112L341.372 151.09H324.477V88.0376H329.264V134.642H351.141V107.041H369.213V85.2729H387.764V107.059H405.836V134.66H432.455V151.09Z" fill="#AC2727"/>
<path opacity="0.1" d="M324.477 153.022V215.617H432.455V153.022H324.477ZM461.766 289.297L461.915 239.751H432.455V217.58H324.477V326.4C333.33 326.772 342.196 326.666 351.037 326.083H351.191C355.414 325.818 359.617 325.432 363.801 324.925H363.896C386.217 322.327 408.043 316.503 428.69 307.636" fill="#AC2727"/>
<path opacity="0.1" d="M474.793 217.553H499.982C499.76 230.263 497.208 242.747 491.625 254.276C486.978 263.855 480.521 272.23 472.892 279.546V239.729H474.793V217.553Z" fill="#AC2727"/>
<path opacity="0.1" d="M499.995 215.617H474.793V163.306H488.43C495.489 179.799 499.973 197.898 499.995 215.617Z" fill="#AC2727"/>
<path opacity="0.1" d="M313.514 105.562H298.261V125.33H313.514V105.562Z" fill="#AC2727"/>
<path opacity="0.1" d="M313.514 146.538H298.261V151.09H313.514V146.538Z" fill="#AC2727"/>
<path opacity="0.1" d="M313.514 153.022H298.261V166.302H313.514V153.022Z" fill="#AC2727"/>
<path opacity="0.1" d="M313.514 187.514H298.261V207.282H313.514V187.514Z" fill="#AC2727"/>
<path opacity="0.1" d="M313.514 228.49H298.261V248.258H313.514V228.49Z" fill="#AC2727"/>
<path opacity="0.1" d="M313.509 284.637C313.663 284.637 313.812 284.637 313.961 284.664H313.509V289.256H298.261V269.465H313.509V284.637Z" fill="#AC2727"/>
<path opacity="0.1" d="M313.509 310.432V325.703C308.411 325.272 303.328 324.685 298.261 323.943V310.432H313.509Z" fill="#AC2727"/>
<path opacity="0.1" d="M237.571 214.164H172.202V215.617H237.571V214.164Z" fill="#AC2727"/>
<path opacity="0.1" d="M237.571 217.549H172.202V223.114H237.571V217.549Z" fill="#AC2727"/>
<path opacity="0.1" d="M237.571 241.358H172.202V250.308H237.571V241.358Z" fill="#AC2727"/>
<path opacity="0.1" d="M237.566 268.551V277.501H186.437C184.217 275.806 182.024 274.066 179.858 272.28C178.36 271.045 176.876 269.778 175.365 268.551H237.566Z" fill="#AC2727"/>
<path opacity="0.1" d="M237.566 295.74V304.681H232.168C226.102 301.945 220.155 298.96 214.327 295.727L237.566 295.74Z" fill="#AC2727"/>
<path opacity="0.1" d="M363.91 159.089H351.042V171.958H363.91V159.089Z" fill="#AC2727"/>
<path opacity="0.1" d="M85.2865 99.1322H72.4182V112.001H85.2865V99.1322Z" fill="#AC2727"/>
<path opacity="0.1" d="M85.2865 129.022H72.4182V141.891H85.2865V129.022Z" fill="#AC2727"/>
<path opacity="0.1" d="M85.2865 158.913H72.4182V171.781H85.2865V158.913Z" fill="#AC2727"/>
<path opacity="0.1" d="M85.2865 188.799H72.4182V201.667H85.2865V188.799Z" fill="#AC2727"/>
<path opacity="0.1" d="M85.2865 218.689H72.4182V231.557H85.2865V218.689Z" fill="#AC2727"/>
<path opacity="0.1" d="M85.2865 248.579H72.4182V261.448H85.2865V248.579Z" fill="#AC2727"/>
<path opacity="0.1" d="M413.035 159.089H400.167V171.958H413.035V159.089Z" fill="#AC2727"/>
<path opacity="0.1" d="M363.91 190.83H351.042V203.699H363.91V190.83Z" fill="#AC2727"/>
<path opacity="0.1" d="M413.035 190.83H400.167V203.699H413.035V190.83Z" fill="#AC2727"/>
<path opacity="0.1" d="M363.91 222.567H351.042V235.435H363.91V222.567Z" fill="#AC2727"/>
<path opacity="0.1" d="M413.035 222.567H400.167V235.435H413.035V222.567Z" fill="#AC2727"/>
<path opacity="0.1" d="M363.91 254.307H351.042V267.176H363.91V254.307Z" fill="#AC2727"/>
<path opacity="0.1" d="M413.035 254.307H400.167V267.176H413.035V254.307Z" fill="#AC2727"/>
<path opacity="0.1" d="M363.91 286.048H351.042V298.917H363.91V286.048Z" fill="#AC2727"/>
<path opacity="0.1" d="M413.035 286.048H400.167V298.917H413.035V286.048Z" fill="#AC2727"/>
<path opacity="0.1" d="M351.042 326.083V317.785H363.905V324.902L351.042 326.083Z" fill="#AC2727"/>
<path opacity="0.1" d="M8.14453 135.004V142.366H52.1837V135.004H8.14453ZM12.5335 141.904H8.94088V135.457H12.5607L12.5335 141.904ZM16.918 141.904H13.2982V135.457H16.918V141.904ZM21.2934 141.904H17.6736V135.457H21.2934V141.904ZM25.6778 141.904H22.0626V135.457H25.6824L25.6778 141.904ZM30.0578 141.904H26.438V135.457H30.0578V141.904ZM34.4422 141.904H30.8224V135.457H34.4422V141.904ZM38.8267 141.904H35.2069V135.457H38.8267V141.904ZM43.2066 141.904H39.5868V135.457H43.2066V141.904ZM47.5865 141.904H43.9668V135.457H47.5865V141.904ZM51.9665 141.904H48.3467V135.457H51.9665V141.904Z" fill="#AC2727"/>
<path opacity="0.1" d="M8.14453 156.424V163.786H52.1837V156.424H8.14453ZM12.5335 163.32H8.94088V156.89H12.5607L12.5335 163.32ZM16.918 163.32H13.2982V156.89H16.918V163.32ZM21.2934 163.32H17.6736V156.89H21.2934V163.32ZM25.6778 163.32H22.0626V156.89H25.6824L25.6778 163.32ZM30.0578 163.32H26.438V156.89H30.0578V163.32ZM34.4422 163.32H30.8224V156.89H34.4422V163.32ZM38.8267 163.32H35.2069V156.89H38.8267V163.32ZM43.2066 163.32H39.5868V156.89H43.2066V163.32ZM47.5865 163.32H43.9668V156.89H47.5865V163.32ZM51.9665 163.32H48.3467V156.89H51.9665V163.32Z" fill="#AC2727"/>
<path opacity="0.1" d="M8.14453 177.853V185.229H52.1837V177.853H8.14453ZM12.5335 184.749H8.94088V178.315H12.5607L12.5335 184.749ZM16.918 184.749H13.2982V178.315H16.918V184.749ZM21.2934 184.749H17.6736V178.315H21.2934V184.749ZM25.6778 184.749H22.0626V178.315H25.6824L25.6778 184.749ZM30.0578 184.749H26.438V178.315H30.0578V184.749ZM34.4422 184.749H30.8224V178.315H34.4422V184.749ZM38.8267 184.749H35.2069V178.315H38.8267V184.749ZM43.2066 184.749H39.5868V178.315H43.2066V184.749ZM47.5865 184.749H43.9668V178.315H47.5865V184.749ZM51.9665 184.749H48.3467V178.315H51.9665V184.749Z" fill="#AC2727"/>
<path opacity="0.1" d="M8.14453 199.282V206.635H52.1837V199.282H8.14453ZM12.5335 206.178H8.94088V199.739H12.5607L12.5335 206.178ZM16.918 206.178H13.2982V199.739H16.918V206.178ZM21.2934 206.178H17.6736V199.739H21.2934V206.178ZM25.6778 206.178H22.0626V199.739H25.6824L25.6778 206.178ZM30.0578 206.178H26.438V199.739H30.0578V206.178ZM34.4422 206.178H30.8224V199.739H34.4422V206.178ZM38.8267 206.178H35.2069V199.739H38.8267V206.178ZM43.2066 206.178H39.5868V199.739H43.2066V206.178ZM47.5865 206.178H43.9668V199.739H47.5865V206.178ZM51.9665 206.178H48.3467V199.739H51.9665V206.178Z" fill="#AC2727"/>
<path opacity="0.1" d="M8.33453 220.707C8.511 221.399 8.71008 222.091 8.91822 222.775V221.168H12.538V227.603H10.6014C10.6602 227.752 10.7191 227.915 10.7779 228.055H52.1836V220.707H8.33453ZM16.9315 227.603H13.3117V221.168H16.9315V227.603ZM21.3069 227.603H17.6871V221.168H21.3069V227.603ZM25.6914 227.603H22.0625V221.168H25.6823L25.6914 227.603ZM30.0713 227.603H26.4515V221.168H30.0713V227.603ZM34.4558 227.603H30.836V221.168H34.4558V227.603ZM38.8402 227.603H35.2204V221.168H38.8402V227.603ZM43.2201 227.603H39.6004V221.168H43.2201V227.603ZM47.6001 227.603H43.9803V221.168H47.6001V227.603ZM51.98 227.603H48.3602V221.168H51.98V227.603Z" fill="#AC2727"/>
<path opacity="0.1" d="M18.5604 242.136C18.6735 242.281 18.7821 242.444 18.8998 242.588H21.2934V245.679C21.5513 245.987 21.8047 246.294 22.0671 246.584V242.57H25.6869V249.027H24.2209C24.3656 249.176 24.5059 249.335 24.6733 249.48H52.1972V242.136H18.5604ZM30.0577 249.027H26.438V242.597H30.0577V249.027ZM34.4422 249.027H30.8224V242.597H34.4422V249.027ZM38.8267 249.027H35.2069V242.597H38.8267V249.027ZM43.2066 249.027H39.5868V242.597H43.2066V249.027ZM47.5865 249.027H43.9667V242.597H47.5865V249.027ZM51.9664 249.027H48.3467V242.597H51.9664V249.027Z" fill="#AC2727"/>
<path opacity="0.1" d="M42.7179 263.561C43.1296 263.796 43.5504 264.013 43.9758 264.248V264.022H47.5955V266.058L48.3648 266.416V264.022H51.9845V267.936C52.0539 267.97 52.1267 267.998 52.2017 268.017V263.561H42.7179Z" fill="#AC2727"/>
<path opacity="0.1" d="M284.429 216.684C284.515 216.974 284.587 217.264 284.668 217.549C284.596 217.264 284.519 216.974 284.429 216.684ZM68.088 83.3228V85.2548H88.2999V83.3228H68.088ZM284.429 216.684C284.515 216.974 284.587 217.264 284.668 217.549C284.596 217.264 284.519 216.974 284.429 216.684ZM284.429 216.684C284.515 216.974 284.587 217.264 284.668 217.549C284.596 217.264 284.519 216.974 284.429 216.684Z" fill="#AC2727"/>
<path d="M208.861 171.79C208.861 171.79 207.078 171.541 207.078 168.944C207.078 166.347 205.802 161.496 205.802 161.496C205.802 161.474 204.698 153.049 203.174 151.709C201.649 150.37 199.69 142.506 199.69 142.506C199.69 142.506 199.355 138.239 198.672 137.321C197.988 136.402 197.065 134.153 195.703 130.945C194.341 127.737 188.663 125.516 188.663 125.516C188.663 125.516 178.396 119.561 175.487 117.62C175.222 117.461 174.975 117.274 174.749 117.064C174.243 116.398 172.035 116.385 172.035 116.385C171.804 114.928 171.582 113.254 171.51 111.738C171.51 111.575 171.51 111.412 171.487 111.249C174.731 109.332 177.175 106.308 178.369 102.734C178.423 102.562 178.469 102.381 178.518 102.209C178.713 102.145 178.892 102.041 179.044 101.904C179.196 101.767 179.317 101.599 179.401 101.413C179.663 100.829 179.668 100.146 179.993 99.6027C180.374 98.9602 181.098 98.6163 181.668 98.1322C183.106 96.9105 183.478 94.8517 183.41 92.9785C183.364 91.4627 183.12 89.9334 183.215 88.4266L183.242 88.0466C183.269 87.8203 183.301 87.5941 183.342 87.3769C183.563 86.2548 184.048 85.196 184.319 84.0829C184.591 82.9698 184.618 81.7165 183.984 80.7572C183.057 79.35 181.125 79.0695 179.428 78.9247C177.505 78.7618 175.785 78.9745 174.555 77.3773C173.979 76.5425 173.331 75.7597 172.618 75.038C172.365 74.8027 169.903 73.3005 169.903 73.2009C167.501 72.0883 164.778 71.8794 162.234 72.6127C160.958 72.9838 159.754 73.5901 158.46 73.8932C155.669 74.5538 152.456 73.8389 150.085 75.4362C148.764 76.3411 147.972 77.78 147.23 79.1826C146.627 80.3379 146.014 81.4917 145.393 82.644C144.393 84.5399 143.375 86.4674 142.954 88.5669C142.866 89.0237 142.811 89.4865 142.791 89.9515V89.9741C142.791 90.1415 142.791 90.3089 142.791 90.4763V90.689C142.791 90.8474 142.791 91.0012 142.818 91.1415C142.846 91.2817 142.841 91.327 142.855 91.422C142.868 91.517 142.891 91.7297 142.918 91.8745C142.945 92.0193 142.999 92.2726 143.054 92.4717C143.076 92.5577 143.108 92.6391 143.135 92.7206C143.18 92.8744 143.235 93.0237 143.293 93.1731C143.325 93.25 143.357 93.3314 143.393 93.4083C143.461 93.5667 143.542 93.7206 143.624 93.8608C143.66 93.9242 143.687 93.983 143.723 94.0418C143.85 94.2522 143.989 94.4547 144.14 94.6481C145.108 95.8562 146.533 96.6254 147.587 97.7566C147.587 97.8018 147.587 97.8471 147.587 97.8878C147.587 98.0145 147.587 98.1367 147.587 98.2634C147.643 100.786 148.315 103.257 149.543 105.461C150.772 107.665 152.521 109.536 154.637 110.91C154.637 111.082 154.66 111.258 154.669 111.43C154.757 112.773 154.74 114.121 154.619 115.462C154.435 115.245 154.204 115.072 153.944 114.956C153.684 114.84 153.401 114.784 153.117 114.792C152.922 114.783 152.727 114.799 152.537 114.842L152.497 114.81V114.851C151.501 115.095 150.275 116.132 149.103 119.077C149.103 119.077 145.538 123.095 142.823 122.928C140.108 122.76 133.235 127.108 133.235 127.108C133.235 127.108 126.529 131.461 125.091 135.895C124.286 138.41 123.322 140.87 122.204 143.262L113.914 160.343L112.385 173.894C112.385 173.894 113.231 179.921 113.064 180.84C112.896 181.758 116.543 190.043 116.543 190.043C116.543 190.043 128.593 211.214 133.516 212.3L133.868 212.051C134.079 212.161 134.302 212.245 134.534 212.3L135.547 211.585C135.608 212.382 135.582 213.183 135.47 213.974C134.792 216.065 135.724 229.707 136.909 232.381C138.095 235.055 137.674 270.117 137.674 270.117L137.506 273.212C137.506 273.212 137.506 273.311 137.547 273.483L137.506 274.216L137.629 274.28C137.755 275.261 137.714 276.257 137.506 277.225C137.081 278.583 136.909 282.42 136.909 282.42C136.909 282.42 133.52 304.084 135.126 308.437C136.733 312.79 138.099 317.559 138.099 317.559C138.099 317.559 139.796 322.988 138.181 323.916C136.565 324.843 131.973 326.4 132.918 328.662C133.778 330.753 137.04 336.354 137.524 337.173L137.484 337.603L136.819 344.811C136.926 345.763 137.184 346.691 137.583 347.562C138.312 349.132 139.728 350.761 142.42 350.585C142.873 350.553 143.398 350.499 143.904 350.431C148.832 349.77 154.899 347.571 154.899 347.571C154.584 347.371 154.296 347.132 154.04 346.861C153.797 346.626 153.606 346.345 153.476 346.033C153.346 345.722 153.281 345.388 153.284 345.051C153.356 343.739 150.9 337.485 150.289 335.947C150.194 335.725 150.144 335.599 150.144 335.599C150.144 335.599 155.745 329.744 154.813 324.554C154.813 324.554 148.615 320.934 150.655 318.948C152.696 316.961 156.343 311.256 156.343 311.256C156.343 311.256 156.51 289.922 156.343 286.736C156.168 284.525 156.273 282.301 156.655 280.117C156.723 279.786 156.804 279.465 156.89 279.148C159.712 279.569 162.561 279.786 165.415 279.795C166.456 279.795 167.514 279.795 168.582 279.732C168.582 280.034 168.596 280.359 168.623 280.709C168.858 285.994 169.297 295.261 169.654 298.704C170.161 303.641 172.962 316.943 172.962 316.943C172.962 316.943 167.618 320.373 173.894 328.825C173.894 328.825 173.894 331.888 173.478 332.332C173.033 333.781 172.675 335.256 172.406 336.748C172.143 338.341 172.035 339.951 172.46 340.788C173.478 342.788 179.586 342.626 179.586 342.626L179.736 342.598C180.889 342.479 182.054 342.59 183.164 342.925C184.274 343.26 185.306 343.812 186.201 344.549C188.523 346.413 197.332 345.594 202.101 345.001C203.97 344.766 205.219 344.549 205.219 344.549C205.279 344.337 205.301 344.116 205.282 343.897C205.232 342.725 204.314 340.155 198.088 337.861C198.088 337.861 192.233 333.924 192.314 330.495H192.192H191.513C192.007 330.468 192.323 330.495 192.323 330.495C192.323 330.495 190.029 322.124 190.966 321.445C191.903 320.767 189.097 311.491 189.097 311.491C189.097 311.491 187.491 295.926 187.405 294.835C187.409 293.9 187.55 292.97 187.826 292.075L187.405 283.542C187.405 283.542 187.324 280.705 187.405 279.782C187.391 278.98 187.326 278.181 187.21 277.388C187.17 277.071 187.129 276.741 187.084 276.415C189.278 275.859 190.703 275.343 190.703 275.343L190.45 245.638C192.314 242.018 192.658 234.077 192.649 228.444C192.649 224.824 192.486 222.146 192.486 222.146L195.034 217.988C195.034 217.988 195.622 213.01 194.69 211.92C194.278 211.427 194.464 210.915 194.803 210.495C194.979 210.355 195.165 210.228 195.359 210.115C195.359 210.115 195.332 210.074 195.301 210.015C195.478 209.866 195.668 209.732 195.866 209.612C195.866 209.612 194.961 208.21 195.771 207.617C196.531 208.133 197.21 208.522 197.726 208.839C197.69 209.169 197.653 209.359 197.653 209.359L197.871 208.906C198.368 209.187 198.672 209.359 198.672 209.359C198.672 209.359 202.662 201.409 202.576 200.237C202.49 199.065 205.291 194.129 205.291 194.129C205.291 194.129 205.631 191.536 207.16 190.45C208.689 189.364 208.345 181.496 208.345 181.496C208.345 181.496 208.771 177.396 209.789 175.722C210.807 174.048 208.861 171.79 208.861 171.79ZM132.502 168.302L132.579 170.197C132.126 169.469 131.801 168.944 131.801 168.944L132.502 168.302Z" fill="url(#paint0_linear_33_807)"/>
<path d="M198.889 205.925L197.911 210.087C197.911 210.087 190.084 206.092 188.672 201.015C187.26 195.939 191.034 194.011 191.034 194.011L198.328 197.101L198.889 205.925Z" fill="white"/>
<path opacity="0.1" d="M198.889 205.925L197.911 210.087C197.911 210.087 190.084 206.092 188.672 201.015C187.26 195.939 191.034 194.011 191.034 194.011L198.328 197.101L198.889 205.925Z" fill="black"/>
<path d="M154.958 347.598C154.958 347.598 147.719 350.259 142.741 350.594C140.099 350.77 138.71 349.15 137.995 347.589C137.604 346.721 137.353 345.798 137.248 344.852L137.895 337.68L138.239 333.861L148.814 331.115L150.311 335.694L150.452 336.042C151.053 337.571 153.465 343.793 153.393 345.092C153.39 345.424 153.454 345.754 153.581 346.061C153.709 346.368 153.897 346.646 154.135 346.879C154.377 347.153 154.654 347.394 154.958 347.598Z" fill="white"/>
<path d="M204.409 343.951C204.427 344.169 204.406 344.388 204.346 344.598C204.346 344.598 188.862 347.182 185.695 344.598C184.802 343.844 183.761 343.284 182.639 342.955C181.517 342.626 180.338 342.536 179.179 342.689C179.179 342.689 173.188 342.852 172.188 340.879C171.772 340.051 171.881 338.445 172.139 336.861C172.402 335.377 172.752 333.91 173.188 332.468L173.428 332.278L174.853 331.133L191.541 330.64H191.667C191.586 334.051 197.332 337.965 197.332 337.965C203.436 340.227 204.336 342.784 204.409 343.951Z" fill="white"/>
<path opacity="0.1" d="M204.409 343.951C204.425 344.169 204.402 344.388 204.341 344.598C204.341 344.598 188.862 347.182 185.695 344.598C184.802 343.844 183.762 343.285 182.641 342.956C181.52 342.627 180.342 342.536 179.184 342.689C179.184 342.689 173.188 342.852 172.193 340.879C171.777 340.046 171.881 338.445 172.139 336.861C174.446 337.092 178.089 337.666 179.518 339.037C181.681 341.123 185.346 343.205 187.595 343.368C189.355 343.481 199.884 343.816 204.409 343.951Z" fill="black"/>
<path opacity="0.1" d="M154.958 347.598C154.958 347.598 147.719 350.259 142.741 350.594C140.099 350.77 138.71 349.15 138 347.585C139.841 348.205 142.398 348.856 143.741 348.259C145.334 347.553 150.981 347.096 154.148 346.901C154.389 347.165 154.661 347.399 154.958 347.598Z" fill="black"/>
<path d="M165.7 133.194C159.727 130.873 152.044 123.204 153.963 119.62C154.389 118.716 154.642 117.74 154.709 116.742C154.833 115.388 154.851 114.027 154.764 112.67C154.629 110.448 154.362 108.236 153.963 106.046C153.963 106.046 172.609 106.467 171.523 109.213C171.206 110.019 171.157 111.417 171.243 112.982C171.329 114.548 171.555 116.317 171.79 117.815C172.116 119.869 172.442 121.434 172.442 121.434C172.442 121.434 171.301 123.032 170.632 123.118C169.962 123.204 174.27 136.502 165.7 133.194Z" fill="#CF6F80"/>
<path opacity="0.1" d="M150.438 336.042L150.298 336.196C144.723 329.454 137.981 337.857 137.981 337.857L137.882 337.68L138.226 333.861L148.8 331.115L150.298 335.694L150.438 336.042Z" fill="black"/>
<path opacity="0.1" d="M191.672 331.115C191.672 331.115 187.6 331.029 185.428 332.947C183.256 334.866 172.758 333.363 173.211 332.947C173.345 332.741 173.426 332.505 173.446 332.259L174.871 331.115L191.559 330.622C191.622 330.925 191.672 331.115 191.672 331.115Z" fill="black"/>
<path d="M157.374 278.171C157.071 278.921 156.841 279.698 156.687 280.492C156.309 282.667 156.204 284.88 156.374 287.08C156.542 290.247 156.374 311.473 156.374 311.473C156.374 311.473 152.795 317.133 150.8 319.129C148.805 321.124 154.872 324.708 154.872 324.708C155.777 329.866 150.293 335.694 150.293 335.694C144.719 328.952 137.977 337.359 137.977 337.359C137.977 337.359 134.312 331.024 133.398 328.762C132.484 326.5 136.977 324.934 138.556 324.015C140.135 323.097 138.479 317.681 138.479 317.681C138.479 317.681 137.144 312.934 135.561 308.604C133.977 304.274 137.307 282.718 137.307 282.718C137.307 282.718 137.479 278.89 137.891 277.556C138.099 276.592 138.14 275.601 138.013 274.624C137.986 274.293 137.954 274.017 137.932 273.832C137.909 273.646 137.891 273.56 137.891 273.56L137.954 273.452L140.217 269.235C140.217 269.235 158.46 275.515 157.374 278.171Z" fill="#AC2727"/>
<path d="M191.672 330.617C191.672 330.617 187.6 330.531 185.428 332.427C183.256 334.323 172.758 332.843 173.211 332.427C173.663 332.011 173.627 328.929 173.627 328.929C167.469 320.522 172.722 317.111 172.722 317.111C172.722 317.111 169.971 303.876 169.474 298.967C169.125 295.537 168.695 286.32 168.464 281.058C168.365 278.795 168.306 277.239 168.306 277.239L173.338 276.225L173.985 276.094L186.12 273.66C186.12 273.66 186.455 275.922 186.681 277.773C186.794 278.563 186.857 279.359 186.871 280.157C186.79 281.062 186.871 283.895 186.871 283.895L187.283 292.388C187.014 293.278 186.875 294.204 186.871 295.134C186.953 296.216 188.532 311.699 188.532 311.699C188.532 311.699 191.278 320.939 190.342 321.604C189.405 322.269 191.672 330.617 191.672 330.617Z" fill="#AC2727"/>
<path opacity="0.1" d="M171.523 109.213C171.206 110.019 171.157 111.417 171.243 112.982C168.745 114.486 165.874 115.255 162.959 115.201C160.044 115.146 157.203 114.271 154.764 112.675C154.629 110.451 154.362 108.237 153.963 106.046C153.963 106.046 172.609 106.458 171.523 109.213Z" fill="black"/>
<path d="M178.731 99.2136C178.735 100.844 178.478 102.465 177.971 104.014C176.837 107.486 174.513 110.446 171.408 112.37C168.303 114.294 164.619 115.058 161.005 114.528C157.391 113.998 154.081 112.208 151.66 109.473C149.238 106.739 147.862 103.236 147.773 99.5846C147.773 99.4579 147.773 99.3403 147.773 99.2136C147.738 97.1583 148.112 95.1166 148.874 93.2075C149.637 91.2984 150.771 89.5603 152.213 88.0943C153.654 86.6284 155.372 85.4642 157.268 84.6694C159.164 83.8746 161.199 83.4653 163.254 83.4653C165.31 83.4653 167.345 83.8746 169.241 84.6694C171.136 85.4642 172.855 86.6284 174.296 88.0943C175.737 89.5603 176.872 91.2984 177.634 93.2075C178.396 95.1166 178.771 97.1583 178.736 99.2136H178.731Z" fill="#CF6F80"/>
<path opacity="0.1" d="M165.7 133.194C159.727 130.873 152.044 123.204 153.963 119.62C154.389 118.716 154.642 117.74 154.709 116.742L162.886 123.462L167.944 127.611L171.79 117.819C172.116 119.874 172.442 121.439 172.442 121.439C172.442 121.439 171.301 123.036 170.632 123.122C169.962 123.208 174.27 136.502 165.7 133.194Z" fill="black"/>
<path d="M186.844 162.89L180.016 277.592L171.111 278.175L148.053 211.667L151.836 132.706L152.632 116.023L162.886 124.443L167.949 128.593L171.908 118.516L179.27 124.932L186.844 162.89Z" fill="#AC2727"/>
<path opacity="0.1" d="M157.374 278.171C157.071 278.921 156.841 279.698 156.687 280.492C150.207 279.492 143.914 277.526 138.018 274.66L137.895 274.596L137.936 273.868L137.959 273.488L140.221 269.271C140.221 269.271 158.46 275.515 157.374 278.171Z" fill="black"/>
<path opacity="0.1" d="M173.442 280.51C171.785 280.792 170.115 280.982 168.437 281.08C168.338 278.818 168.279 277.261 168.279 277.261L173.31 276.248L173.442 280.51Z" fill="black"/>
<path opacity="0.1" d="M186.654 277.795C183.437 278.632 178.469 279.574 174.021 278.985L173.958 276.117L186.093 273.682C186.093 273.682 186.428 275.922 186.654 277.795Z" fill="black"/>
<path opacity="0.1" d="M173.939 279.51C155.388 282.677 138.398 273.596 138.398 273.596L138.561 270.52C138.561 270.52 138.981 235.638 137.814 232.964C136.647 230.29 135.737 216.73 136.398 214.648C137.058 212.567 133.986 181.355 133.986 181.355L133.488 168.686L115.272 161.306L123.416 144.33C124.516 141.949 125.463 139.501 126.249 136.999C127.665 132.592 134.239 128.262 134.239 128.262C134.239 128.262 140.981 123.937 143.646 124.1C146.311 124.262 149.805 120.272 149.805 120.272C152.384 113.697 154.718 116.674 154.718 116.674C154.718 116.987 154.718 116.674 154.592 117.647C153.687 124.864 169.225 147.669 169.446 148.071L170.926 184.115L172.424 229.729L173.939 279.51Z" fill="black"/>
<path d="M173.442 279.51C154.89 282.678 137.895 273.596 137.895 273.596L138.063 270.52C138.063 270.52 138.484 235.639 137.312 232.964C136.14 230.29 135.235 216.73 135.9 214.648C136.565 212.567 133.488 181.355 133.488 181.355L132.986 168.686L114.761 161.279L122.905 144.302C124.003 141.921 124.949 139.473 125.738 136.972C127.149 132.565 133.728 128.235 133.728 128.235C133.728 128.235 140.47 123.91 143.131 124.072C145.791 124.235 149.289 120.244 149.289 120.244C151.872 113.67 154.718 116.647 154.718 116.647C154.718 116.96 154.447 117.1 154.592 117.62C156.583 124.62 168.727 147.642 168.949 148.044L170.446 184.088L171.944 229.702L173.442 279.51Z" fill="white"/>
<path opacity="0.1" d="M168.442 149.072C166.446 148.239 155.877 136.172 155.877 136.172V133.425C155.492 132.52 153.207 133.072 151.352 133.706L152.148 117.023L153.053 117.774C155.035 124.769 168.211 148.669 168.442 149.072Z" fill="black"/>
<path d="M168.944 148.072C166.944 147.239 156.374 135.172 156.374 135.172V132.425C155.99 131.52 153.705 132.072 151.85 132.706L152.651 116.023L153.556 116.774C155.542 123.769 168.722 147.673 168.944 148.072Z" fill="white"/>
<path opacity="0.1" d="M138.398 208.255C138.647 208.255 151.298 206.925 151.298 206.925C151.298 206.925 158.958 221.987 158.456 225.653C157.954 229.318 157.044 232.562 153.963 231.987C150.881 231.412 137.38 232.44 137.38 232.44L138.398 208.255Z" fill="black"/>
<path d="M137.895 207.255C138.144 207.255 150.795 205.925 150.795 205.925C150.795 205.925 158.451 220.992 157.954 224.653C157.456 228.313 156.537 231.562 153.46 230.987C150.384 230.412 136.877 231.44 136.877 231.44L137.895 207.255Z" fill="white"/>
<path d="M147.429 200.183C147.429 200.183 159.039 206.422 159.288 208.327C159.537 210.232 153.379 207.495 152.049 207.164C151.173 206.953 150.282 206.814 149.384 206.748L140.511 206.988L147.429 200.183Z" fill="#CF6F80"/>
<path opacity="0.1" d="M165.202 149.85C165.877 149.85 166.424 149.303 166.424 148.628C166.424 147.953 165.877 147.406 165.202 147.406C164.527 147.406 163.98 147.953 163.98 148.628C163.98 149.303 164.527 149.85 165.202 149.85Z" fill="black"/>
<path d="M165.202 149.352C165.877 149.352 166.424 148.805 166.424 148.13C166.424 147.456 165.877 146.909 165.202 146.909C164.527 146.909 163.98 147.456 163.98 148.13C163.98 148.805 164.527 149.352 165.202 149.352Z" fill="#3F3D56"/>
<path opacity="0.1" d="M167.451 202.735C168.126 202.735 168.673 202.188 168.673 201.513C168.673 200.838 168.126 200.291 167.451 200.291C166.776 200.291 166.229 200.838 166.229 201.513C166.229 202.188 166.776 202.735 167.451 202.735Z" fill="black"/>
<path d="M167.451 202.232C168.126 202.232 168.673 201.685 168.673 201.011C168.673 200.336 168.126 199.789 167.451 199.789C166.776 199.789 166.229 200.336 166.229 201.011C166.229 201.685 166.776 202.232 167.451 202.232Z" fill="#3F3D56"/>
<path opacity="0.1" d="M166.419 176.292C167.094 176.292 167.641 175.745 167.641 175.071C167.641 174.396 167.094 173.849 166.419 173.849C165.745 173.849 165.198 174.396 165.198 175.071C165.198 175.745 165.745 176.292 166.419 176.292Z" fill="black"/>
<path d="M166.419 175.795C167.094 175.795 167.641 175.248 167.641 174.573C167.641 173.898 167.094 173.351 166.419 173.351C165.745 173.351 165.198 173.898 165.198 174.573C165.198 175.248 165.745 175.795 166.419 175.795Z" fill="#3F3D56"/>
<path d="M194.581 206.495C194.581 206.495 195.414 207.744 194.581 208.327C193.749 208.911 194.663 210.323 194.663 210.323C194.663 210.323 192.586 211.54 193.5 212.635C194.414 213.73 193.835 218.675 193.835 218.675L191.337 222.811C191.337 222.811 191.486 225.476 191.495 229.078C191.495 234.697 191.165 242.598 189.337 246.199L189.59 275.75C189.59 275.75 180.844 278.945 173.523 277.972L172.437 230.553C172.437 230.553 174.021 203.662 174.605 198.504C174.946 195.826 175.085 193.126 175.021 190.428C175.021 190.428 174.772 182.355 173.935 178.609C173.935 178.609 173.03 162.379 172.939 157.886C172.899 155.736 173.012 149.465 173.139 143.502C173.279 136.981 173.437 130.832 173.437 130.832L171.786 117.765C171.786 117.765 173.437 117.598 173.935 118.263C174.158 118.471 174.4 118.657 174.659 118.819C177.509 120.747 187.581 126.674 187.581 126.674C187.581 126.674 193.156 128.891 194.491 132.068C195.825 135.244 196.753 137.497 197.4 138.402C198.047 139.307 198.4 143.56 198.4 143.56C198.4 143.56 200.319 151.388 201.816 152.714C203.314 154.04 204.409 162.474 204.409 162.474L191.174 172.881C191.174 172.881 190.011 190.192 189.762 190.862C189.514 191.532 194.581 206.495 194.581 206.495Z" fill="white"/>
<path d="M195.083 206.495C195.083 206.495 195.911 207.744 195.083 208.327C194.255 208.911 195.16 210.323 195.16 210.323C195.16 210.323 193.097 211.553 194.002 212.648C194.907 213.743 194.337 218.689 194.337 218.689L191.839 222.824C191.839 222.824 191.989 225.49 192.002 229.091C192.002 234.711 191.672 242.611 189.844 246.213L190.093 275.764C190.093 275.764 181.333 278.958 174.021 277.985L172.939 230.566C172.939 230.566 174.523 203.676 175.107 198.518C175.449 195.84 175.586 193.14 175.519 190.441C175.519 190.441 175.27 182.369 174.437 178.622C174.437 178.622 173.532 162.392 173.437 157.899C173.396 155.75 173.514 149.479 173.636 143.515C173.777 136.995 173.935 130.846 173.935 130.846L171.754 117.602C171.754 117.602 173.935 117.602 174.437 118.276C174.658 118.487 174.901 118.674 175.161 118.833C178.012 120.76 188.088 126.688 188.088 126.688C188.088 126.688 193.658 128.905 194.993 132.081C196.328 135.258 197.255 137.511 197.907 138.416C198.558 139.321 198.902 143.574 198.902 143.574C198.902 143.574 200.821 151.402 202.318 152.727C203.816 154.053 204.898 162.469 204.898 162.469L191.663 172.876C191.663 172.876 190.5 190.188 190.247 190.857C189.993 191.527 195.083 206.495 195.083 206.495Z" fill="white"/>
<path opacity="0.1" d="M179.233 134.687L180.428 138.171L174.139 144.506C174.279 137.99 174.437 131.837 174.437 131.837L172.256 118.593C172.256 118.593 174.437 118.593 174.939 119.267C175.16 119.477 175.402 119.662 175.663 119.819L181.012 135.249L179.233 134.687Z" fill="black"/>
<path d="M178.731 133.687L179.93 137.172L173.641 143.506C173.781 136.986 173.939 130.837 173.939 130.837L171.754 117.593C171.754 117.593 173.939 117.593 174.437 118.267C174.659 118.477 174.902 118.663 175.161 118.824L180.514 134.249L178.731 133.687Z" fill="white"/>
<path opacity="0.1" d="M178.731 99.2136C178.735 100.844 178.478 102.465 177.971 104.014C177.885 104.028 177.798 104.024 177.714 104.003C177.63 103.982 177.551 103.944 177.482 103.892C177.365 99.8199 175.36 95.9965 172.894 92.7433C172.202 91.761 171.363 90.8911 170.406 90.1642C169.438 89.4376 168.235 89.0972 167.03 89.2094C165.673 89.395 164.474 90.318 163.103 90.4356C161.293 90.585 159.673 89.3316 157.877 89.2683C157.146 89.2752 156.426 89.4378 155.764 89.7452C155.101 90.0526 154.512 90.4978 154.035 91.051C153.091 92.1674 152.39 93.4679 151.976 94.8699C151.265 96.9958 150.878 99.2166 150.827 101.458C150.804 102.725 150.682 104.313 149.506 104.774C149.594 103.843 149.489 102.903 149.195 102.014C148.901 101.125 148.426 100.307 147.8 99.6118L147.773 99.5846C147.773 99.4579 147.773 99.3403 147.773 99.2136C147.738 97.1583 148.112 95.1166 148.874 93.2075C149.637 91.2984 150.771 89.5603 152.213 88.0943C153.654 86.6284 155.372 85.4642 157.268 84.6694C159.164 83.8746 161.199 83.4653 163.254 83.4653C165.31 83.4653 167.345 83.8746 169.241 84.6694C171.136 85.4642 172.855 86.6284 174.296 88.0943C175.737 89.5603 176.872 91.2984 177.634 93.2075C178.396 95.1166 178.771 97.1583 178.736 99.2136H178.731Z" fill="black"/>
<path d="M169.664 74.6308C167.312 73.5248 164.638 73.3156 162.143 74.0426C160.89 74.4136 159.709 75.0154 158.438 75.3185C155.723 75.9746 152.556 75.2642 150.225 76.8524C148.931 77.7573 148.153 79.1872 147.429 80.5763L145.619 84.0241C144.633 85.9109 143.637 87.8294 143.226 89.9062C142.814 91.9831 143.063 94.3088 144.379 95.9784C145.339 97.1956 146.755 97.9602 147.796 99.105C148.419 99.8013 148.892 100.619 149.185 101.506C149.477 102.394 149.584 103.333 149.497 104.263C150.678 103.811 150.791 102.218 150.818 100.951C150.869 98.7099 151.256 96.489 151.967 94.3631C152.38 92.9607 153.082 91.66 154.026 90.5442C154.503 89.9915 155.093 89.5466 155.755 89.2392C156.417 88.9319 157.137 88.769 157.868 88.7615C159.677 88.8248 161.302 90.0736 163.094 89.9243C164.451 89.8112 165.655 88.8836 167.021 88.7027C168.226 88.5886 169.43 88.9292 170.397 89.6574C171.353 90.3832 172.191 91.2533 172.881 92.2365C175.351 95.4897 177.356 99.3041 177.473 103.385C177.985 103.761 178.722 103.272 178.975 102.693C179.229 102.114 179.238 101.435 179.559 100.883C179.93 100.245 180.641 99.9059 181.197 99.4262C182.609 98.2091 182.962 96.1594 182.907 94.2997C182.853 92.4401 182.491 90.5533 182.844 88.7253C183.057 87.6031 183.536 86.5534 183.799 85.4449C184.061 84.3363 184.093 83.092 183.473 82.1373C182.568 80.7346 180.663 80.4586 179.003 80.3274C177.116 80.1645 175.428 80.3726 174.224 78.7845C173.66 77.9557 173.024 77.1775 172.324 76.4588C172.084 76.2235 169.664 74.7303 169.664 74.6308Z" fill="#512E4E"/>
<path opacity="0.1" d="M120.484 170.048L115.756 161.306L114.258 174.795C114.258 174.795 115.091 180.785 114.923 181.704C114.756 182.622 118.335 190.857 118.335 190.857C118.335 190.857 130.158 211.915 134.986 213.001L151.298 201.346L146.972 195.853C146.972 195.853 145.474 195.269 145.099 195.853C145.099 195.853 137.067 182.034 136.235 181.034C135.402 180.034 135.565 178.039 135.565 178.039C135.565 178.039 134.316 176.709 134.733 175.46C135.149 174.211 132.321 169.881 132.321 169.881L134.9 167.469L120.484 170.048Z" fill="black"/>
<path d="M116.005 160.311L114.756 161.306L113.258 174.795C113.258 174.795 114.091 180.785 113.923 181.704C113.756 182.622 117.34 190.857 117.34 190.857C117.34 190.857 129.158 211.915 133.986 213.001L150.302 201.346L145.972 195.853C145.972 195.853 144.474 195.269 144.099 195.853C144.099 195.853 136.067 182.034 135.235 181.034C134.402 180.034 134.57 178.039 134.57 178.039C134.57 178.039 133.321 176.709 133.737 175.46C134.154 174.211 131.321 169.881 131.321 169.881L133.9 167.469L116.005 160.311Z" fill="white"/>
<path opacity="0.1" d="M193.5 213.151C194.405 214.25 193.835 219.187 193.835 219.187L191.337 223.322C191.337 223.322 191.486 225.992 191.495 229.589L187.296 230.901C186.917 231.02 186.515 231.046 186.123 230.977C185.731 230.909 185.362 230.747 185.045 230.507C184.729 230.266 184.474 229.954 184.303 229.595C184.132 229.236 184.049 228.842 184.061 228.444L184.785 205.092L194.581 208.839C193.749 209.418 194.663 210.839 194.663 210.839C194.663 210.839 192.586 212.051 193.5 213.151Z" fill="black"/>
<path d="M194.002 212.648C194.907 213.748 194.337 218.689 194.337 218.689L191.839 222.824C191.839 222.824 191.989 225.49 192.002 229.091L187.726 230.426C187.355 230.542 186.961 230.567 186.577 230.499C186.194 230.432 185.833 230.274 185.523 230.038C185.213 229.803 184.964 229.496 184.796 229.145C184.628 228.794 184.547 228.408 184.559 228.019L185.287 204.594L195.088 208.341C194.251 208.92 195.165 210.336 195.165 210.336C195.165 210.336 193.097 211.553 194.002 212.648Z" fill="white"/>
<path d="M197.246 201.518C197.246 201.518 196.581 205.766 194.916 206.015C193.251 206.264 192.504 212.888 190.844 212.653C189.183 212.418 190.283 206.495 190.342 205.345C190.4 204.196 188.532 199.436 189.93 198.355C191.328 197.273 195.753 198.355 195.753 198.355L197.246 201.518Z" fill="#CF6F80"/>
<path opacity="0.1" d="M200.789 168.799L203.929 162.465C203.929 162.465 205.178 167.293 205.178 169.872C205.178 172.451 206.925 172.704 206.925 172.704C206.925 172.704 208.839 174.967 207.83 176.614C206.821 178.261 206.413 182.36 206.413 182.36C206.413 182.36 206.744 190.183 205.246 191.265C203.748 192.346 203.436 194.93 203.436 194.93C203.436 194.93 200.685 199.839 200.771 201.006C200.857 202.174 196.943 210.078 196.943 210.078C196.943 210.078 198.857 200.255 187.704 196.011C187.704 196.011 187.618 192.676 188.45 191.762C189.283 190.848 190.581 190.432 189.767 185.812C188.952 181.193 189.532 175.672 189.532 174.564C189.532 173.455 192.029 166.542 192.029 166.542L200.789 168.799Z" fill="black"/>
<path d="M202.147 161.56L204.889 162.465C204.889 162.465 206.142 167.293 206.142 169.872C206.142 172.451 207.888 172.704 207.888 172.704C207.888 172.704 209.802 174.967 208.793 176.614C207.784 178.261 207.382 182.36 207.382 182.36C207.382 182.36 207.712 190.183 206.214 191.265C204.717 192.346 204.382 194.93 204.382 194.93C204.382 194.93 201.635 199.839 201.721 201.006C201.807 202.174 197.889 210.078 197.889 210.078C197.889 210.078 199.807 200.255 188.649 196.011C188.649 196.011 188.568 192.676 189.4 191.762C190.233 190.848 191.532 190.432 190.717 185.812C189.903 181.193 190.482 175.672 190.482 174.564C190.482 173.455 192.979 166.542 192.979 166.542L202.147 161.56Z" fill="white"/>
<path opacity="0.1" d="M141.583 325.748C141.583 325.748 145.954 323.002 148.823 324.997C151.691 326.993 141.583 325.748 141.583 325.748Z" fill="black"/>
<path opacity="0.1" d="M175.546 317.255C175.546 317.255 179.414 316.758 182.663 320.255C185.912 323.753 175.546 317.255 175.546 317.255Z" fill="black"/>
<g opacity="0.1">
<path d="M181.206 98.4354C180.65 98.915 179.935 99.2589 179.564 99.8969C179.247 100.444 179.238 101.119 178.984 101.707C178.731 102.295 177.994 102.775 177.482 102.404C177.365 98.3314 175.356 94.5079 172.89 91.2501C172.2 90.267 171.362 89.3969 170.406 88.6711C169.437 87.943 168.232 87.6025 167.026 87.7163C165.668 87.9019 164.474 88.8249 163.103 88.938C161.293 89.0919 159.668 87.8385 157.872 87.7752C157.142 87.7824 156.422 87.9457 155.76 88.2539C155.099 88.5622 154.51 89.0083 154.035 89.5624C153.091 90.6765 152.389 91.9757 151.976 93.3768C151.265 95.5028 150.878 97.7236 150.827 99.9648C150.8 101.227 150.682 102.802 149.515 103.272C149.542 103.607 149.542 103.943 149.515 104.277C150.691 103.824 150.809 102.232 150.836 100.965C150.887 98.7235 151.274 96.5026 151.985 94.3767C152.398 92.9744 153.1 91.6737 154.044 90.5579C154.52 90.0052 155.109 89.5604 155.771 89.253C156.432 88.9456 157.152 88.7827 157.881 88.7751C159.691 88.8385 161.32 90.0873 163.112 89.938C164.469 89.8249 165.673 88.8973 167.035 88.7163C168.241 88.6025 169.446 88.9429 170.415 89.671C171.371 90.3969 172.209 91.267 172.899 92.2501C175.365 95.5034 177.374 99.3177 177.491 103.399C178.003 103.775 178.74 103.286 178.994 102.707C179.247 102.128 179.256 101.449 179.573 100.897C179.944 100.259 180.659 99.9195 181.215 99.4399C182.627 98.2227 182.98 96.1731 182.926 94.3134C182.926 94.2546 182.926 94.1957 182.926 94.1415C182.84 95.7523 182.41 97.3947 181.206 98.4354Z" fill="black"/>
<path d="M147.805 98.1142C146.764 96.9694 145.343 96.2048 144.388 94.9921C143.585 93.9186 143.125 92.6264 143.072 91.2864C142.929 92.9609 143.397 94.6306 144.388 95.9876C145.343 97.2047 146.764 97.9694 147.805 99.1141C148.804 100.234 149.404 101.653 149.51 103.15C149.58 102.239 149.464 101.324 149.171 100.458C148.878 99.5928 148.413 98.7956 147.805 98.1142Z" fill="black"/>
<path d="M183.808 84.454C183.541 85.5626 183.066 86.6168 182.849 87.7344C182.72 88.4812 182.673 89.2398 182.708 89.9968C182.723 89.5656 182.77 89.1361 182.849 88.7118C183.066 87.5896 183.541 86.5399 183.808 85.4313C183.963 84.8199 184.014 84.1865 183.957 83.5581C183.929 83.8599 183.879 84.1594 183.808 84.454Z" fill="black"/>
</g>
<path opacity="0.1" d="M60.0567 344.146C84.4063 344.146 104.146 340.976 104.146 337.065C104.146 333.154 84.4063 329.984 60.0567 329.984C35.707 329.984 15.9678 333.154 15.9678 337.065C15.9678 340.976 35.707 344.146 60.0567 344.146Z" fill="#AC2727"/>
<path d="M61.4774 201.414H58.6404V265.289H61.4774V201.414Z" fill="#535461"/>
<path d="M79.3048 265.094L79.1284 267.972L78.875 272.044L78.7709 273.737L78.5221 277.809L78.4135 279.501L78.1601 283.573L75.3005 329.757C75.1762 331.744 74.2994 333.609 72.8485 334.973C71.3976 336.336 69.4817 337.096 67.4908 337.096H52.6225C50.632 337.096 48.7167 336.336 47.2665 334.973C45.8164 333.609 44.9406 331.744 44.8174 329.757L41.9713 283.542L41.718 279.47L41.6139 277.777L41.3605 273.705L41.2564 272.013L41.0031 267.941L40.8221 265.063C40.7906 264.509 40.8727 263.954 41.0632 263.433C41.2537 262.912 41.5487 262.436 41.93 262.033C42.3114 261.63 42.771 261.309 43.2807 261.09C43.7905 260.871 44.3396 260.759 44.8943 260.76H75.305C75.8576 260.765 76.4035 260.882 76.9088 261.106C77.4141 261.33 77.8681 261.655 78.243 262.062C78.6178 262.468 78.9053 262.946 79.088 263.468C79.2706 263.99 79.3444 264.543 79.3048 265.094Z" fill="#3F3D56"/>
<path d="M79.1283 267.972L78.875 272.031H41.2383L40.9849 267.972H79.1283Z" fill="#9D9CB5"/>
<path d="M78.7709 273.723L78.5221 277.786H41.5958L41.3424 273.723H78.7709Z" fill="#9D9CB5"/>
<path d="M78.4135 279.483L78.1646 283.542H41.9532L41.6999 279.483H78.4135Z" fill="#9D9CB5"/>
<path d="M36.6548 225.354C53.1746 237.308 60.0702 256.004 60.0702 256.004C60.0702 256.004 40.1615 255.321 23.6372 243.367C7.11288 231.412 0.230774 212.721 0.230774 212.721C0.230774 212.721 20.1305 213.4 36.6548 225.354Z" fill="#AC2727"/>
<path d="M0.217163 212.721C0.217163 212.721 20.8861 224.191 27.5148 233.688C34.1435 243.186 60.0702 256.004 60.0702 256.004" stroke="#535461" stroke-width="2" stroke-miterlimit="10"/>
<path d="M47.3196 201.273C56.3102 207.775 60.0702 217.951 60.0702 217.951C60.0702 217.951 49.2335 217.58 40.2384 211.078C31.2432 204.576 27.4922 194.396 27.4922 194.396C27.4922 194.396 38.3244 194.767 47.3196 201.273Z" fill="#AC2727"/>
<path d="M27.4922 194.396C27.4922 194.396 38.7407 200.64 42.3469 205.807C45.9531 210.974 60.0702 217.951 60.0702 217.951" stroke="#535461" stroke-width="2" stroke-miterlimit="10"/>
<path d="M73.1241 217.435C62.7941 228.788 60.6087 243.625 60.6087 243.625C60.6087 243.625 75.1738 240.05 85.4946 228.693C95.8155 217.336 98.01 202.504 98.01 202.504C98.01 202.504 83.454 206.083 73.1241 217.435Z" fill="#AC2727"/>
<path d="M98.0191 202.509C98.0191 202.509 84.5626 214.146 81.1419 222.164C77.7212 230.182 60.6087 243.625 60.6087 243.625" stroke="#535461" stroke-width="2" stroke-miterlimit="10"/>
<path d="M452.323 213.44C452.323 213.44 444.853 176.274 447.712 171.65C447.712 171.65 447.816 167.351 447.644 161.872C447.644 161.664 447.644 161.456 447.644 161.243C448.148 161.578 448.672 161.881 449.215 162.148C451.849 163.502 454.874 163.892 457.766 163.252L455.504 160.732C454.961 160.13 454.395 159.478 454.278 158.682C454.16 157.886 454.486 157.175 454.766 156.465C456.916 151.035 457.029 144.207 452.889 140.063C449.391 136.579 448.54 132.081 444.744 128.9C441.97 126.57 440.446 123.154 439.007 119.851C437.79 117.059 436.563 114.245 435.867 111.286C435.324 108.973 435.106 106.58 434.36 104.322C433.613 102.064 432.215 99.8697 430.03 98.8607C429.251 98.5032 428.387 98.2996 427.677 97.8245C426.745 97.1956 426.184 96.173 425.509 95.2771C422.084 90.7524 410.614 93.4174 405.184 95.2545C403.708 95.7171 402.341 96.4744 401.166 97.4806L401.216 97.3992C401.257 97.3313 401.307 97.2634 401.352 97.1956C400.758 97.6761 400.244 98.249 399.832 98.8923C399.04 100.146 398.71 101.607 398.049 102.965C397.253 104.571 392.823 109.055 394.728 110.86C394.861 110.981 395.014 111.079 395.18 111.15C395.895 111.447 396.683 111.526 397.443 111.376L397.361 111.571C396.711 113.163 396.377 114.868 396.379 116.589C396.379 124.023 402.51 130.05 410.08 130.05C411.503 130.051 412.918 129.833 414.275 129.403C414.306 129.574 414.333 129.746 414.365 129.918C414.365 129.986 414.388 130.054 414.397 130.122L414.157 130.457C414.145 130.436 414.131 130.416 414.116 130.398L407.012 140.325C405.926 141.09 399.673 145.615 399.32 149.008C398.949 152.723 398.578 157.071 398.578 157.071L398.529 158.003C398.218 158.263 397.855 158.452 397.464 158.557C397.074 158.663 396.665 158.682 396.266 158.614C394.049 158.252 394.049 166.759 394.049 166.759C394.049 166.759 392.574 168.116 391.56 166.94C390.547 165.763 387.868 169.75 387.868 169.75L371.082 170.473L370.697 170.496L369.792 167.695C369.695 167.4 369.485 167.155 369.208 167.013C368.931 166.872 368.609 166.845 368.312 166.94C368.242 166.963 368.174 166.991 368.109 167.026L368.045 167.062L367.928 167.143L367.869 167.198C367.837 167.227 367.806 167.259 367.779 167.293L367.724 167.356L367.697 167.383C367.593 167.528 367.523 167.694 367.495 167.87C367.467 168.046 367.48 168.227 367.534 168.397L368.312 170.799C365.073 171.451 361.761 173.288 364.462 178.346L350.77 175.817L355.2 179.536L378.068 184.256C377.765 184.799 377.964 185.586 378.909 186.695C382.982 191.477 390.402 192.776 393.388 193.111C394.177 194.875 395.162 196.544 396.325 198.088L396.067 202.852C396.067 202.852 388.506 239.168 387.122 241.009C387.821 240.217 388.46 239.375 389.036 238.489C386.841 245.95 383.773 256.163 382.968 257.692C381.674 260.135 380.475 270.022 381.95 270.655C382.402 270.85 383.697 270.755 385.543 270.615V271.434L385.461 302.469C385.461 302.469 385.832 321.504 384.814 323.319C383.796 325.133 383.525 328.938 383.525 328.938C383.525 328.938 379.452 336.445 376.226 339.463C376.204 339.486 376.18 339.507 376.154 339.526L376.054 338.82C376.054 338.82 372.177 343.716 363.598 343.44C363.598 343.44 358.435 346.797 366.091 346.978C373.747 347.159 383.525 346.707 383.525 346.707C383.525 346.707 390.352 336.3 396.072 337.657V345.544H397.823V337.531C398.635 336.996 399.33 336.302 399.866 335.491C400.402 334.68 400.767 333.768 400.94 332.811C401.09 331.825 400.98 330.817 400.622 329.886C400.263 328.956 399.668 328.135 398.895 327.504C398.548 327.19 398.269 326.808 398.077 326.381C397.885 325.954 397.783 325.492 397.777 325.024L397.714 325.079C397.714 324.92 397.673 324.757 397.655 324.59C397.153 320.518 396.524 312.115 398.746 305.898C401.791 297.374 402.714 285.501 400.497 278.433C399.781 276.174 399.194 273.876 398.737 271.551C398.682 271.257 398.633 270.977 398.587 270.714C400.103 270.919 401.604 271.221 403.08 271.619C408.216 273.035 419.451 273.298 429.043 273.221C429.066 273.483 429.093 273.759 429.125 274.035C429.296 275.954 429.653 277.851 430.193 279.7C431.396 283.32 431.948 299.279 431.948 299.279C431.948 299.279 433.5 312.4 432.654 317.74C432.202 320.708 431.749 323.69 431.491 326.685V326.744C431.491 326.744 428.948 333.983 427.089 337.915C427.043 338.015 426.994 338.114 426.948 338.209C426.453 338.255 425.964 338.363 425.496 338.531C425.496 338.531 423.003 343.508 420.519 344.331C418.035 345.155 418.858 347.865 424.482 346.87C430.107 345.874 438.6 345.06 438.6 345.06L438.966 339.983L440.694 337.82L440.242 342.883L442.084 342.522L441.839 336.363L444.667 332.825C444.667 332.825 448.083 329.784 443.007 323.803V323.934C442.952 323.848 442.902 323.757 442.844 323.672V323.644C442.002 322.341 441.332 319.911 442.559 315.599C444.776 307.808 446.065 300.736 446.065 300.736C446.065 300.736 451.015 281.791 445.065 272.827H445.328C444.718 271.566 444.287 270.226 444.047 268.845C444.017 268.683 443.99 268.515 443.966 268.343C448.368 268.09 452.689 267.293 456.214 265.574C456.201 265.556 454.079 220.598 452.323 213.44ZM396.429 182.084V182.174L395.524 182.22L396.429 182.084ZM393.325 182.514C393.176 182.547 393.037 182.613 392.918 182.708C392.529 183.259 392.285 183.898 392.208 184.568L390.796 184.251C390.796 184.251 389.805 184.039 388.38 183.799L387.705 183.12C389.561 182.966 391.488 182.74 393.325 182.514Z" fill="url(#paint1_linear_33_807)"/>
<path d="M440.034 336.427L439.495 342.838L441.301 342.476L441.029 335.522L440.034 336.427Z" fill="#1D2366"/>
<path d="M398.845 305.984C396.669 312.183 397.284 320.549 397.773 324.613C397.954 326.115 398.121 327.029 398.121 327.029C398.121 327.029 394.868 334.44 394.597 334.721C394.325 335.001 385.022 340.68 385.022 340.68L378.52 344.476C378.52 344.476 371.923 341.585 375.086 340.589C375.732 340.33 376.314 339.933 376.792 339.427C379.959 336.418 383.936 328.938 383.936 328.938C383.936 328.938 384.208 325.142 385.203 323.337C386.199 321.531 385.837 302.559 385.837 302.559L385.914 271.633V267.601L398.289 267.692C398.367 269.06 398.545 270.421 398.823 271.764C399.267 274.081 399.842 276.371 400.547 278.623C402.728 285.677 401.823 297.491 398.845 305.984Z" fill="#FFB0B1"/>
<path opacity="0.1" d="M398.121 327.029C398.121 327.029 394.868 334.44 394.597 334.721C394.325 335.001 385.022 340.68 385.022 340.68L378.52 344.476C378.52 344.476 371.923 341.585 375.086 340.589C375.732 340.33 376.314 339.933 376.792 339.427L377.072 341.404L379.24 341.313L397.791 324.622C397.954 326.115 398.121 327.029 398.121 327.029Z" fill="black"/>
<path d="M397.895 325.042L379.24 341.847L377.072 341.938L376.62 338.771C376.62 338.771 372.828 343.648 364.403 343.377C364.403 343.377 359.344 346.72 366.842 346.901C374.339 347.082 383.914 346.63 383.914 346.63C383.914 346.63 390.601 336.223 396.198 337.58V345.44H397.918V337.508C398.717 336.97 399.399 336.276 399.923 335.467C400.448 334.658 400.803 333.752 400.967 332.802C401.116 331.824 401.011 330.824 400.661 329.899C400.312 328.973 399.73 328.153 398.972 327.517C398.633 327.2 398.363 326.817 398.178 326.391C397.993 325.966 397.897 325.507 397.895 325.042Z" fill="#1D2366"/>
<path d="M441.753 315.649C440.55 319.948 441.206 322.368 442.029 323.667V323.694C443.085 325.298 443.82 327.091 444.192 328.975L444.264 329.382L435.776 341.757L431.17 343.567C431.17 343.567 423.763 341.037 425.116 340.313C425.455 340.137 425.985 339.196 426.591 337.897C428.401 333.983 430.898 326.762 430.898 326.762V326.703C431.161 323.721 431.577 320.749 432.039 317.789C432.867 312.464 431.346 299.392 431.346 299.392C431.346 299.392 430.803 283.497 429.627 279.881C429.096 278.043 428.743 276.158 428.573 274.253C428.328 271.99 428.274 270.126 428.274 270.126C428.274 270.126 433.152 263.339 442.093 270.669C442.808 271.254 443.437 271.936 443.961 272.696C450.138 281.483 445.165 300.84 445.165 300.84C445.165 300.84 443.921 307.88 441.753 315.649Z" fill="#FFB0B1"/>
<path opacity="0.1" d="M444.278 329.382L435.79 341.757L431.183 343.567C431.183 343.567 423.776 341.037 425.129 340.313C425.469 340.137 425.998 339.196 426.604 337.897C429.74 337.87 431.364 340.856 431.364 340.856L435.337 340.223C435.337 340.223 440.577 329.925 441.753 329.296C442.93 328.667 441.934 324.595 441.934 324.595V323.558C441.966 323.595 441.993 323.635 442.029 323.671V323.699C443.085 325.302 443.82 327.095 444.192 328.979L444.278 329.382Z" fill="black"/>
<path d="M431.636 341.123C431.636 341.123 429.374 336.97 425.039 338.504C425.039 338.504 422.6 343.481 420.161 344.286C417.722 345.092 418.537 347.806 424.048 346.815C429.559 345.825 437.867 345.006 437.867 345.006L438.228 339.942L443.83 332.807C443.83 332.807 447.169 329.78 442.201 323.821V324.857C442.201 324.857 443.197 328.929 442.02 329.558C440.844 330.187 435.622 340.49 435.622 340.49L431.636 341.123Z" fill="#1D2366"/>
<path opacity="0.1" d="M398.302 267.683C398.38 269.051 398.559 270.412 398.836 271.755C393.741 271.008 389.013 271.379 385.914 271.624V267.592L398.302 267.683Z" fill="black"/>
<path opacity="0.1" d="M444.464 273.823C444.464 273.823 437.224 274.176 428.591 274.248C428.347 271.986 428.292 270.121 428.292 270.121C428.292 270.121 433.17 263.334 442.111 270.664C442.826 271.249 443.455 271.931 443.979 272.691C444.12 273.077 444.281 273.455 444.464 273.823Z" fill="black"/>
<path d="M444.464 273.008C444.464 273.008 412.754 274.542 403.089 271.832C393.425 269.121 383.846 271.47 382.402 270.841C380.959 270.212 382.131 260.362 383.398 257.923C384.665 255.484 391.615 230.82 391.615 230.82L398.302 195.952L405.347 194.011L405.845 193.871L418.121 190.486L427.116 188.002C427.116 188.002 445.002 257.832 443.468 262.981C442.911 264.953 442.821 267.027 443.206 269.04C443.44 270.414 443.863 271.75 444.464 273.008Z" fill="#1D2366"/>
<path d="M374.991 172.107C374.991 172.107 368.656 178.894 373.453 182.677C378.249 186.459 381.402 183.039 381.402 183.039L374.991 172.107Z" fill="#C7DAF5"/>
<path opacity="0.1" d="M374.991 172.107C374.991 172.107 368.656 178.894 373.453 182.677C378.249 186.459 381.402 183.039 381.402 183.039L374.991 172.107Z" fill="black"/>
<path d="M426.17 127.484C426.17 127.484 425.428 128.19 424.31 129.231C422.718 130.719 420.36 132.896 418.27 134.719C415.374 137.239 412.985 139.09 413.84 137.511C414.695 135.932 414.533 133.181 414.107 130.606C414.076 130.434 414.048 130.262 414.017 130.095C413.664 128.204 413.198 126.336 412.619 124.502C412.619 124.502 417.297 118.457 419.885 116.073C420.849 115.168 421.523 114.797 421.564 115.426C421.609 116.272 422.243 118.141 423.03 120.122C423.053 120.186 423.075 120.245 423.102 120.308C423.627 121.665 424.22 123.059 424.74 124.263C425.537 126.109 426.17 127.484 426.17 127.484Z" fill="#FFB0B1"/>
<path opacity="0.1" d="M423.102 120.308C422.663 122.673 421.596 124.876 420.014 126.688C418.431 128.499 416.391 129.852 414.107 130.606C413.747 128.541 413.25 126.501 412.619 124.502C412.619 124.502 421.428 113.123 421.564 115.426C421.596 116.299 422.283 118.235 423.102 120.308Z" fill="black"/>
<path opacity="0.1" d="M413.229 133.647L414.37 132.041C414.37 132.041 415.125 136.647 417.903 134.615C420.682 132.583 420.817 149.904 420.817 149.904L417.836 194.486L396.289 193.197L396.9 171.654L399.338 160.795L405.37 145.008L408.958 139.791L413.229 133.647Z" fill="black"/>
<path d="M420.817 150.18L418.103 190.491L417.817 194.762L405.804 194.043L405.352 194.016L396.302 193.473L396.913 171.926L399.352 161.067L405.383 145.28L408.972 140.063L413.243 133.896L414.383 132.294C414.383 132.294 415.139 136.9 417.917 134.868L417.976 134.828C420.691 133.108 420.817 150.18 420.817 150.18Z" fill="#1D2366"/>
<path d="M399.655 157.293C399.655 157.293 398.574 159.555 396.402 159.189C394.23 158.822 394.235 167.333 394.235 167.333C394.235 167.333 392.791 168.691 391.796 167.514C390.8 166.338 388.176 170.315 388.176 170.315L371.733 171.039C371.733 171.039 379.05 174.383 377.615 184.5C377.615 184.5 402.456 182.962 403.27 180.613C404.085 178.265 399.655 157.293 399.655 157.293Z" fill="white"/>
<path opacity="0.03" d="M399.655 157.293C399.655 157.293 398.574 159.555 396.402 159.189C394.23 158.822 394.235 167.333 394.235 167.333C394.235 167.333 392.791 168.691 391.796 167.514C390.8 166.338 388.176 170.315 388.176 170.315L371.733 171.039C371.733 171.039 379.05 174.383 377.615 184.5C377.615 184.5 402.456 182.962 403.27 180.613C404.085 178.265 399.655 157.293 399.655 157.293Z" fill="black"/>
<path d="M351.87 176.356L356.204 180.057L391.886 187.554L387.461 183.039L351.87 176.356Z" fill="white"/>
<path d="M413.297 135.072C412.704 135.977 411.008 140.61 409.591 144.655C408.411 148.026 407.424 150.99 407.424 150.99C407.424 150.99 405.121 165.985 403.945 168.695C402.768 171.406 403.406 181.975 403.406 181.975L399.022 208.078C399.022 208.078 397.035 221.54 393.968 229.58C390.941 237.494 387.57 241.204 387.466 241.322C388.823 239.485 396.221 203.314 396.221 203.314L398.664 157.696C398.664 157.696 399.022 153.361 399.384 149.655C399.746 145.949 407.076 140.891 407.076 140.891L414.143 130.841C414.854 131.792 414.379 133.448 413.297 135.072Z" fill="white"/>
<path d="M394.868 193.699C394.868 193.699 384.461 193.246 379.421 187.192C374.38 181.138 391.072 184.776 391.072 184.776L395.411 185.772L394.868 193.699Z" fill="#FFB0B1"/>
<path opacity="0.1" d="M443.468 262.986C442.911 264.958 442.821 267.032 443.206 269.045C431.853 269.85 419.709 266.782 419.709 266.782C417.446 268.864 411.487 271.931 411.487 271.931L408.239 231.661C406.162 226.232 405.347 197.785 405.347 197.785C405.347 197.785 405.533 196.296 405.8 194.065C405.8 194.011 405.8 193.952 405.822 193.898C406.632 187.667 408.239 175.971 409.026 174.392C410.112 172.22 405.687 166.442 405.687 166.442L407.7 149.271L407.945 147.198C412.189 145.302 415.442 139.248 415.442 139.248L417.94 134.873C420.654 133.131 420.795 150.203 420.795 150.203L418.08 190.513L427.075 188.029C427.075 188.029 445.002 257.837 443.468 262.986Z" fill="black"/>
<path d="M455.119 265.769C442.744 271.913 420.252 266.221 420.252 266.221C417.989 268.303 412.03 271.37 412.03 271.37L408.777 231.1C406.705 225.671 405.89 197.224 405.89 197.224C405.89 197.224 408.506 175.998 409.592 173.831C409.908 173.197 409.754 172.256 409.379 171.243C407.532 166.419 406.853 161.226 407.397 156.089L408.266 148.71L408.506 146.642C412.754 144.741 416.008 138.687 416.008 138.687L418.27 134.724L422.433 127.421L424.405 123.964L424.74 124.267L427.297 126.584C427.297 126.584 428.383 127.489 430.012 128.846C433.554 131.832 439.676 137.09 442.835 140.307C445.613 143.14 446.491 154.157 446.744 162.451C446.911 167.912 446.812 172.193 446.812 172.193C444.011 176.804 451.337 213.82 451.337 213.82C453.042 220.974 455.119 265.769 455.119 265.769Z" fill="white"/>
<path opacity="0.03" d="M431.364 138.597C431.364 138.597 422.872 154.764 423.858 160.908C424.844 167.053 427.65 174.007 426.297 175.632C425.832 176.247 425.231 176.747 424.541 177.091C423.851 177.436 423.091 177.616 422.32 177.618C420.962 177.709 417.342 180.238 417.342 180.509C417.342 180.781 413.999 180.781 411.008 182.048C408.017 183.315 403.601 184.034 403.601 184.034C403.601 184.034 395.004 183.763 394.203 184.577C393.402 185.391 392.579 190.265 394.293 194.151C396.008 198.038 397.913 200.938 399.352 201.468C400.791 201.997 409.922 198.939 417.329 198.215C424.736 197.491 432.776 191.622 432.776 191.622C432.776 191.622 441.631 188.455 443.183 183.129C444.735 177.804 441.287 148.533 441.287 148.533C441.287 148.533 438.681 134.891 431.364 138.597Z" fill="black"/>
<path opacity="0.03" d="M430.279 137.239C430.279 137.239 421.786 153.411 422.781 159.551C423.777 165.691 426.573 172.65 425.215 174.279C424.752 174.895 424.152 175.395 423.463 175.74C422.773 176.084 422.013 176.264 421.243 176.265C419.885 176.356 416.265 178.885 416.265 179.156C416.265 179.428 412.922 179.428 409.931 180.69C406.94 181.953 402.524 182.677 402.524 182.677C402.524 182.677 393.927 182.405 393.131 183.22C392.334 184.034 391.502 188.912 393.221 192.794C394.94 196.676 396.841 199.581 398.28 200.11C399.719 200.64 408.849 197.581 416.256 196.862C423.663 196.142 431.704 190.265 431.704 190.265C431.704 190.265 440.554 187.097 442.088 181.776C443.622 176.455 440.192 147.176 440.192 147.176C440.192 147.176 437.595 133.538 430.279 137.239Z" fill="black"/>
<path d="M431.098 137.782C431.098 137.782 422.605 153.954 423.6 160.094C424.595 166.234 427.392 173.193 426.039 174.817C425.576 175.435 424.975 175.936 424.285 176.282C423.595 176.627 422.834 176.807 422.062 176.808C420.704 176.899 417.084 179.428 417.084 179.695C417.084 179.962 413.745 179.966 410.75 181.233C407.754 182.5 403.343 183.22 403.343 183.22C403.343 183.22 394.746 182.948 393.945 183.763C393.144 184.577 392.321 189.455 394.036 193.337C395.75 197.219 397.655 200.124 399.094 200.653C400.533 201.183 409.664 198.124 417.071 197.4C424.478 196.676 432.518 190.808 432.518 190.808C432.518 190.808 441.373 187.64 442.925 182.315C444.477 176.989 441.052 147.719 441.052 147.719C441.052 147.719 438.409 134.099 431.098 137.782Z" fill="white"/>
<path opacity="0.1" d="M430.912 181.156C430.912 181.156 424.125 179.799 426.487 182.061C428.849 184.324 428.835 186.305 431.726 186.215C434.618 186.124 430.912 181.156 430.912 181.156Z" fill="black"/>
<path opacity="0.1" d="M442.382 229.833C442.382 229.833 439.314 231.91 445.183 236.697C451.052 241.484 442.382 229.833 442.382 229.833Z" fill="black"/>
<path opacity="0.1" d="M436.527 246.905C436.527 247.177 435.441 256.859 439.504 259.28C443.568 261.701 436.527 246.905 436.527 246.905Z" fill="black"/>
<path d="M372.014 171.016C368.738 171.129 361.661 172.129 365.331 178.975C368.575 185.034 374.027 180.984 377.095 177.912C376.347 175.048 374.528 172.58 372.014 171.016Z" fill="#FFB0B1"/>
<path opacity="0.1" d="M430.012 129.122C426.537 131.498 423.623 133.502 423.053 133.918C421.496 135.072 418.528 141.846 416.614 145.302C415.089 148.085 410.134 148.8 408.266 148.977L408.506 146.909C412.754 145.008 416.008 138.954 416.008 138.954L424.405 124.231L427.297 126.86C427.297 126.86 428.383 127.765 430.012 129.122Z" fill="black"/>
<path d="M430.012 128.851C426.537 131.226 423.623 133.231 423.053 133.651C421.496 134.801 418.528 141.574 416.614 145.031C415.089 147.814 410.134 148.529 408.266 148.705L408.506 146.637C412.754 144.737 416.008 138.683 416.008 138.683L424.405 123.959L427.297 126.579C427.297 126.579 428.383 127.475 430.012 128.851Z" fill="#DCE7FF"/>
<path d="M423.324 117.322C423.326 120.038 422.502 122.69 420.962 124.928C419.143 127.573 416.436 129.479 413.333 130.299C410.229 131.119 406.934 130.8 404.046 129.398C401.157 127.997 398.867 125.607 397.59 122.661C396.314 119.715 396.135 116.41 397.087 113.344C398.039 110.278 400.059 107.655 402.779 105.951C405.5 104.247 408.741 103.574 411.915 104.055C415.089 104.536 417.986 106.139 420.079 108.573C422.172 111.008 423.323 114.111 423.324 117.322Z" fill="#FFB0B1"/>
<path opacity="0.1" d="M446.744 162.456C444.906 161.325 443.41 159.718 442.414 157.804C441.658 156.311 441.156 154.587 439.866 153.528C438.704 152.578 437.152 152.347 435.704 151.922C430.944 150.515 426.953 146.171 426.804 141.212C426.731 138.877 427.46 136.547 427.129 134.235C426.941 132.926 426.421 131.688 425.618 130.638C425.219 130.136 424.782 129.665 424.31 129.231C423.677 128.633 423.012 128.054 422.433 127.421C422.068 127.028 421.749 126.596 421.482 126.131C421.267 125.751 421.093 125.349 420.962 124.932C420.057 122.163 420.881 118.878 419.885 116.077L419.831 115.923C419.455 114.928 418.691 113.932 417.627 113.856C416.564 113.779 415.655 114.661 414.641 115.055C412.519 115.878 410.229 114.475 408.46 113.046C406.691 111.616 404.696 109.982 402.447 110.299C400.958 110.512 399.782 111.525 398.411 112.05C398.101 112.17 397.782 112.262 397.456 112.326C398.616 109.433 400.748 107.034 403.485 105.541C406.222 104.048 409.393 103.556 412.454 104.147C415.515 104.739 418.274 106.378 420.258 108.783C422.241 111.188 423.326 114.209 423.324 117.326C423.326 118.267 423.227 119.206 423.03 120.127C423.053 120.19 423.075 120.249 423.102 120.312C423.627 121.67 424.22 123.063 424.74 124.267L427.297 126.584C427.297 126.584 428.383 127.489 430.012 128.846C433.554 131.832 439.676 137.09 442.835 140.307C445.613 143.149 446.482 154.162 446.744 162.456Z" fill="black"/>
<path d="M398.253 103.784C398.9 102.467 399.221 100.992 399.995 99.743C401.13 97.9331 403.112 96.7748 405.148 96.0734C410.465 94.2409 421.7 91.5804 425.057 96.0734C425.718 96.9784 426.265 97.9829 427.179 98.6073C427.876 99.0824 428.718 99.286 429.482 99.6434C431.622 100.648 432.989 102.838 433.717 105.073C434.446 107.308 434.663 109.706 435.197 112.01C435.88 114.964 437.079 117.765 438.274 120.548C439.681 123.833 441.174 127.24 443.889 129.561C447.595 132.728 448.414 137.212 451.852 140.687C455.925 144.814 455.793 151.623 453.694 157.03C453.418 157.741 453.106 158.483 453.214 159.239C453.323 159.994 453.884 160.682 454.413 161.284L456.64 163.795C451.373 165.066 445.414 162.315 442.961 157.487C442.206 155.994 441.703 154.275 440.409 153.212C439.251 152.261 437.695 152.035 436.251 151.61C431.491 150.198 427.5 145.85 427.351 140.891C427.279 138.561 428.007 136.23 427.677 133.923C427.493 132.605 426.971 131.358 426.161 130.303C424.917 128.679 423.039 127.588 422.025 125.778C420.311 122.751 421.614 118.819 420.378 115.57C419.998 114.575 419.238 113.58 418.175 113.503C417.112 113.426 416.202 114.308 415.184 114.702C413.067 115.525 410.777 114.127 409.008 112.693C407.239 111.258 405.243 109.63 402.99 109.951C401.501 110.159 400.329 111.172 398.958 111.702C397.945 112.091 395.891 112.439 395.004 111.584C393.131 109.86 397.47 105.394 398.253 103.784Z" fill="#591D4B"/>
<path opacity="0.1" d="M444.219 155.994C443.459 154.501 442.961 152.782 441.667 151.723C440.509 150.773 438.952 150.542 437.505 150.117C432.749 148.71 428.758 144.361 428.604 139.402C428.532 137.072 429.26 134.737 428.935 132.43C428.745 131.121 428.223 129.882 427.419 128.832C426.17 127.208 424.292 126.118 423.283 124.308C421.568 121.285 422.872 117.353 421.632 114.1C421.256 113.109 420.492 112.114 419.433 112.032C418.374 111.951 417.455 112.842 416.442 113.236C414.324 114.059 412.03 112.657 410.266 111.227C408.501 109.797 406.497 108.163 404.248 108.48C402.759 108.693 401.583 109.706 400.216 110.231C399.203 110.62 397.144 110.973 396.257 110.118C394.393 108.308 398.732 103.851 399.51 102.25C400.157 100.928 400.479 99.4579 401.257 98.2091C401.298 98.1412 401.343 98.0734 401.388 98.0055C400.806 98.4878 400.304 99.0589 399.9 99.6977C399.126 100.947 398.805 102.413 398.158 103.738C397.375 105.34 393.036 109.81 394.904 111.607C395.809 112.467 397.845 112.114 398.859 111.724C400.216 111.195 401.402 110.182 402.89 109.973C405.153 109.652 407.144 111.286 408.908 112.715C410.673 114.145 412.981 115.548 415.089 114.724C416.103 114.331 416.989 113.444 418.075 113.525C419.161 113.607 419.885 114.598 420.279 115.593C421.514 118.842 420.211 122.774 421.926 125.801C422.939 127.579 424.817 128.692 426.062 130.326C426.871 131.381 427.393 132.628 427.577 133.945C427.908 136.253 427.179 138.583 427.252 140.913C427.401 145.891 431.392 150.221 436.152 151.633C437.586 152.058 439.152 152.284 440.31 153.234C441.608 154.298 442.12 156.017 442.862 157.51C445.314 162.338 451.273 165.089 456.54 163.818L455.49 162.632C450.925 162.7 446.305 160.103 444.219 155.994Z" fill="black"/>
<path opacity="0.1" d="M413.026 135.343C412.433 136.248 410.736 140.882 409.32 144.927C407.994 144.411 406.791 141.122 406.791 141.122L413.858 131.068C414.582 132.063 414.107 133.715 413.026 135.343Z" fill="black"/>
<path d="M413.297 135.072C412.704 135.977 411.008 140.61 409.591 144.655C408.266 144.144 407.062 140.85 407.062 140.85L414.13 130.801C414.854 131.792 414.379 133.448 413.297 135.072Z" fill="#DCE7FF"/>
<path d="M372.204 181.297L368.285 168.94C368.239 168.795 368.222 168.643 368.234 168.491C368.247 168.34 368.289 168.192 368.359 168.057C368.429 167.922 368.525 167.803 368.641 167.705C368.757 167.607 368.892 167.533 369.036 167.487C369.328 167.396 369.644 167.424 369.915 167.565C370.186 167.705 370.391 167.947 370.484 168.238L374.403 180.582L374.014 183.165L372.204 181.297Z" fill="#BE8B87"/>
<path opacity="0.1" d="M368.656 167.854C368.949 167.761 369.265 167.788 369.538 167.929C369.81 168.07 370.015 168.313 370.109 168.605L374.027 180.948L373.733 182.885L374.018 183.183L374.407 180.6L370.466 168.256C370.373 167.966 370.168 167.723 369.897 167.583C369.626 167.442 369.31 167.414 369.018 167.505C368.773 167.585 368.561 167.744 368.416 167.958C368.493 167.916 368.574 167.882 368.656 167.854Z" fill="white"/>
<path d="M372.204 181.297L374.403 180.6L374.081 182.717L374.014 183.183L373.371 182.514L372.204 181.297Z" fill="#EFC8C4"/>
<path d="M373.371 182.514C373.409 182.465 373.457 182.425 373.511 182.396C373.543 182.376 373.58 182.365 373.618 182.365C373.655 182.365 373.692 182.376 373.724 182.396C373.755 182.433 373.781 182.474 373.801 182.518C373.831 182.568 373.872 182.611 373.92 182.643C373.969 182.675 374.024 182.696 374.081 182.704L374.014 183.156L373.371 182.514Z" fill="#727A9C"/>
<path d="M368.263 173.329C368.263 173.329 376.122 173.283 374.271 176.627C372.421 179.971 369.53 180.374 369.53 180.374L368.263 173.329Z" fill="#FFB0B1"/>
<path d="M319.382 23.2661H319.043C305.541 23.2661 293.6 30.4106 286.732 40.9533C279.863 30.4106 267.922 23.2661 254.421 23.2661H254.081C243.949 23.3627 234.263 27.4542 227.13 34.6516C219.997 41.8489 215.993 51.5705 215.988 61.7036C215.988 74.2869 221.499 92.1414 232.245 106.833C252.719 134.828 286.732 159.32 286.732 159.32C286.732 159.32 320.744 134.832 341.214 106.833C351.965 92.1414 357.471 74.2869 357.471 61.7036C357.466 51.5712 353.462 41.8504 346.33 34.6531C339.198 27.4559 329.514 23.3639 319.382 23.2661ZM314.527 108.987C312.989 108.981 311.489 108.51 310.224 107.637C308.959 106.763 307.987 105.527 307.437 104.091H299.365C298.833 104.088 298.316 103.919 297.885 103.607C297.454 103.296 297.132 102.858 296.962 102.354L294.483 94.8834L286.637 122.299C286.484 122.826 286.164 123.29 285.725 123.621C285.286 123.951 284.752 124.13 284.202 124.131H284.044C283.471 124.104 282.924 123.88 282.496 123.498C282.068 123.116 281.784 122.598 281.691 122.032L273.605 73.4L267.696 102.177C267.561 102.724 267.246 103.209 266.802 103.556C266.359 103.903 265.812 104.092 265.248 104.091H253.878C253.537 104.106 253.197 104.051 252.877 103.93C252.558 103.81 252.267 103.626 252.02 103.39C251.774 103.154 251.578 102.871 251.444 102.557C251.31 102.243 251.241 101.905 251.241 101.564C251.241 101.223 251.31 100.885 251.444 100.572C251.578 100.258 251.774 99.9743 252.02 99.7383C252.267 99.5022 252.558 99.3184 252.877 99.1979C253.197 99.0774 253.537 99.0227 253.878 99.0371H263.257L271.628 60.3462C271.766 59.7742 272.097 59.2676 272.567 58.9132C273.037 58.5587 273.615 58.3784 274.202 58.403C274.79 58.4275 275.351 58.6555 275.789 59.0479C276.228 59.4404 276.516 59.9728 276.605 60.5544L284.863 110.163L291.894 85.6349C292.041 85.1183 292.35 84.6629 292.777 84.3367C293.203 84.0105 293.724 83.831 294.261 83.825H294.311C294.842 83.8252 295.361 83.9932 295.791 84.3052C296.222 84.6172 296.543 85.0572 296.709 85.5625L301.193 99.0507H307.337C307.774 97.7234 308.569 96.5427 309.635 95.6387C310.7 94.7348 311.995 94.1429 313.376 93.9282C314.756 93.7136 316.17 93.8846 317.459 94.4224C318.749 94.9602 319.865 95.8439 320.684 96.9759C321.503 98.1079 321.994 99.4443 322.101 100.837C322.209 102.231 321.93 103.626 321.294 104.871C320.659 106.115 319.692 107.16 318.5 107.889C317.308 108.619 315.938 109.005 314.541 109.005L314.527 108.987Z" fill="#AC2727"/>
</g>
<defs>
<linearGradient id="paint0_linear_33_807" x1="161.229" y1="350.607" x2="161.229" y2="72.1829" gradientUnits="userSpaceOnUse">
<stop stop-color="#808080" stop-opacity="0.25"/>
<stop offset="0.54" stop-color="#808080" stop-opacity="0.12"/>
<stop offset="1" stop-color="#808080" stop-opacity="0.1"/>
</linearGradient>
<linearGradient id="paint1_linear_33_807" x1="404.252" y1="347.087" x2="404.252" y2="92.7976" gradientUnits="userSpaceOnUse">
<stop stop-color="#808080" stop-opacity="0.25"/>
<stop offset="0.54" stop-color="#808080" stop-opacity="0.12"/>
<stop offset="1" stop-color="#808080" stop-opacity="0.1"/>
</linearGradient>
<clipPath id="clip0_33_807">
<rect width="500" height="354.168" fill="white"/>
</clipPath>
</defs>
</svg>
