<svg width="693" height="597" viewBox="0 0 693 597" fill="none" xmlns="http://www.w3.org/2000/svg">
<g clip-path="url(#clip0_33_248)">
<path d="M0 590.905C0 591.776 0.69976 592.476 1.57114 592.476H691.109C691.981 592.476 692.68 591.776 692.68 590.905C692.68 590.033 691.981 589.334 691.109 589.334H1.57114C0.69975 589.334 0 590.033 0 590.905Z" fill="#3F3C57"/>
<path d="M224.976 63.4408L232.475 97.658L216.525 145.285L190.829 94.1136L194.394 64.427L224.976 63.4408Z" fill="#FDB4B4"/>
<path d="M233.868 95.8859H189.5V149.494H233.868V95.8859Z" fill="#AC2727"/>
<path d="M215.623 80.6765C232.357 80.6765 245.923 67.1106 245.923 50.3762C245.923 33.6418 232.357 20.0759 215.623 20.0759C198.889 20.0759 185.323 33.6418 185.323 50.3762C185.323 67.1106 198.889 80.6765 215.623 80.6765Z" fill="#FDB4B4"/>
<path d="M189.248 72.9076C189.248 72.9076 166.662 31.1952 187.026 11.1221C207.39 -8.95102 223.737 4.2759 223.737 4.2759L233.072 3.89864C233.072 3.89864 235.018 11.245 238.158 7.2681C241.297 3.29121 246.97 17.7745 246.97 17.7745C257.499 36.7366 220.999 40.9845 220.999 40.9845C220.999 40.9845 223.635 49.3803 220.956 51.1386C218.277 52.8968 211.119 59.5112 211.119 59.5112L204.712 64.3498L200.905 58.5489C200.905 58.5489 196.928 55.4096 194.919 56.7284C192.91 58.0471 195.673 75.398 195.673 75.398L189.248 72.9076Z" fill="#2E2E41"/>
<path d="M152.898 379.779L141.314 552.583L169.793 553.548L207.442 381.227L152.898 379.779Z" fill="#2E2E41"/>
<path d="M221.923 378.814L210.339 551.617L238.817 552.583L276.467 380.262L221.923 378.814Z" fill="#2E2E41"/>
<path d="M145.923 419.26L161.083 231.052L137.834 133.048C135.829 118.48 145.008 104.695 159.175 100.937L181.925 94.9009L191.995 84.8311L214.898 135.409L229.202 84.8696L240.358 92.9829L273.444 107.58L273.429 107.922L268.122 226.31L279.969 417.584L279.444 417.591L145.923 419.26Z" fill="#E8E9EA"/>
<path d="M236.989 550.619L245.235 575.236C245.235 575.236 277.496 579.622 277.998 589.61C278.5 599.597 234.154 593.816 208.186 595.121C182.219 596.426 203.835 568.306 203.835 568.306L206.602 552.146L236.989 550.619Z" fill="#2E2E41"/>
<path d="M169.646 548.847L177.892 573.464C177.892 573.464 210.153 577.85 210.655 587.838C211.157 597.825 166.811 592.044 140.844 593.349C114.877 594.654 136.492 566.533 136.492 566.533L139.26 550.374L169.646 548.847Z" fill="#2E2E41"/>
<path d="M129.415 319.305C129.065 314.451 129.883 309.584 131.8 305.112L125.646 254.626L149.754 252.4L153.401 303.852C155.824 308.07 157.201 312.807 157.418 317.667C158.127 329.824 152.433 340.04 144.699 340.491C136.965 340.943 130.122 331.457 129.415 319.305Z" fill="#FDB4B4"/>
<path d="M282.111 326.715C281.814 321.858 282.685 317.001 284.651 312.549L279.047 261.999L303.178 260.036L306.264 311.525C308.64 315.769 309.966 320.521 310.13 325.383C310.706 337.547 304.901 347.7 297.163 348.067C289.425 348.434 282.685 338.875 282.111 326.715Z" fill="#FDB4B4"/>
<path d="M125.547 299.058L125.465 298.623L112.901 231.208L127.747 121.431C129.072 111.63 137.823 104.57 147.692 105.359C152.846 105.771 157.47 108.216 160.713 112.243C163.957 116.27 165.36 121.309 164.665 126.432L153.491 208.764L160.526 296.825L125.547 299.058Z" fill="#E8E9EA"/>
<path d="M274.665 297.476L249.403 128.855C248.09 123.911 248.859 118.736 251.579 114.339C254.298 109.942 258.585 106.944 263.648 105.897C273.335 103.894 282.9 109.815 285.429 119.376L309.697 295.358L274.665 297.476Z" fill="#E8E9EA"/>
<path d="M215.639 150.823C217.352 150.823 218.74 149.435 218.74 147.722C218.74 146.009 217.352 144.62 215.639 144.62C213.926 144.62 212.538 146.009 212.538 147.722C212.538 149.435 213.926 150.823 215.639 150.823Z" fill="#D6D7D8"/>
<path d="M215.639 174.304C217.352 174.304 218.74 172.916 218.74 171.203C218.74 169.49 217.352 168.102 215.639 168.102C213.926 168.102 212.538 169.49 212.538 171.203C212.538 172.916 213.926 174.304 215.639 174.304Z" fill="#D6D7D8"/>
<path d="M215.639 197.785C217.352 197.785 218.74 196.397 218.74 194.684C218.74 192.971 217.352 191.583 215.639 191.583C213.926 191.583 212.538 192.971 212.538 194.684C212.538 196.397 213.926 197.785 215.639 197.785Z" fill="#D6D7D8"/>
<path d="M215.639 221.267C217.352 221.267 218.74 219.878 218.74 218.165C218.74 216.453 217.352 215.064 215.639 215.064C213.926 215.064 212.538 216.453 212.538 218.165C212.538 219.878 213.926 221.267 215.639 221.267Z" fill="#D6D7D8"/>
<path d="M215.639 244.748C217.352 244.748 218.74 243.359 218.74 241.647C218.74 239.934 217.352 238.545 215.639 238.545C213.926 238.545 212.538 239.934 212.538 241.647C212.538 243.359 213.926 244.748 215.639 244.748Z" fill="#D6D7D8"/>
<path d="M215.639 268.229C217.352 268.229 218.74 266.841 218.74 265.128C218.74 263.415 217.352 262.027 215.639 262.027C213.926 262.027 212.538 263.415 212.538 265.128C212.538 266.841 213.926 268.229 215.639 268.229Z" fill="#D6D7D8"/>
<path d="M215.639 291.71C217.352 291.71 218.74 290.322 218.74 288.609C218.74 286.896 217.352 285.508 215.639 285.508C213.926 285.508 212.538 286.896 212.538 288.609C212.538 290.322 213.926 291.71 215.639 291.71Z" fill="#D6D7D8"/>
<path d="M215.639 315.192C217.352 315.192 218.74 313.803 218.74 312.09C218.74 310.378 217.352 308.989 215.639 308.989C213.926 308.989 212.538 310.378 212.538 312.09C212.538 313.803 213.926 315.192 215.639 315.192Z" fill="#D6D7D8"/>
<path d="M215.643 333.356L156.963 325.536L155.833 325.386L125.843 256.236L107.983 215.066H154.503L215.643 333.356Z" fill="#AC2727"/>
<path d="M450.918 70.9638L488.226 50.5259V108.92H445.079L450.918 70.9638Z" fill="#2E2E41"/>
<path d="M496.224 83.9828L499.667 112.651L474.853 162.066L459.45 116.074L466.692 83.0305L496.224 83.9828Z" fill="#FDB4B4"/>
<path d="M500.951 114.362H458.105V166.131H500.951V114.362Z" fill="#AC2727"/>
<path d="M536.296 388.514L547.483 555.388L519.982 556.32L483.624 389.913L536.296 388.514Z" fill="#2E2E41"/>
<path d="M469.64 387.582L480.827 554.456L453.325 555.388L416.967 388.98L469.64 387.582Z" fill="#2E2E41"/>
<path d="M565.352 423.907L564.697 423.905L389.499 423.333L389.656 422.713L434.699 244.251L423.416 154.188C421.278 137.123 430.414 120.992 446.149 114.05L451.83 111.544L462.622 103.696L476.427 152.479L498.536 103.658L508.275 113.396L530.239 119.223C543.929 122.855 552.798 136.175 550.87 150.206L550.846 150.304L517.304 246.013L565.352 423.907Z" fill="#E8E9EA"/>
<path d="M455.091 553.492L484.435 554.967L487.108 570.572C487.108 570.572 507.982 597.727 482.905 596.467C457.829 595.206 415.005 600.789 415.49 591.145C415.974 581.5 447.128 577.264 447.128 577.264L455.091 553.492Z" fill="#2E2E41"/>
<path d="M520.123 551.781L549.467 553.255L552.139 568.86C552.139 568.86 573.013 596.016 547.937 594.755C522.861 593.495 480.036 599.078 480.521 589.433C481.006 579.789 512.16 575.553 512.16 575.553L520.123 551.781Z" fill="#2E2E41"/>
<path d="M546.995 328.404C546.312 340.139 539.703 349.299 532.235 348.863C524.767 348.427 519.268 338.562 519.953 326.822C520.162 322.129 521.492 317.554 523.832 313.481L527.353 263.794L550.634 265.944L544.691 314.697C546.542 319.017 547.332 323.716 546.995 328.404Z" fill="#FDB4B4"/>
<path d="M427.356 323.941C426.423 335.659 419.621 344.677 412.164 344.082C404.707 343.487 399.419 333.507 400.354 321.785C400.663 317.097 402.09 312.552 404.516 308.529L409.094 258.929L432.324 261.573L425.344 310.189C427.103 314.547 427.793 319.262 427.356 323.941Z" fill="#FDB4B4"/>
<path d="M550.744 308.87L516.932 306.711L516.973 306.205L523.727 221.656L512.938 142.151C512.265 137.199 513.622 132.328 516.756 128.436C519.891 124.543 524.361 122.181 529.343 121.782C538.882 121.03 547.34 127.844 548.622 137.317L562.959 243.33L562.944 243.409L550.744 308.87Z" fill="#E8E9EA"/>
<path d="M432.985 305.631L399.12 303.584L399.194 303.049L422.546 133.679C425.002 124.376 434.252 118.655 443.612 120.59C448.506 121.603 452.649 124.501 455.278 128.751C457.907 133.001 458.65 138.002 457.37 142.834L432.985 305.631Z" fill="#E8E9EA"/>
<path d="M475.708 167.414C477.362 167.414 478.703 166.073 478.703 164.419C478.703 162.765 477.362 161.425 475.708 161.425C474.054 161.425 472.714 162.765 472.714 164.419C472.714 166.073 474.054 167.414 475.708 167.414Z" fill="#D6D7D8"/>
<path d="M475.708 190.09C477.362 190.09 478.703 188.749 478.703 187.095C478.703 185.441 477.362 184.1 475.708 184.1C474.054 184.1 472.714 185.441 472.714 187.095C472.714 188.749 474.054 190.09 475.708 190.09Z" fill="#D6D7D8"/>
<path d="M475.708 212.765C477.362 212.765 478.703 211.424 478.703 209.77C478.703 208.116 477.362 206.776 475.708 206.776C474.054 206.776 472.714 208.116 472.714 209.77C472.714 211.424 474.054 212.765 475.708 212.765Z" fill="#D6D7D8"/>
<path d="M475.708 235.441C477.362 235.441 478.703 234.1 478.703 232.446C478.703 230.792 477.362 229.451 475.708 229.451C474.054 229.451 472.714 230.792 472.714 232.446C472.714 234.1 474.054 235.441 475.708 235.441Z" fill="#D6D7D8"/>
<path d="M475.708 258.116C477.362 258.116 478.703 256.775 478.703 255.121C478.703 253.467 477.362 252.127 475.708 252.127C474.054 252.127 472.714 253.467 472.714 255.121C472.714 256.775 474.054 258.116 475.708 258.116Z" fill="#D6D7D8"/>
<path d="M475.708 280.792C477.362 280.792 478.703 279.451 478.703 277.797C478.703 276.143 477.362 274.802 475.708 274.802C474.054 274.802 472.714 276.143 472.714 277.797C472.714 279.451 474.054 280.792 475.708 280.792Z" fill="#D6D7D8"/>
<path d="M475.708 303.467C477.362 303.467 478.703 302.126 478.703 300.472C478.703 298.818 477.362 297.478 475.708 297.478C474.054 297.478 472.714 298.818 472.714 300.472C472.714 302.126 474.054 303.467 475.708 303.467Z" fill="#D6D7D8"/>
<path d="M475.708 326.143C477.362 326.143 478.703 324.802 478.703 323.148C478.703 321.494 477.362 320.153 475.708 320.153C474.054 320.153 472.714 321.494 472.714 323.148C472.714 324.802 474.054 326.143 475.708 326.143Z" fill="#D6D7D8"/>
<path d="M480.255 98.6138C495.726 98.6138 508.267 86.0722 508.267 70.6012C508.267 55.1303 495.726 42.5886 480.255 42.5886C464.784 42.5886 452.242 55.1303 452.242 70.6012C452.242 86.0722 464.784 98.6138 480.255 98.6138Z" fill="#FDB4B4"/>
<path d="M494.935 37.9C496.277 40.63 494.149 44.0401 491.331 45.1879C488.514 46.3357 485.331 45.8707 482.327 45.3929C479.322 44.9151 476.135 44.4621 473.326 45.6302C469.692 47.1416 467.643 50.9329 465.877 54.4511C462.582 61.0191 459.286 67.587 455.99 74.155C454.38 77.364 452.733 80.7172 452.702 84.3074C452.645 90.8975 457.873 96.164 460.686 102.124C464.11 109.38 463.828 118.273 459.95 125.298C456.072 132.323 448.696 137.3 440.731 138.268C438.635 138.522 436.417 138.495 434.533 137.543C432.649 136.591 431.21 134.511 431.559 132.429C432.242 128.357 438.465 127.405 439.608 123.437C440.204 121.366 439.148 119.154 437.723 117.536C436.299 115.918 434.498 114.656 433.139 112.983C430.006 109.124 429.797 103.167 432.652 99.0983C434.33 96.7072 436.925 94.9307 438.01 92.2183C438.934 89.9064 438.599 87.3077 438.248 84.8426C437.799 81.675 437.349 78.5075 436.899 75.3399C436.374 71.6442 435.857 67.8161 436.895 64.2304C439.271 56.0133 448.55 52.1541 453.991 45.5538C456.519 42.4867 458.22 38.798 460.814 35.7861C465.167 30.7317 472.02 27.9434 478.665 28.523C485.311 29.1027 491.578 33.0353 494.99 38.767" fill="#2E2E41"/>
<path d="M490.513 38.4181C489.144 38.9075 488.636 40.6901 489.03 42.0891C489.424 43.4882 490.456 44.5998 491.4 45.7048C502.079 58.2024 504.561 77.1062 497.47 91.937C495.584 95.8819 493.072 99.5945 492.055 103.847C491.314 106.941 491.354 110.335 489.638 113.014C487.89 115.741 484.427 117.569 484.084 120.79C483.865 122.857 485.124 124.864 486.813 126.076C488.502 127.288 490.565 127.843 492.594 128.295C497.868 129.47 503.26 130.111 508.662 130.206C510.423 130.237 512.24 130.199 513.856 129.497C515.471 128.796 516.85 127.274 516.868 125.512C516.883 124.128 516.085 122.851 515.983 121.471C515.678 117.334 521.244 115.133 522.329 111.129C523.042 108.497 521.637 105.788 520.14 103.508C518.644 101.229 516.936 98.8346 516.973 96.1077C517.008 93.4973 518.646 91.1983 519.283 88.6664C520.164 85.1642 519.082 81.501 518.009 78.0529C517.096 75.1215 516.184 72.19 515.272 69.2586C514.302 66.1423 513.332 63.0261 512.362 59.9098C510.669 54.4695 508.892 48.8715 505.228 44.5081C501.564 40.1447 495.493 37.2848 490.081 39.0663" fill="#2E2E41"/>
<path d="M509.601 146.967L507.681 146.408C511.681 132.692 503.056 107.098 502.969 106.841L504.862 106.195C505.228 107.269 513.777 132.651 509.601 146.967Z" fill="#3F3C57"/>
<path d="M508.641 162.721C513.255 162.721 516.995 158.981 516.995 154.367C516.995 149.753 513.255 146.013 508.641 146.013C504.027 146.013 500.287 149.753 500.287 154.367C500.287 158.981 504.027 162.721 508.641 162.721Z" fill="#3F3C57"/>
<path d="M453.75 183.943H448.683C448.13 183.943 447.683 183.495 447.683 182.943C447.683 182.391 448.13 181.943 448.683 181.943H453.75C455.146 181.943 456.458 181.399 457.444 180.411C458.429 179.423 458.971 178.11 458.968 176.714L458.907 145.508C458.907 138.729 453.393 133.215 446.616 133.215C439.838 133.215 434.324 138.729 434.324 145.506L434.385 174.715C434.391 177.565 436.714 179.901 439.564 179.923L443.042 179.949C443.593 179.954 444.038 180.404 444.034 180.957C444.03 181.506 443.583 181.949 443.034 181.949H443.026L439.548 181.923C435.607 181.893 432.393 178.661 432.385 174.719L432.324 145.508C432.324 137.626 438.735 131.215 446.616 131.215C454.496 131.215 460.907 137.626 460.907 145.506L460.968 176.71C460.972 178.641 460.223 180.457 458.859 181.823C457.496 183.19 455.68 183.943 453.75 183.943Z" fill="#3F3C57"/>
<path d="M443.034 184.494C444.992 184.494 446.578 182.907 446.578 180.949C446.578 178.992 444.992 177.405 443.034 177.405C441.077 177.405 439.49 178.992 439.49 180.949C439.49 182.907 441.077 184.494 443.034 184.494Z" fill="#3F3C57"/>
<path d="M448.683 186.487C450.64 186.487 452.227 184.901 452.227 182.943C452.227 180.986 450.64 179.399 448.683 179.399C446.726 179.399 445.139 180.986 445.139 182.943C445.139 184.901 446.726 186.487 448.683 186.487Z" fill="#3F3C57"/>
<path d="M244.071 131.978L242.151 131.418C246.151 117.703 237.623 91.7117 237.536 91.4548L239.936 93.2639C240.303 94.3377 248.247 117.662 244.071 131.978Z" fill="#3F3C57"/>
<path d="M176.581 134.414L178.501 133.855C174.501 120.14 183.126 94.5448 183.213 94.288L181.159 95.6637C180.793 96.7374 172.406 120.099 176.581 134.414Z" fill="#3F3C57"/>
<path d="M243.111 147.731C247.725 147.731 251.465 143.991 251.465 139.377C251.465 134.763 247.725 131.023 243.111 131.023C238.498 131.023 234.757 134.763 234.757 139.377C234.757 143.991 238.498 147.731 243.111 147.731Z" fill="#3F3C57"/>
<path d="M185.488 185.789H180.421C179.869 185.789 179.421 185.341 179.421 184.789C179.421 184.237 179.869 183.789 180.421 183.789H185.488C186.884 183.789 188.196 183.245 189.182 182.257C190.167 181.269 190.709 179.956 190.706 178.56L190.645 147.354C190.645 140.575 185.131 135.061 178.354 135.061C171.577 135.061 166.062 140.575 166.062 147.352L166.123 176.561C166.129 179.411 168.453 181.747 171.302 181.769L174.78 181.795C175.331 181.8 175.776 182.25 175.772 182.803C175.768 183.352 175.321 183.795 174.772 183.795H174.764L171.286 183.769C167.345 183.739 164.131 180.507 164.123 176.565L164.062 147.354C164.062 139.472 170.473 133.061 178.354 133.061C186.234 133.061 192.645 139.472 192.645 147.352L192.706 178.557C192.71 180.487 191.961 182.303 190.597 183.669C189.234 185.036 187.418 185.789 185.488 185.789Z" fill="#3F3C57"/>
<path d="M174.772 186.34C176.73 186.34 178.317 184.753 178.317 182.795C178.317 180.838 176.73 179.251 174.772 179.251C172.815 179.251 171.228 180.838 171.228 182.795C171.228 184.753 172.815 186.34 174.772 186.34Z" fill="#3F3C57"/>
<path d="M180.421 188.333C182.379 188.333 183.965 186.746 183.965 184.789C183.965 182.831 182.379 181.245 180.421 181.245C178.464 181.245 176.877 182.831 176.877 184.789C176.877 186.746 178.464 188.333 180.421 188.333Z" fill="#3F3C57"/>
</g>
<defs>
<clipPath id="clip0_33_248">
<rect width="692.68" height="596.951" fill="white"/>
</clipPath>
</defs>
</svg>
