<svg width="400" height="266" viewBox="0 0 400 266" fill="none" xmlns="http://www.w3.org/2000/svg">
<g clip-path="url(#clip0_107_7557)">
<path d="M143.48 152.986C157.188 128.872 183.337 110.357 211.017 112.14C190.599 134.344 178.693 163.054 177.405 193.19C176.951 204.815 177.656 217.791 169.937 226.495C165.135 231.911 157.795 234.534 150.577 235.084C143.36 235.634 136.144 234.33 129.023 233.032L127.295 233.562C126.638 205.832 129.772 177.1 143.48 152.986Z" fill="#F0F0F0"/>
<path d="M211.058 112.721C190.589 122.575 173.135 139.032 162.421 159.103C160.104 163.442 158.132 168.045 157.272 172.913C156.411 177.782 157.012 182.417 158.676 187.042C160.196 191.271 162.241 195.419 162.707 199.943C163.199 204.712 161.444 209.171 158.286 212.71C154.421 217.039 149.232 219.722 144.066 222.17C138.33 224.887 132.329 227.619 128.266 232.69C127.774 233.305 126.849 232.505 127.34 231.891C134.409 223.068 146.508 221.409 154.899 214.301C158.814 210.985 161.753 206.468 161.568 201.176C161.405 196.548 159.3 192.268 157.724 188C156.068 183.519 155.243 179.013 155.837 174.235C156.444 169.348 158.24 164.658 160.435 160.278C165.386 150.402 172.162 141.334 179.924 133.496C188.844 124.486 199.24 117.069 210.662 111.564C211.369 111.224 211.761 112.383 211.058 112.721Z" fill="white"/>
<path d="M165.559 152.395C162.421 150.101 160.201 146.766 159.295 142.985C158.389 139.205 158.857 135.226 160.614 131.758C160.972 131.058 162.077 131.581 161.719 132.282C160.076 135.508 159.641 139.215 160.492 142.734C161.343 146.252 163.423 149.351 166.358 151.47C166.995 151.931 166.193 152.854 165.559 152.395Z" fill="white"/>
<path d="M157.622 185C165.485 183.851 172.626 179.78 177.622 173.6C178.116 172.987 179.041 173.787 178.547 174.399C173.337 180.821 165.897 185.041 157.712 186.219C156.932 186.331 156.846 185.111 157.622 185Z" fill="white"/>
<path d="M189.448 125.99C190.477 127.131 191.774 127.998 193.221 128.514C194.668 129.03 196.221 129.178 197.74 128.946C198.518 128.825 198.603 130.045 197.829 130.165C196.15 130.414 194.435 130.248 192.835 129.682C191.235 129.115 189.798 128.166 188.649 126.915C188.531 126.807 188.459 126.657 188.447 126.497C188.435 126.337 188.485 126.178 188.586 126.053C188.692 125.931 188.843 125.856 189.004 125.844C189.166 125.833 189.325 125.885 189.448 125.99Z" fill="white"/>
<path d="M266.092 188.211C265.608 188.301 265.124 188.391 264.636 188.49C258.137 189.73 251.748 191.495 245.535 193.77C245.052 193.938 244.564 194.116 244.087 194.298C229.175 199.937 215.44 208.295 203.58 218.948C198.864 223.192 194.479 227.788 190.46 232.697C184.911 239.476 179.434 247.269 172.183 251.689C171.432 252.159 170.652 252.582 169.848 252.955L128.076 235.629C128.001 235.541 127.921 235.464 127.846 235.377L126.146 234.761C126.336 234.493 126.538 234.22 126.728 233.952C126.837 233.796 126.956 233.645 127.065 233.489C127.141 233.386 127.217 233.284 127.28 233.187C127.305 233.153 127.33 233.119 127.352 233.094C127.414 232.997 127.482 232.914 127.541 232.826C128.668 231.294 129.808 229.768 130.96 228.246C130.964 228.236 130.964 228.236 130.977 228.231C139.787 216.66 149.64 205.723 160.84 196.629C161.177 196.356 161.518 196.073 161.874 195.807C166.945 191.736 172.341 188.086 178.006 184.894C181.114 183.157 184.308 181.577 187.576 180.162C196.026 176.523 204.997 174.235 214.158 173.383C232.421 171.687 251.023 175.851 265.031 187.324C265.389 187.618 265.738 187.908 266.092 188.211Z" fill="#F0F0F0"/>
<path d="M265.778 188.702C243.502 184.246 219.658 186.878 199.019 196.453C194.557 198.523 190.211 201.011 186.594 204.379C182.975 207.749 180.664 211.812 179.207 216.506C177.876 220.797 177.011 225.341 174.659 229.234C172.18 233.337 168.095 235.841 163.443 236.765C157.751 237.895 151.992 236.913 146.393 235.757C140.177 234.473 133.741 233.041 127.444 234.644C126.681 234.838 126.424 233.643 127.186 233.449C138.142 230.66 148.801 236.62 159.78 235.997C164.903 235.706 169.969 233.869 173.007 229.532C175.664 225.739 176.56 221.054 177.871 216.697C179.247 212.123 181.301 208.028 184.651 204.571C188.079 201.034 192.337 198.371 196.726 196.196C206.626 191.291 217.495 188.13 228.412 186.545C240.959 184.722 253.725 185.058 266.159 187.54C266.928 187.694 266.543 188.855 265.778 188.702Z" fill="white"/>
<path d="M205.564 192.987C204.44 189.265 204.675 185.266 206.228 181.702C207.78 178.138 210.549 175.242 214.04 173.531C214.748 173.188 215.315 174.271 214.607 174.615C211.353 176.202 208.774 178.9 207.335 182.221C205.896 185.543 205.691 189.27 206.759 192.729C206.99 193.481 205.793 193.734 205.564 192.987Z" fill="white"/>
<path d="M179.596 214.241C186.566 218.058 194.719 219.107 202.428 217.18C203.192 216.989 203.449 218.184 202.686 218.375C194.66 220.366 186.178 219.256 178.933 215.269C178.243 214.888 178.91 213.863 179.596 214.241Z" fill="white"/>
<path d="M240.535 186.286C240.67 187.817 241.183 189.29 242.028 190.573C242.873 191.856 244.023 192.91 245.376 193.639C246.07 194.01 245.403 195.035 244.713 194.666C243.222 193.854 241.953 192.689 241.017 191.273C240.08 189.857 239.505 188.234 239.34 186.544C239.311 186.386 239.344 186.223 239.431 186.088C239.518 185.954 239.653 185.857 239.809 185.818C239.967 185.785 240.132 185.815 240.268 185.903C240.404 185.99 240.5 186.128 240.535 186.286Z" fill="white"/>
<path d="M186.519 216.797C180.669 188.511 173.356 179.08 173.356 179.08L170.563 176.914L167.203 174.304L167.22 173.968L166.423 173.698L166.236 173.552L165.929 173.317L165.88 173.37L165.775 173.478L150.573 168.31L131.286 161.759L122.355 150.15C120.901 148.26 119.028 146.732 116.884 145.686C114.741 144.64 112.384 144.105 109.998 144.123L81.4757 144.334C77.6191 144.363 73.9127 145.833 71.0851 148.456L52.3376 165.845L23.1255 179.797L23.0762 179.747L22.7695 179.966L18.2559 182.125L18.4422 183.094L15.6486 185.11C15.6486 185.11 8.336 193.885 2.4859 220.205C0.997699 226.902 0.265153 241.268 0.000743047 258.971C-0.0125382 259.866 0.152343 260.755 0.485795 261.587C0.819247 262.418 1.31462 263.174 1.94311 263.813C2.5716 264.451 3.32066 264.957 4.14675 265.303C4.97284 265.649 5.85947 265.828 6.75509 265.828H162.783L182.257 265.828C183.152 265.828 184.038 265.649 184.864 265.304C185.689 264.958 186.438 264.452 187.066 263.815C187.695 263.177 188.19 262.422 188.524 261.591C188.858 260.761 189.024 259.873 189.011 258.978C188.753 239.714 188.021 224.059 186.519 216.797Z" fill="#3F3D56"/>
<path d="M206.538 24.668C200.468 24.668 194.646 27.0794 190.354 31.3718C186.061 35.6642 183.65 41.486 183.65 47.5564C183.65 53.6268 186.061 59.4486 190.354 63.741C194.646 68.0334 200.468 70.4448 206.538 70.4448H377.112C383.182 70.4448 389.004 68.0334 393.296 63.741C397.589 59.4486 400 53.6268 400 47.5564C400 41.486 397.589 35.6642 393.296 31.3718C389.004 27.0794 383.182 24.668 377.112 24.668H206.538Z" fill="#E5E5E5"/>
<path d="M206.538 29.2998C201.696 29.2998 197.053 31.2232 193.629 34.6469C190.205 38.0707 188.282 42.7142 188.282 47.5561C188.282 52.3979 190.205 57.0415 193.629 60.4652C197.053 63.8889 201.696 65.8123 206.538 65.8123H377.112C381.953 65.8123 386.597 63.8889 390.021 60.4652C393.444 57.0415 395.368 52.3979 395.368 47.5561C395.368 42.7142 393.444 38.0707 390.021 34.6469C386.597 31.2232 381.953 29.2998 377.112 29.2998H206.538Z" fill="white"/>
<path d="M100.216 133.408C120.854 133.408 137.584 116.678 137.584 96.0402C137.584 75.4028 120.854 58.6729 100.216 58.6729C79.5788 58.6729 62.8489 75.4028 62.8489 96.0402C62.8489 116.678 79.5788 133.408 100.216 133.408Z" fill="#9E616A"/>
<path d="M90.6568 131.578C90.4971 131.226 90.338 130.873 90.1792 130.52C90.2404 130.521 90.301 130.53 90.3621 130.532L90.6568 131.578Z" fill="#2F2E41"/>
<path d="M61.8096 60.3723C63.6995 58.8646 65.9084 57.4774 68.3248 57.5554C70.7411 57.6333 73.1914 59.8156 72.6908 62.1808C77.1291 54.3224 84.1936 48.2784 92.6441 45.1097C101.095 41.9409 110.391 41.85 118.902 44.8527C124.908 46.9716 130.797 51.2104 132.177 57.4276C132.531 59.0236 132.607 60.7735 133.604 62.0695C134.86 63.7035 137.264 64.0731 139.243 63.4983C139.263 63.4925 139.283 63.4867 139.303 63.4808C139.637 63.3666 139.998 63.3554 140.339 63.4486C140.68 63.5418 140.985 63.7351 141.214 64.0035C141.444 64.272 141.588 64.6032 141.628 64.9543C141.667 65.3055 141.6 65.6604 141.436 65.9731L139.737 69.1423C141.879 69.6198 144.104 69.5724 146.224 69.0043C146.576 68.912 146.948 68.9308 147.289 69.0583C147.63 69.1858 147.924 69.4156 148.129 69.7163C148.334 70.017 148.441 70.3739 148.436 70.7379C148.43 71.1019 148.312 71.4552 148.097 71.7495C142.494 79.4422 133.133 84.4099 123.581 84.3515C116.791 84.3101 109.932 81.9701 103.324 83.5314C100.768 84.1355 98.3793 85.3041 96.3336 86.9516C94.2879 88.5992 92.637 90.6838 91.5021 93.0526C90.3671 95.4214 89.7769 98.0143 89.7747 100.641C89.7725 103.268 90.3585 105.861 91.4895 108.232C89.4596 106.012 85.5355 106.537 83.4591 108.714C81.3827 110.891 80.8452 114.14 81.0544 117.142C81.3743 121.732 83.1727 126.057 85.0687 130.267C69.173 129.766 54.1384 118.616 49.0777 103.534C43.9958 88.3896 49.3218 70.3342 61.8096 60.3723Z" fill="#2F2E41"/>
<path opacity="0.2" d="M36.7791 208.257L47.2597 265.28L53.5484 265.828L36.7791 208.257Z" fill="black"/>
<path opacity="0.2" d="M152.226 203.956L141.745 265.239L135.457 265.828L152.226 203.956Z" fill="black"/>
<path d="M70.7489 41.181C68.7394 42.0201 66.6426 41.1005 65.7632 38.9945C64.8704 36.8564 65.7042 34.6858 67.746 33.8333C69.7879 32.9807 71.8474 33.9025 72.7546 36.0752C73.6483 38.2152 72.8234 40.3148 70.7489 41.181ZM66.8995 29.6247L65.3017 30.2919C64.9026 30.4566 64.4561 30.4654 64.0508 30.3167C63.6454 30.1681 63.3105 29.8726 63.1125 29.4889L63.0335 29.3343C61.3143 26.2338 61.1174 22.4655 62.4515 18.1401C63.6874 14.2599 64.2007 11.5311 63.1684 9.05884C61.9749 6.20049 59.4262 5.3051 56.1761 6.60217C54.9155 7.12853 54.5144 7.12014 53.5224 8.10421C53.3066 8.32087 53.0494 8.49186 52.7661 8.60698C52.4828 8.7221 52.1793 8.77899 51.8735 8.77426C51.5779 8.77078 51.2861 8.70782 51.0154 8.58912C50.7447 8.47042 50.5006 8.29841 50.2978 8.08337C49.9071 7.66895 49.6882 7.1217 49.6853 6.55214C49.6825 5.98258 49.8958 5.43314 50.2823 5.0148C51.9497 3.26938 53.9608 1.88853 56.1887 0.959392C63.1718 -1.95652 66.6871 2.3484 68.2958 6.2009C69.8692 9.96909 68.9841 13.4653 67.562 17.9933C66.3702 21.7558 66.4396 24.5438 67.7934 27.3158C67.8912 27.5254 67.9455 27.7526 67.9533 27.9837C67.961 28.2148 67.922 28.4451 67.8385 28.6607C67.755 28.8764 67.6288 29.0729 67.4675 29.2386C67.3061 29.4042 67.1129 29.5356 66.8995 29.6247Z" fill="#AC2727"/>
<path d="M244.216 58.4723H210.278C210.17 58.473 210.063 58.4524 209.963 58.4117C209.864 58.3709 209.773 58.3108 209.696 58.2349C209.62 58.1589 209.559 58.0685 209.518 57.969C209.476 57.8694 209.455 57.7627 209.455 57.6549C209.455 57.547 209.476 57.4403 209.518 57.3407C209.559 57.2412 209.62 57.1508 209.696 57.0749C209.773 56.9989 209.864 56.9388 209.963 56.898C210.063 56.8573 210.17 56.8367 210.278 56.8374H244.216C244.432 56.8389 244.638 56.9257 244.79 57.0788C244.942 57.2319 245.028 57.439 245.028 57.6549C245.028 57.8707 244.942 58.0778 244.79 58.2309C244.638 58.3841 244.432 58.4708 244.216 58.4723Z" fill="#AC2727"/>
<path d="M287.268 58.7448H253.33C253.222 58.7455 253.115 58.7249 253.015 58.6842C252.916 58.6434 252.825 58.5833 252.748 58.5073C252.672 58.4313 252.611 58.341 252.57 58.2414C252.528 58.1419 252.507 58.0352 252.507 57.9273C252.507 57.8195 252.528 57.7128 252.57 57.6132C252.611 57.5137 252.672 57.4233 252.748 57.3473C252.825 57.2713 252.916 57.2113 253.015 57.1705C253.115 57.1298 253.222 57.1091 253.33 57.1099H287.268C287.376 57.1091 287.482 57.1298 287.582 57.1705C287.682 57.2113 287.773 57.2713 287.849 57.3473C287.926 57.4233 287.987 57.5137 288.028 57.6132C288.069 57.7128 288.091 57.8195 288.091 57.9273C288.091 58.0352 288.069 58.1419 288.028 58.2414C287.987 58.341 287.926 58.4313 287.849 58.5073C287.773 58.5833 287.682 58.6434 287.582 58.6842C287.482 58.7249 287.376 58.7455 287.268 58.7448Z" fill="#AC2727"/>
<path d="M330.32 59.0172H296.382C296.166 59.0158 295.96 58.929 295.808 58.7758C295.655 58.6227 295.57 58.4156 295.57 58.1998C295.57 57.9839 295.655 57.7769 295.808 57.6237C295.96 57.4706 296.166 57.3838 296.382 57.3823H330.32C330.428 57.3816 330.534 57.4022 330.634 57.443C330.734 57.4837 330.825 57.5438 330.901 57.6198C330.978 57.6958 331.039 57.7861 331.08 57.8857C331.121 57.9852 331.143 58.092 331.143 58.1998C331.143 58.3076 331.121 58.4144 331.08 58.5139C331.039 58.6134 330.978 58.7038 330.901 58.7798C330.825 58.8558 330.734 58.9159 330.634 58.9566C330.534 58.9974 330.428 59.018 330.32 59.0172Z" fill="#AC2727"/>
<path d="M373.372 59.2897H339.434C339.218 59.2882 339.012 59.2014 338.86 59.0483C338.708 58.8951 338.622 58.6881 338.622 58.4722C338.622 58.2564 338.708 58.0493 338.86 57.8962C339.012 57.743 339.218 57.6563 339.434 57.6548H373.372C373.588 57.6563 373.794 57.743 373.946 57.8962C374.098 58.0493 374.184 58.2564 374.184 58.4722C374.184 58.6881 374.098 58.8951 373.946 59.0483C373.794 59.2014 373.588 59.2882 373.372 59.2897Z" fill="#AC2727"/>
<path d="M227.172 50.9496C230.656 50.9496 233.48 48.1256 233.48 44.6421C233.48 41.1585 230.656 38.3345 227.172 38.3345C223.689 38.3345 220.865 41.1585 220.865 44.6421C220.865 48.1256 223.689 50.9496 227.172 50.9496Z" fill="#AC2727"/>
<path d="M270.484 50.9496C273.968 50.9496 276.792 48.1256 276.792 44.6421C276.792 41.1585 273.968 38.3345 270.484 38.3345C267.001 38.3345 264.177 41.1585 264.177 44.6421C264.177 48.1256 267.001 50.9496 270.484 50.9496Z" fill="#AC2727"/>
<path d="M313.796 50.9496C317.28 50.9496 320.104 48.1256 320.104 44.6421C320.104 41.1585 317.28 38.3345 313.796 38.3345C310.313 38.3345 307.489 41.1585 307.489 44.6421C307.489 48.1256 310.313 50.9496 313.796 50.9496Z" fill="#AC2727"/>
<path d="M357.108 50.9496C360.592 50.9496 363.416 48.1256 363.416 44.6421C363.416 41.1585 360.592 38.3345 357.108 38.3345C353.625 38.3345 350.801 41.1585 350.801 44.6421C350.801 48.1256 353.625 50.9496 357.108 50.9496Z" fill="#AC2727"/>
</g>
<defs>
<clipPath id="clip0_107_7557">
<rect width="400" height="265.828" fill="white"/>
</clipPath>
</defs>
</svg>
