<svg width="853" height="822" viewBox="0 0 853 822" fill="none" xmlns="http://www.w3.org/2000/svg">
<path d="M452 182C482 207.5 507 235.5 558 281.5C609 327.5 686 391.5 671.5 422C657 452.5 550.5 450 482 461.5C413.5 473.5 383.5 499.5 333 526.5C283 554 213.5 582 143.5 571C73.5 559.5 3.99998 509 -31.5 438C-67 367 -68.5 276 -12.5 234C43.5 192.5 157 200.5 227.5 188.5C298 176.5 325.5 144 356.5 139C387.5 134.5 422 157 452 182Z" fill="#AC2727"/>
<path d="M121.078 307.094C121.078 306.656 121.01 306.266 120.875 305.922C120.75 305.568 120.516 305.25 120.172 304.969C119.839 304.677 119.365 304.396 118.75 304.125C118.146 303.844 117.365 303.552 116.406 303.25C115.344 302.917 114.354 302.542 113.438 302.125C112.521 301.708 111.714 301.224 111.016 300.672C110.328 300.12 109.792 299.484 109.406 298.766C109.021 298.036 108.828 297.193 108.828 296.234C108.828 295.297 109.026 294.443 109.422 293.672C109.828 292.901 110.401 292.24 111.141 291.688C111.88 291.125 112.75 290.693 113.75 290.391C114.76 290.089 115.875 289.938 117.094 289.938C118.781 289.938 120.24 290.245 121.469 290.859C122.708 291.474 123.667 292.307 124.344 293.359C125.021 294.411 125.359 295.594 125.359 296.906H121.078C121.078 296.198 120.927 295.573 120.625 295.031C120.333 294.49 119.885 294.062 119.281 293.75C118.688 293.438 117.938 293.281 117.031 293.281C116.156 293.281 115.427 293.411 114.844 293.672C114.271 293.932 113.839 294.286 113.547 294.734C113.266 295.182 113.125 295.682 113.125 296.234C113.125 296.651 113.224 297.026 113.422 297.359C113.62 297.682 113.917 297.99 114.312 298.281C114.708 298.562 115.198 298.828 115.781 299.078C116.375 299.318 117.062 299.557 117.844 299.797C119.094 300.172 120.188 300.589 121.125 301.047C122.073 301.505 122.859 302.026 123.484 302.609C124.12 303.193 124.594 303.849 124.906 304.578C125.229 305.307 125.391 306.135 125.391 307.062C125.391 308.042 125.198 308.917 124.812 309.688C124.427 310.458 123.875 311.115 123.156 311.656C122.438 312.198 121.573 312.609 120.562 312.891C119.562 313.172 118.443 313.312 117.203 313.312C116.099 313.312 115.005 313.167 113.922 312.875C112.849 312.573 111.875 312.125 111 311.531C110.125 310.927 109.427 310.167 108.906 309.25C108.385 308.323 108.125 307.24 108.125 306H112.438C112.438 306.719 112.552 307.333 112.781 307.844C113.021 308.344 113.354 308.755 113.781 309.078C114.219 309.391 114.729 309.62 115.312 309.766C115.896 309.911 116.526 309.984 117.203 309.984C118.078 309.984 118.797 309.865 119.359 309.625C119.932 309.375 120.359 309.031 120.641 308.594C120.932 308.156 121.078 307.656 121.078 307.094ZM135.984 313.312C134.703 313.312 133.552 313.104 132.531 312.688C131.51 312.271 130.641 311.693 129.922 310.953C129.214 310.203 128.667 309.333 128.281 308.344C127.906 307.344 127.719 306.271 127.719 305.125V304.5C127.719 303.198 127.906 302.016 128.281 300.953C128.656 299.88 129.188 298.958 129.875 298.188C130.562 297.417 131.385 296.823 132.344 296.406C133.302 295.99 134.359 295.781 135.516 295.781C136.714 295.781 137.771 295.984 138.688 296.391C139.604 296.786 140.37 297.349 140.984 298.078C141.599 298.807 142.062 299.682 142.375 300.703C142.688 301.714 142.844 302.833 142.844 304.062V305.797H129.594V302.953H138.781V302.641C138.76 301.984 138.635 301.385 138.406 300.844C138.177 300.292 137.823 299.854 137.344 299.531C136.865 299.198 136.245 299.031 135.484 299.031C134.87 299.031 134.333 299.167 133.875 299.438C133.427 299.698 133.052 300.073 132.75 300.562C132.458 301.042 132.24 301.615 132.094 302.281C131.948 302.948 131.875 303.688 131.875 304.5V305.125C131.875 305.833 131.969 306.49 132.156 307.094C132.354 307.698 132.641 308.224 133.016 308.672C133.401 309.109 133.859 309.453 134.391 309.703C134.932 309.943 135.547 310.062 136.234 310.062C137.099 310.062 137.88 309.896 138.578 309.562C139.286 309.219 139.901 308.714 140.422 308.047L142.5 310.203C142.146 310.724 141.667 311.224 141.062 311.703C140.469 312.182 139.75 312.573 138.906 312.875C138.062 313.167 137.089 313.312 135.984 313.312ZM145.812 296.094H149.969V314.25C149.969 315.448 149.75 316.464 149.312 317.297C148.885 318.13 148.266 318.76 147.453 319.188C146.641 319.615 145.646 319.828 144.469 319.828C144.104 319.828 143.74 319.807 143.375 319.766C143.01 319.724 142.651 319.656 142.297 319.562L142.312 316.375C142.542 316.417 142.776 316.448 143.016 316.469C143.255 316.5 143.495 316.516 143.734 316.516C144.182 316.516 144.557 316.438 144.859 316.281C145.172 316.125 145.406 315.88 145.562 315.547C145.729 315.214 145.812 314.781 145.812 314.25V296.094ZM145.469 291.672C145.469 291.057 145.677 290.547 146.094 290.141C146.521 289.734 147.094 289.531 147.812 289.531C148.531 289.531 149.099 289.734 149.516 290.141C149.943 290.547 150.156 291.057 150.156 291.672C150.156 292.276 149.943 292.781 149.516 293.188C149.099 293.594 148.531 293.797 147.812 293.797C147.094 293.797 146.521 293.594 146.094 293.188C145.677 292.781 145.469 292.276 145.469 291.672ZM163.109 309.406V301.609C163.109 301.036 163.01 300.542 162.812 300.125C162.615 299.708 162.312 299.385 161.906 299.156C161.5 298.927 160.984 298.812 160.359 298.812C159.807 298.812 159.323 298.906 158.906 299.094C158.5 299.281 158.188 299.547 157.969 299.891C157.75 300.224 157.641 300.609 157.641 301.047H153.5C153.5 300.349 153.667 299.688 154 299.062C154.333 298.427 154.807 297.865 155.422 297.375C156.047 296.875 156.792 296.484 157.656 296.203C158.531 295.922 159.51 295.781 160.594 295.781C161.875 295.781 163.016 296 164.016 296.438C165.026 296.865 165.818 297.51 166.391 298.375C166.974 299.24 167.266 300.328 167.266 301.641V309.016C167.266 309.859 167.318 310.583 167.422 311.188C167.536 311.781 167.703 312.297 167.922 312.734V313H163.719C163.521 312.573 163.37 312.031 163.266 311.375C163.161 310.708 163.109 310.052 163.109 309.406ZM163.688 302.703L163.719 305.156H161.109C160.464 305.156 159.896 305.224 159.406 305.359C158.917 305.484 158.516 305.672 158.203 305.922C157.891 306.161 157.656 306.453 157.5 306.797C157.344 307.13 157.266 307.51 157.266 307.938C157.266 308.354 157.359 308.729 157.547 309.062C157.745 309.396 158.026 309.661 158.391 309.859C158.766 310.047 159.203 310.141 159.703 310.141C160.432 310.141 161.068 309.995 161.609 309.703C162.151 309.401 162.573 309.036 162.875 308.609C163.177 308.182 163.339 307.776 163.359 307.391L164.547 309.172C164.401 309.599 164.182 310.052 163.891 310.531C163.599 311.01 163.224 311.458 162.766 311.875C162.307 312.292 161.755 312.635 161.109 312.906C160.464 313.177 159.714 313.312 158.859 313.312C157.766 313.312 156.786 313.094 155.922 312.656C155.057 312.219 154.375 311.62 153.875 310.859C153.375 310.099 153.125 309.234 153.125 308.266C153.125 307.37 153.292 306.578 153.625 305.891C153.958 305.203 154.453 304.625 155.109 304.156C155.766 303.677 156.578 303.318 157.547 303.078C158.526 302.828 159.646 302.703 160.906 302.703H163.688ZM178.938 289H183.078V309.266L182.672 313H178.938V289ZM193.953 304.375V304.703C193.953 305.964 193.812 307.12 193.531 308.172C193.26 309.224 192.849 310.135 192.297 310.906C191.745 311.667 191.057 312.26 190.234 312.688C189.422 313.104 188.469 313.312 187.375 313.312C186.333 313.312 185.427 313.109 184.656 312.703C183.896 312.297 183.255 311.724 182.734 310.984C182.214 310.234 181.797 309.354 181.484 308.344C181.172 307.323 180.938 306.208 180.781 305V304.109C180.938 302.891 181.172 301.776 181.484 300.766C181.797 299.755 182.214 298.875 182.734 298.125C183.255 297.375 183.896 296.797 184.656 296.391C185.417 295.984 186.312 295.781 187.344 295.781C188.448 295.781 189.411 295.995 190.234 296.422C191.068 296.839 191.755 297.432 192.297 298.203C192.849 298.964 193.26 299.87 193.531 300.922C193.812 301.964 193.953 303.115 193.953 304.375ZM189.812 304.703V304.375C189.812 303.656 189.755 302.979 189.641 302.344C189.526 301.698 189.339 301.13 189.078 300.641C188.818 300.151 188.464 299.766 188.016 299.484C187.568 299.203 187.005 299.062 186.328 299.062C185.682 299.062 185.13 299.172 184.672 299.391C184.224 299.609 183.849 299.911 183.547 300.297C183.255 300.682 183.026 301.135 182.859 301.656C182.703 302.177 182.599 302.74 182.547 303.344V305.781C182.62 306.583 182.792 307.307 183.062 307.953C183.333 308.589 183.734 309.094 184.266 309.469C184.807 309.844 185.505 310.031 186.359 310.031C187.026 310.031 187.583 309.901 188.031 309.641C188.479 309.37 188.833 308.995 189.094 308.516C189.354 308.026 189.536 307.458 189.641 306.812C189.755 306.167 189.812 305.464 189.812 304.703ZM204.547 313.312C203.266 313.312 202.115 313.104 201.094 312.688C200.073 312.271 199.203 311.693 198.484 310.953C197.776 310.203 197.229 309.333 196.844 308.344C196.469 307.344 196.281 306.271 196.281 305.125V304.5C196.281 303.198 196.469 302.016 196.844 300.953C197.219 299.88 197.75 298.958 198.438 298.188C199.125 297.417 199.948 296.823 200.906 296.406C201.865 295.99 202.922 295.781 204.078 295.781C205.276 295.781 206.333 295.984 207.25 296.391C208.167 296.786 208.932 297.349 209.547 298.078C210.161 298.807 210.625 299.682 210.938 300.703C211.25 301.714 211.406 302.833 211.406 304.062V305.797H198.156V302.953H207.344V302.641C207.323 301.984 207.198 301.385 206.969 300.844C206.74 300.292 206.385 299.854 205.906 299.531C205.427 299.198 204.807 299.031 204.047 299.031C203.432 299.031 202.896 299.167 202.438 299.438C201.99 299.698 201.615 300.073 201.312 300.562C201.021 301.042 200.802 301.615 200.656 302.281C200.51 302.948 200.438 303.688 200.438 304.5V305.125C200.438 305.833 200.531 306.49 200.719 307.094C200.917 307.698 201.203 308.224 201.578 308.672C201.964 309.109 202.422 309.453 202.953 309.703C203.495 309.943 204.109 310.062 204.797 310.062C205.661 310.062 206.443 309.896 207.141 309.562C207.849 309.219 208.464 308.714 208.984 308.047L211.062 310.203C210.708 310.724 210.229 311.224 209.625 311.703C209.031 312.182 208.312 312.573 207.469 312.875C206.625 313.167 205.651 313.312 204.547 313.312ZM218.281 299.562V313H214.156V296.094H218.047L218.281 299.562ZM217.672 303.938H216.406C216.406 302.76 216.547 301.677 216.828 300.688C217.12 299.698 217.547 298.839 218.109 298.109C218.672 297.37 219.365 296.797 220.188 296.391C221.021 295.984 221.984 295.781 223.078 295.781C223.839 295.781 224.536 295.896 225.172 296.125C225.807 296.344 226.354 296.693 226.812 297.172C227.281 297.641 227.641 298.255 227.891 299.016C228.141 299.766 228.266 300.667 228.266 301.719V313H224.141V302.141C224.141 301.349 224.026 300.729 223.797 300.281C223.578 299.833 223.26 299.521 222.844 299.344C222.427 299.156 221.927 299.062 221.344 299.062C220.698 299.062 220.141 299.193 219.672 299.453C219.214 299.703 218.833 300.052 218.531 300.5C218.24 300.948 218.021 301.464 217.875 302.047C217.74 302.63 217.672 303.26 217.672 303.938ZM227.953 303.172L226.25 303.484C226.26 302.422 226.406 301.427 226.688 300.5C226.969 299.562 227.38 298.745 227.922 298.047C228.474 297.339 229.156 296.786 229.969 296.391C230.792 295.984 231.74 295.781 232.812 295.781C233.646 295.781 234.396 295.901 235.062 296.141C235.74 296.37 236.318 296.74 236.797 297.25C237.276 297.75 237.641 298.401 237.891 299.203C238.151 300.005 238.281 300.984 238.281 302.141V313H234.125V302.125C234.125 301.302 234.01 300.672 233.781 300.234C233.562 299.797 233.245 299.495 232.828 299.328C232.411 299.151 231.922 299.062 231.359 299.062C230.786 299.062 230.286 299.172 229.859 299.391C229.443 299.599 229.089 299.891 228.797 300.266C228.516 300.641 228.302 301.078 228.156 301.578C228.021 302.068 227.953 302.599 227.953 303.172ZM255.562 309.875L259.5 296.094H263.812L258.016 313H255.391L255.562 309.875ZM252.688 296.094L256.672 309.906L256.812 313H254.172L248.359 296.094H252.688ZM270.359 296.094V313H266.219V296.094H270.359ZM265.938 291.672C265.938 291.057 266.146 290.547 266.562 290.141C266.99 289.734 267.562 289.531 268.281 289.531C269 289.531 269.568 289.734 269.984 290.141C270.411 290.547 270.625 291.057 270.625 291.672C270.625 292.276 270.411 292.781 269.984 293.188C269.568 293.594 269 293.797 268.281 293.797C267.562 293.797 266.99 293.594 266.562 293.188C266.146 292.781 265.938 292.276 265.938 291.672ZM278.344 299.703V313H274.219V296.094H278.094L278.344 299.703ZM277.688 303.938H276.469C276.479 302.708 276.646 301.594 276.969 300.594C277.292 299.594 277.745 298.734 278.328 298.016C278.922 297.297 279.625 296.745 280.438 296.359C281.25 295.974 282.156 295.781 283.156 295.781C283.969 295.781 284.703 295.896 285.359 296.125C286.016 296.354 286.578 296.719 287.047 297.219C287.526 297.719 287.891 298.375 288.141 299.188C288.401 299.99 288.531 300.979 288.531 302.156V313H284.375V302.125C284.375 301.354 284.26 300.745 284.031 300.297C283.812 299.849 283.49 299.531 283.062 299.344C282.646 299.156 282.13 299.062 281.516 299.062C280.88 299.062 280.323 299.193 279.844 299.453C279.375 299.703 278.979 300.052 278.656 300.5C278.344 300.948 278.104 301.464 277.938 302.047C277.771 302.63 277.688 303.26 277.688 303.938ZM302.312 309.406V289H306.469V313H302.719L302.312 309.406ZM291.453 304.75V304.422C291.453 303.13 291.599 301.958 291.891 300.906C292.193 299.844 292.63 298.932 293.203 298.172C293.776 297.411 294.469 296.823 295.281 296.406C296.104 295.99 297.036 295.781 298.078 295.781C299.089 295.781 299.969 295.984 300.719 296.391C301.479 296.797 302.125 297.375 302.656 298.125C303.198 298.875 303.63 299.766 303.953 300.797C304.276 301.818 304.51 302.943 304.656 304.172V305.062C304.51 306.26 304.276 307.359 303.953 308.359C303.63 309.359 303.198 310.234 302.656 310.984C302.125 311.724 301.479 312.297 300.719 312.703C299.958 313.109 299.068 313.312 298.047 313.312C297.016 313.312 296.089 313.099 295.266 312.672C294.453 312.245 293.76 311.646 293.188 310.875C292.625 310.104 292.193 309.198 291.891 308.156C291.599 307.115 291.453 305.979 291.453 304.75ZM295.594 304.422V304.75C295.594 305.479 295.656 306.161 295.781 306.797C295.906 307.432 296.109 307.995 296.391 308.484C296.672 308.964 297.031 309.339 297.469 309.609C297.917 309.88 298.458 310.016 299.094 310.016C299.906 310.016 300.573 309.839 301.094 309.484C301.625 309.12 302.036 308.625 302.328 308C302.62 307.365 302.807 306.651 302.891 305.859V303.406C302.849 302.781 302.74 302.203 302.562 301.672C302.396 301.141 302.156 300.682 301.844 300.297C301.542 299.911 301.167 299.609 300.719 299.391C300.271 299.172 299.74 299.062 299.125 299.062C298.49 299.062 297.948 299.203 297.5 299.484C297.052 299.755 296.688 300.135 296.406 300.625C296.125 301.115 295.917 301.682 295.781 302.328C295.656 302.974 295.594 303.672 295.594 304.422ZM309.469 304.719V304.391C309.469 303.151 309.646 302.01 310 300.969C310.354 299.917 310.87 299.005 311.547 298.234C312.224 297.464 313.052 296.865 314.031 296.438C315.01 296 316.125 295.781 317.375 295.781C318.646 295.781 319.771 296 320.75 296.438C321.74 296.865 322.573 297.464 323.25 298.234C323.927 299.005 324.443 299.917 324.797 300.969C325.151 302.01 325.328 303.151 325.328 304.391V304.719C325.328 305.948 325.151 307.089 324.797 308.141C324.443 309.182 323.927 310.094 323.25 310.875C322.573 311.646 321.745 312.245 320.766 312.672C319.786 313.099 318.667 313.312 317.406 313.312C316.156 313.312 315.036 313.099 314.047 312.672C313.057 312.245 312.224 311.646 311.547 310.875C310.87 310.094 310.354 309.182 310 308.141C309.646 307.089 309.469 305.948 309.469 304.719ZM313.594 304.391V304.719C313.594 305.458 313.667 306.151 313.812 306.797C313.958 307.443 314.182 308.01 314.484 308.5C314.786 308.99 315.177 309.375 315.656 309.656C316.146 309.927 316.729 310.062 317.406 310.062C318.073 310.062 318.646 309.927 319.125 309.656C319.604 309.375 319.995 308.99 320.297 308.5C320.609 308.01 320.839 307.443 320.984 306.797C321.13 306.151 321.203 305.458 321.203 304.719V304.391C321.203 303.661 321.13 302.979 320.984 302.344C320.839 301.698 320.609 301.13 320.297 300.641C319.995 300.141 319.599 299.75 319.109 299.469C318.63 299.177 318.052 299.031 317.375 299.031C316.708 299.031 316.135 299.177 315.656 299.469C315.177 299.75 314.786 300.141 314.484 300.641C314.182 301.13 313.958 301.698 313.812 302.344C313.667 302.979 313.594 303.661 313.594 304.391ZM332.219 309.281L332.188 312.141C332.188 313.255 331.911 314.385 331.359 315.531C330.807 316.677 330.094 317.625 329.219 318.375L327.031 317.172C327.312 316.703 327.573 316.229 327.812 315.75C328.062 315.271 328.26 314.75 328.406 314.188C328.562 313.635 328.641 313.016 328.641 312.328V309.281H332.219Z" fill="#FAF1F1"/>
<path d="M127.453 364.25V387H123.141L113.469 371.219V387H109.172V364.25H113.469L123.172 380.047V364.25H127.453ZM130.781 378.719V378.391C130.781 377.151 130.958 376.01 131.312 374.969C131.667 373.917 132.182 373.005 132.859 372.234C133.536 371.464 134.365 370.865 135.344 370.438C136.323 370 137.438 369.781 138.688 369.781C139.958 369.781 141.083 370 142.062 370.438C143.052 370.865 143.885 371.464 144.562 372.234C145.24 373.005 145.755 373.917 146.109 374.969C146.464 376.01 146.641 377.151 146.641 378.391V378.719C146.641 379.948 146.464 381.089 146.109 382.141C145.755 383.182 145.24 384.094 144.562 384.875C143.885 385.646 143.057 386.245 142.078 386.672C141.099 387.099 139.979 387.312 138.719 387.312C137.469 387.312 136.349 387.099 135.359 386.672C134.37 386.245 133.536 385.646 132.859 384.875C132.182 384.094 131.667 383.182 131.312 382.141C130.958 381.089 130.781 379.948 130.781 378.719ZM134.906 378.391V378.719C134.906 379.458 134.979 380.151 135.125 380.797C135.271 381.443 135.495 382.01 135.797 382.5C136.099 382.99 136.49 383.375 136.969 383.656C137.458 383.927 138.042 384.062 138.719 384.062C139.385 384.062 139.958 383.927 140.438 383.656C140.917 383.375 141.307 382.99 141.609 382.5C141.922 382.01 142.151 381.443 142.297 380.797C142.443 380.151 142.516 379.458 142.516 378.719V378.391C142.516 377.661 142.443 376.979 142.297 376.344C142.151 375.698 141.922 375.13 141.609 374.641C141.307 374.141 140.911 373.75 140.422 373.469C139.943 373.177 139.365 373.031 138.688 373.031C138.021 373.031 137.448 373.177 136.969 373.469C136.49 373.75 136.099 374.141 135.797 374.641C135.495 375.13 135.271 375.698 135.125 376.344C134.979 376.979 134.906 377.661 134.906 378.391ZM136.641 367.75L139.703 363H144.266L140 367.75H136.641ZM158.938 382.375C158.938 382.021 158.844 381.703 158.656 381.422C158.469 381.141 158.115 380.885 157.594 380.656C157.083 380.417 156.333 380.193 155.344 379.984C154.469 379.797 153.661 379.562 152.922 379.281C152.182 379 151.547 378.661 151.016 378.266C150.484 377.859 150.068 377.385 149.766 376.844C149.474 376.292 149.328 375.656 149.328 374.938C149.328 374.24 149.479 373.583 149.781 372.969C150.083 372.344 150.521 371.797 151.094 371.328C151.667 370.849 152.365 370.474 153.188 370.203C154.01 369.922 154.938 369.781 155.969 369.781C157.406 369.781 158.641 370.016 159.672 370.484C160.714 370.953 161.51 371.599 162.062 372.422C162.615 373.234 162.891 374.151 162.891 375.172H158.766C158.766 374.724 158.661 374.318 158.453 373.953C158.255 373.589 157.948 373.297 157.531 373.078C157.115 372.849 156.589 372.734 155.953 372.734C155.38 372.734 154.896 372.828 154.5 373.016C154.115 373.203 153.823 373.448 153.625 373.75C153.427 374.052 153.328 374.385 153.328 374.75C153.328 375.021 153.38 375.266 153.484 375.484C153.599 375.693 153.781 375.885 154.031 376.062C154.281 376.24 154.62 376.401 155.047 376.547C155.484 376.693 156.021 376.833 156.656 376.969C157.917 377.219 159.016 377.552 159.953 377.969C160.901 378.375 161.641 378.917 162.172 379.594C162.703 380.271 162.969 381.135 162.969 382.188C162.969 382.938 162.807 383.625 162.484 384.25C162.161 384.865 161.693 385.401 161.078 385.859C160.464 386.318 159.729 386.677 158.875 386.938C158.021 387.188 157.057 387.312 155.984 387.312C154.432 387.312 153.12 387.036 152.047 386.484C150.974 385.922 150.161 385.214 149.609 384.359C149.057 383.495 148.781 382.599 148.781 381.672H152.734C152.766 382.328 152.943 382.854 153.266 383.25C153.589 383.646 153.995 383.932 154.484 384.109C154.984 384.276 155.51 384.359 156.062 384.359C156.688 384.359 157.214 384.276 157.641 384.109C158.068 383.932 158.391 383.698 158.609 383.406C158.828 383.104 158.938 382.76 158.938 382.375ZM181.016 384.062C181.599 384.062 182.12 383.948 182.578 383.719C183.036 383.49 183.401 383.167 183.672 382.75C183.953 382.333 184.104 381.849 184.125 381.297H188.016C187.995 382.443 187.672 383.469 187.047 384.375C186.422 385.281 185.589 386 184.547 386.531C183.516 387.052 182.359 387.312 181.078 387.312C179.776 387.312 178.641 387.094 177.672 386.656C176.703 386.219 175.896 385.609 175.25 384.828C174.615 384.047 174.135 383.141 173.812 382.109C173.5 381.078 173.344 379.974 173.344 378.797V378.297C173.344 377.12 173.5 376.016 173.812 374.984C174.135 373.953 174.615 373.047 175.25 372.266C175.896 371.484 176.703 370.875 177.672 370.438C178.641 370 179.771 369.781 181.062 369.781C182.427 369.781 183.625 370.047 184.656 370.578C185.698 371.109 186.51 371.859 187.094 372.828C187.688 373.797 187.995 374.938 188.016 376.25H184.125C184.104 375.646 183.969 375.104 183.719 374.625C183.469 374.146 183.115 373.76 182.656 373.469C182.198 373.177 181.641 373.031 180.984 373.031C180.286 373.031 179.703 373.177 179.234 373.469C178.776 373.76 178.417 374.161 178.156 374.672C177.906 375.172 177.729 375.734 177.625 376.359C177.531 376.974 177.484 377.62 177.484 378.297V378.797C177.484 379.484 177.531 380.141 177.625 380.766C177.729 381.391 177.906 381.953 178.156 382.453C178.417 382.943 178.776 383.333 179.234 383.625C179.703 383.917 180.297 384.062 181.016 384.062ZM190.031 378.719V378.391C190.031 377.151 190.208 376.01 190.562 374.969C190.917 373.917 191.432 373.005 192.109 372.234C192.786 371.464 193.615 370.865 194.594 370.438C195.573 370 196.688 369.781 197.938 369.781C199.208 369.781 200.333 370 201.312 370.438C202.302 370.865 203.135 371.464 203.812 372.234C204.49 373.005 205.005 373.917 205.359 374.969C205.714 376.01 205.891 377.151 205.891 378.391V378.719C205.891 379.948 205.714 381.089 205.359 382.141C205.005 383.182 204.49 384.094 203.812 384.875C203.135 385.646 202.307 386.245 201.328 386.672C200.349 387.099 199.229 387.312 197.969 387.312C196.719 387.312 195.599 387.099 194.609 386.672C193.62 386.245 192.786 385.646 192.109 384.875C191.432 384.094 190.917 383.182 190.562 382.141C190.208 381.089 190.031 379.948 190.031 378.719ZM194.156 378.391V378.719C194.156 379.458 194.229 380.151 194.375 380.797C194.521 381.443 194.745 382.01 195.047 382.5C195.349 382.99 195.74 383.375 196.219 383.656C196.708 383.927 197.292 384.062 197.969 384.062C198.635 384.062 199.208 383.927 199.688 383.656C200.167 383.375 200.557 382.99 200.859 382.5C201.172 382.01 201.401 381.443 201.547 380.797C201.693 380.151 201.766 379.458 201.766 378.719V378.391C201.766 377.661 201.693 376.979 201.547 376.344C201.401 375.698 201.172 375.13 200.859 374.641C200.557 374.141 200.161 373.75 199.672 373.469C199.193 373.177 198.615 373.031 197.938 373.031C197.271 373.031 196.698 373.177 196.219 373.469C195.74 373.75 195.349 374.141 195.047 374.641C194.745 375.13 194.521 375.698 194.375 376.344C194.229 376.979 194.156 377.661 194.156 378.391ZM212.938 373.703V387H208.812V370.094H212.688L212.938 373.703ZM212.281 377.938H211.062C211.073 376.708 211.24 375.594 211.562 374.594C211.885 373.594 212.339 372.734 212.922 372.016C213.516 371.297 214.219 370.745 215.031 370.359C215.844 369.974 216.75 369.781 217.75 369.781C218.562 369.781 219.297 369.896 219.953 370.125C220.609 370.354 221.172 370.719 221.641 371.219C222.12 371.719 222.484 372.375 222.734 373.188C222.995 373.99 223.125 374.979 223.125 376.156V387H218.969V376.125C218.969 375.354 218.854 374.745 218.625 374.297C218.406 373.849 218.083 373.531 217.656 373.344C217.24 373.156 216.724 373.062 216.109 373.062C215.474 373.062 214.917 373.193 214.438 373.453C213.969 373.703 213.573 374.052 213.25 374.5C212.938 374.948 212.698 375.464 212.531 376.047C212.365 376.63 212.281 377.26 212.281 377.938ZM234.359 387.312C233.078 387.312 231.927 387.104 230.906 386.688C229.885 386.271 229.016 385.693 228.297 384.953C227.589 384.203 227.042 383.333 226.656 382.344C226.281 381.344 226.094 380.271 226.094 379.125V378.5C226.094 377.198 226.281 376.016 226.656 374.953C227.031 373.88 227.562 372.958 228.25 372.188C228.938 371.417 229.76 370.823 230.719 370.406C231.677 369.99 232.734 369.781 233.891 369.781C235.089 369.781 236.146 369.984 237.062 370.391C237.979 370.786 238.745 371.349 239.359 372.078C239.974 372.807 240.438 373.682 240.75 374.703C241.062 375.714 241.219 376.833 241.219 378.062V379.797H227.969V376.953H237.156V376.641C237.135 375.984 237.01 375.385 236.781 374.844C236.552 374.292 236.198 373.854 235.719 373.531C235.24 373.198 234.62 373.031 233.859 373.031C233.245 373.031 232.708 373.167 232.25 373.438C231.802 373.698 231.427 374.073 231.125 374.562C230.833 375.042 230.615 375.615 230.469 376.281C230.323 376.948 230.25 377.688 230.25 378.5V379.125C230.25 379.833 230.344 380.49 230.531 381.094C230.729 381.698 231.016 382.224 231.391 382.672C231.776 383.109 232.234 383.453 232.766 383.703C233.307 383.943 233.922 384.062 234.609 384.062C235.474 384.062 236.255 383.896 236.953 383.562C237.661 383.219 238.276 382.714 238.797 382.047L240.875 384.203C240.521 384.724 240.042 385.224 239.438 385.703C238.844 386.182 238.125 386.573 237.281 386.875C236.438 387.167 235.464 387.312 234.359 387.312ZM250.922 384.062C251.505 384.062 252.026 383.948 252.484 383.719C252.943 383.49 253.307 383.167 253.578 382.75C253.859 382.333 254.01 381.849 254.031 381.297H257.922C257.901 382.443 257.578 383.469 256.953 384.375C256.328 385.281 255.495 386 254.453 386.531C253.422 387.052 252.266 387.312 250.984 387.312C249.682 387.312 248.547 387.094 247.578 386.656C246.609 386.219 245.802 385.609 245.156 384.828C244.521 384.047 244.042 383.141 243.719 382.109C243.406 381.078 243.25 379.974 243.25 378.797V378.297C243.25 377.12 243.406 376.016 243.719 374.984C244.042 373.953 244.521 373.047 245.156 372.266C245.802 371.484 246.609 370.875 247.578 370.438C248.547 370 249.677 369.781 250.969 369.781C252.333 369.781 253.531 370.047 254.562 370.578C255.604 371.109 256.417 371.859 257 372.828C257.594 373.797 257.901 374.938 257.922 376.25H254.031C254.01 375.646 253.875 375.104 253.625 374.625C253.375 374.146 253.021 373.76 252.562 373.469C252.104 373.177 251.547 373.031 250.891 373.031C250.193 373.031 249.609 373.177 249.141 373.469C248.682 373.76 248.323 374.161 248.062 374.672C247.812 375.172 247.635 375.734 247.531 376.359C247.438 376.974 247.391 377.62 247.391 378.297V378.797C247.391 379.484 247.438 380.141 247.531 380.766C247.635 381.391 247.812 381.953 248.062 382.453C248.323 382.943 248.682 383.333 249.141 383.625C249.609 383.917 250.203 384.062 250.922 384.062ZM268.672 370.094V373.062H258.984V370.094H268.672ZM261.578 365.938H265.719V382.125C265.719 382.625 265.786 383.01 265.922 383.281C266.057 383.552 266.26 383.734 266.531 383.828C266.802 383.922 267.125 383.969 267.5 383.969C267.771 383.969 268.021 383.953 268.25 383.922C268.479 383.891 268.672 383.859 268.828 383.828L268.844 386.922C268.5 387.036 268.109 387.13 267.672 387.203C267.245 387.276 266.76 387.312 266.219 387.312C265.292 387.312 264.479 387.156 263.781 386.844C263.083 386.521 262.542 386.005 262.156 385.297C261.771 384.578 261.578 383.63 261.578 382.453V365.938ZM280.734 383.406V375.609C280.734 375.036 280.635 374.542 280.438 374.125C280.24 373.708 279.938 373.385 279.531 373.156C279.125 372.927 278.609 372.812 277.984 372.812C277.432 372.812 276.948 372.906 276.531 373.094C276.125 373.281 275.812 373.547 275.594 373.891C275.375 374.224 275.266 374.609 275.266 375.047H271.125C271.125 374.349 271.292 373.688 271.625 373.062C271.958 372.427 272.432 371.865 273.047 371.375C273.672 370.875 274.417 370.484 275.281 370.203C276.156 369.922 277.135 369.781 278.219 369.781C279.5 369.781 280.641 370 281.641 370.438C282.651 370.865 283.443 371.51 284.016 372.375C284.599 373.24 284.891 374.328 284.891 375.641V383.016C284.891 383.859 284.943 384.583 285.047 385.188C285.161 385.781 285.328 386.297 285.547 386.734V387H281.344C281.146 386.573 280.995 386.031 280.891 385.375C280.786 384.708 280.734 384.052 280.734 383.406ZM281.312 376.703L281.344 379.156H278.734C278.089 379.156 277.521 379.224 277.031 379.359C276.542 379.484 276.141 379.672 275.828 379.922C275.516 380.161 275.281 380.453 275.125 380.797C274.969 381.13 274.891 381.51 274.891 381.938C274.891 382.354 274.984 382.729 275.172 383.062C275.37 383.396 275.651 383.661 276.016 383.859C276.391 384.047 276.828 384.141 277.328 384.141C278.057 384.141 278.693 383.995 279.234 383.703C279.776 383.401 280.198 383.036 280.5 382.609C280.802 382.182 280.964 381.776 280.984 381.391L282.172 383.172C282.026 383.599 281.807 384.052 281.516 384.531C281.224 385.01 280.849 385.458 280.391 385.875C279.932 386.292 279.38 386.635 278.734 386.906C278.089 387.177 277.339 387.312 276.484 387.312C275.391 387.312 274.411 387.094 273.547 386.656C272.682 386.219 272 385.62 271.5 384.859C271 384.099 270.75 383.234 270.75 382.266C270.75 381.37 270.917 380.578 271.25 379.891C271.583 379.203 272.078 378.625 272.734 378.156C273.391 377.677 274.203 377.318 275.172 377.078C276.151 376.828 277.271 376.703 278.531 376.703H281.312ZM292.719 373.562V387H288.594V370.094H292.484L292.719 373.562ZM292.109 377.938H290.844C290.844 376.76 290.984 375.677 291.266 374.688C291.557 373.698 291.984 372.839 292.547 372.109C293.109 371.37 293.802 370.797 294.625 370.391C295.458 369.984 296.422 369.781 297.516 369.781C298.276 369.781 298.974 369.896 299.609 370.125C300.245 370.344 300.792 370.693 301.25 371.172C301.719 371.641 302.078 372.255 302.328 373.016C302.578 373.766 302.703 374.667 302.703 375.719V387H298.578V376.141C298.578 375.349 298.464 374.729 298.234 374.281C298.016 373.833 297.698 373.521 297.281 373.344C296.865 373.156 296.365 373.062 295.781 373.062C295.135 373.062 294.578 373.193 294.109 373.453C293.651 373.703 293.271 374.052 292.969 374.5C292.677 374.948 292.458 375.464 292.312 376.047C292.177 376.63 292.109 377.26 292.109 377.938ZM302.391 377.172L300.688 377.484C300.698 376.422 300.844 375.427 301.125 374.5C301.406 373.562 301.818 372.745 302.359 372.047C302.911 371.339 303.594 370.786 304.406 370.391C305.229 369.984 306.177 369.781 307.25 369.781C308.083 369.781 308.833 369.901 309.5 370.141C310.177 370.37 310.755 370.74 311.234 371.25C311.714 371.75 312.078 372.401 312.328 373.203C312.589 374.005 312.719 374.984 312.719 376.141V387H308.562V376.125C308.562 375.302 308.448 374.672 308.219 374.234C308 373.797 307.682 373.495 307.266 373.328C306.849 373.151 306.359 373.062 305.797 373.062C305.224 373.062 304.724 373.172 304.297 373.391C303.88 373.599 303.526 373.891 303.234 374.266C302.953 374.641 302.74 375.078 302.594 375.578C302.458 376.068 302.391 376.599 302.391 377.172ZM315.688 378.719V378.391C315.688 377.151 315.865 376.01 316.219 374.969C316.573 373.917 317.089 373.005 317.766 372.234C318.443 371.464 319.271 370.865 320.25 370.438C321.229 370 322.344 369.781 323.594 369.781C324.865 369.781 325.99 370 326.969 370.438C327.958 370.865 328.792 371.464 329.469 372.234C330.146 373.005 330.661 373.917 331.016 374.969C331.37 376.01 331.547 377.151 331.547 378.391V378.719C331.547 379.948 331.37 381.089 331.016 382.141C330.661 383.182 330.146 384.094 329.469 384.875C328.792 385.646 327.964 386.245 326.984 386.672C326.005 387.099 324.885 387.312 323.625 387.312C322.375 387.312 321.255 387.099 320.266 386.672C319.276 386.245 318.443 385.646 317.766 384.875C317.089 384.094 316.573 383.182 316.219 382.141C315.865 381.089 315.688 379.948 315.688 378.719ZM319.812 378.391V378.719C319.812 379.458 319.885 380.151 320.031 380.797C320.177 381.443 320.401 382.01 320.703 382.5C321.005 382.99 321.396 383.375 321.875 383.656C322.365 383.927 322.948 384.062 323.625 384.062C324.292 384.062 324.865 383.927 325.344 383.656C325.823 383.375 326.214 382.99 326.516 382.5C326.828 382.01 327.057 381.443 327.203 380.797C327.349 380.151 327.422 379.458 327.422 378.719V378.391C327.422 377.661 327.349 376.979 327.203 376.344C327.057 375.698 326.828 375.13 326.516 374.641C326.214 374.141 325.818 373.75 325.328 373.469C324.849 373.177 324.271 373.031 323.594 373.031C322.927 373.031 322.354 373.177 321.875 373.469C321.396 373.75 321.005 374.141 320.703 374.641C320.401 375.13 320.177 375.698 320.031 376.344C319.885 376.979 319.812 377.661 319.812 378.391ZM343.844 382.375C343.844 382.021 343.75 381.703 343.562 381.422C343.375 381.141 343.021 380.885 342.5 380.656C341.99 380.417 341.24 380.193 340.25 379.984C339.375 379.797 338.568 379.562 337.828 379.281C337.089 379 336.453 378.661 335.922 378.266C335.391 377.859 334.974 377.385 334.672 376.844C334.38 376.292 334.234 375.656 334.234 374.938C334.234 374.24 334.385 373.583 334.688 372.969C334.99 372.344 335.427 371.797 336 371.328C336.573 370.849 337.271 370.474 338.094 370.203C338.917 369.922 339.844 369.781 340.875 369.781C342.312 369.781 343.547 370.016 344.578 370.484C345.62 370.953 346.417 371.599 346.969 372.422C347.521 373.234 347.797 374.151 347.797 375.172H343.672C343.672 374.724 343.568 374.318 343.359 373.953C343.161 373.589 342.854 373.297 342.438 373.078C342.021 372.849 341.495 372.734 340.859 372.734C340.286 372.734 339.802 372.828 339.406 373.016C339.021 373.203 338.729 373.448 338.531 373.75C338.333 374.052 338.234 374.385 338.234 374.75C338.234 375.021 338.286 375.266 338.391 375.484C338.505 375.693 338.688 375.885 338.938 376.062C339.188 376.24 339.526 376.401 339.953 376.547C340.391 376.693 340.927 376.833 341.562 376.969C342.823 377.219 343.922 377.552 344.859 377.969C345.807 378.375 346.547 378.917 347.078 379.594C347.609 380.271 347.875 381.135 347.875 382.188C347.875 382.938 347.714 383.625 347.391 384.25C347.068 384.865 346.599 385.401 345.984 385.859C345.37 386.318 344.635 386.677 343.781 386.938C342.927 387.188 341.964 387.312 340.891 387.312C339.339 387.312 338.026 387.036 336.953 386.484C335.88 385.922 335.068 385.214 334.516 384.359C333.964 383.495 333.688 382.599 333.688 381.672H337.641C337.672 382.328 337.849 382.854 338.172 383.25C338.495 383.646 338.901 383.932 339.391 384.109C339.891 384.276 340.417 384.359 340.969 384.359C341.594 384.359 342.12 384.276 342.547 384.109C342.974 383.932 343.297 383.698 343.516 383.406C343.734 383.104 343.844 382.76 343.844 382.375ZM363.109 373.344V393.5H358.969V370.094H362.797L363.109 373.344ZM373.969 378.375V378.703C373.969 379.932 373.823 381.073 373.531 382.125C373.25 383.167 372.833 384.078 372.281 384.859C371.729 385.63 371.042 386.234 370.219 386.672C369.406 387.099 368.469 387.312 367.406 387.312C366.365 387.312 365.458 387.115 364.688 386.719C363.917 386.312 363.266 385.74 362.734 385C362.203 384.26 361.776 383.401 361.453 382.422C361.141 381.432 360.906 380.354 360.75 379.188V378.141C360.906 376.901 361.141 375.776 361.453 374.766C361.776 373.745 362.203 372.865 362.734 372.125C363.266 371.375 363.911 370.797 364.672 370.391C365.443 369.984 366.344 369.781 367.375 369.781C368.448 369.781 369.391 369.984 370.203 370.391C371.026 370.797 371.719 371.38 372.281 372.141C372.844 372.901 373.266 373.807 373.547 374.859C373.828 375.911 373.969 377.083 373.969 378.375ZM369.828 378.703V378.375C369.828 377.625 369.76 376.932 369.625 376.297C369.49 375.651 369.281 375.089 369 374.609C368.719 374.12 368.354 373.74 367.906 373.469C367.458 373.198 366.917 373.062 366.281 373.062C365.646 373.062 365.099 373.167 364.641 373.375C364.182 373.583 363.807 373.88 363.516 374.266C363.224 374.651 362.995 375.109 362.828 375.641C362.672 376.161 362.568 376.74 362.516 377.375V379.969C362.609 380.74 362.792 381.432 363.062 382.047C363.333 382.661 363.729 383.151 364.25 383.516C364.781 383.88 365.469 384.062 366.312 384.062C366.948 384.062 367.49 383.922 367.938 383.641C368.385 383.359 368.75 382.974 369.031 382.484C369.312 381.984 369.516 381.411 369.641 380.766C369.766 380.12 369.828 379.432 369.828 378.703ZM384.578 387.312C383.297 387.312 382.146 387.104 381.125 386.688C380.104 386.271 379.234 385.693 378.516 384.953C377.807 384.203 377.26 383.333 376.875 382.344C376.5 381.344 376.312 380.271 376.312 379.125V378.5C376.312 377.198 376.5 376.016 376.875 374.953C377.25 373.88 377.781 372.958 378.469 372.188C379.156 371.417 379.979 370.823 380.938 370.406C381.896 369.99 382.953 369.781 384.109 369.781C385.307 369.781 386.365 369.984 387.281 370.391C388.198 370.786 388.964 371.349 389.578 372.078C390.193 372.807 390.656 373.682 390.969 374.703C391.281 375.714 391.438 376.833 391.438 378.062V379.797H378.188V376.953H387.375V376.641C387.354 375.984 387.229 375.385 387 374.844C386.771 374.292 386.417 373.854 385.938 373.531C385.458 373.198 384.839 373.031 384.078 373.031C383.464 373.031 382.927 373.167 382.469 373.438C382.021 373.698 381.646 374.073 381.344 374.562C381.052 375.042 380.833 375.615 380.688 376.281C380.542 376.948 380.469 377.688 380.469 378.5V379.125C380.469 379.833 380.562 380.49 380.75 381.094C380.948 381.698 381.234 382.224 381.609 382.672C381.995 383.109 382.453 383.453 382.984 383.703C383.526 383.943 384.141 384.062 384.828 384.062C385.693 384.062 386.474 383.896 387.172 383.562C387.88 383.219 388.495 382.714 389.016 382.047L391.094 384.203C390.74 384.724 390.26 385.224 389.656 385.703C389.062 386.182 388.344 386.573 387.5 386.875C386.656 387.167 385.682 387.312 384.578 387.312ZM403.5 382.375C403.5 382.021 403.406 381.703 403.219 381.422C403.031 381.141 402.677 380.885 402.156 380.656C401.646 380.417 400.896 380.193 399.906 379.984C399.031 379.797 398.224 379.562 397.484 379.281C396.745 379 396.109 378.661 395.578 378.266C395.047 377.859 394.63 377.385 394.328 376.844C394.036 376.292 393.891 375.656 393.891 374.938C393.891 374.24 394.042 373.583 394.344 372.969C394.646 372.344 395.083 371.797 395.656 371.328C396.229 370.849 396.927 370.474 397.75 370.203C398.573 369.922 399.5 369.781 400.531 369.781C401.969 369.781 403.203 370.016 404.234 370.484C405.276 370.953 406.073 371.599 406.625 372.422C407.177 373.234 407.453 374.151 407.453 375.172H403.328C403.328 374.724 403.224 374.318 403.016 373.953C402.818 373.589 402.51 373.297 402.094 373.078C401.677 372.849 401.151 372.734 400.516 372.734C399.943 372.734 399.458 372.828 399.062 373.016C398.677 373.203 398.385 373.448 398.188 373.75C397.99 374.052 397.891 374.385 397.891 374.75C397.891 375.021 397.943 375.266 398.047 375.484C398.161 375.693 398.344 375.885 398.594 376.062C398.844 376.24 399.182 376.401 399.609 376.547C400.047 376.693 400.583 376.833 401.219 376.969C402.479 377.219 403.578 377.552 404.516 377.969C405.464 378.375 406.203 378.917 406.734 379.594C407.266 380.271 407.531 381.135 407.531 382.188C407.531 382.938 407.37 383.625 407.047 384.25C406.724 384.865 406.255 385.401 405.641 385.859C405.026 386.318 404.292 386.677 403.438 386.938C402.583 387.188 401.62 387.312 400.547 387.312C398.995 387.312 397.682 387.036 396.609 386.484C395.536 385.922 394.724 385.214 394.172 384.359C393.62 383.495 393.344 382.599 393.344 381.672H397.297C397.328 382.328 397.505 382.854 397.828 383.25C398.151 383.646 398.557 383.932 399.047 384.109C399.547 384.276 400.073 384.359 400.625 384.359C401.25 384.359 401.776 384.276 402.203 384.109C402.63 383.932 402.953 383.698 403.172 383.406C403.391 383.104 403.5 382.76 403.5 382.375ZM419.969 382.375C419.969 382.021 419.875 381.703 419.688 381.422C419.5 381.141 419.146 380.885 418.625 380.656C418.115 380.417 417.365 380.193 416.375 379.984C415.5 379.797 414.693 379.562 413.953 379.281C413.214 379 412.578 378.661 412.047 378.266C411.516 377.859 411.099 377.385 410.797 376.844C410.505 376.292 410.359 375.656 410.359 374.938C410.359 374.24 410.51 373.583 410.812 372.969C411.115 372.344 411.552 371.797 412.125 371.328C412.698 370.849 413.396 370.474 414.219 370.203C415.042 369.922 415.969 369.781 417 369.781C418.438 369.781 419.672 370.016 420.703 370.484C421.745 370.953 422.542 371.599 423.094 372.422C423.646 373.234 423.922 374.151 423.922 375.172H419.797C419.797 374.724 419.693 374.318 419.484 373.953C419.286 373.589 418.979 373.297 418.562 373.078C418.146 372.849 417.62 372.734 416.984 372.734C416.411 372.734 415.927 372.828 415.531 373.016C415.146 373.203 414.854 373.448 414.656 373.75C414.458 374.052 414.359 374.385 414.359 374.75C414.359 375.021 414.411 375.266 414.516 375.484C414.63 375.693 414.812 375.885 415.062 376.062C415.312 376.24 415.651 376.401 416.078 376.547C416.516 376.693 417.052 376.833 417.688 376.969C418.948 377.219 420.047 377.552 420.984 377.969C421.932 378.375 422.672 378.917 423.203 379.594C423.734 380.271 424 381.135 424 382.188C424 382.938 423.839 383.625 423.516 384.25C423.193 384.865 422.724 385.401 422.109 385.859C421.495 386.318 420.76 386.677 419.906 386.938C419.052 387.188 418.089 387.312 417.016 387.312C415.464 387.312 414.151 387.036 413.078 386.484C412.005 385.922 411.193 385.214 410.641 384.359C410.089 383.495 409.812 382.599 409.812 381.672H413.766C413.797 382.328 413.974 382.854 414.297 383.25C414.62 383.646 415.026 383.932 415.516 384.109C416.016 384.276 416.542 384.359 417.094 384.359C417.719 384.359 418.245 384.276 418.672 384.109C419.099 383.932 419.422 383.698 419.641 383.406C419.859 383.104 419.969 382.76 419.969 382.375ZM426.406 378.719V378.391C426.406 377.151 426.583 376.01 426.938 374.969C427.292 373.917 427.807 373.005 428.484 372.234C429.161 371.464 429.99 370.865 430.969 370.438C431.948 370 433.062 369.781 434.312 369.781C435.583 369.781 436.708 370 437.688 370.438C438.677 370.865 439.51 371.464 440.188 372.234C440.865 373.005 441.38 373.917 441.734 374.969C442.089 376.01 442.266 377.151 442.266 378.391V378.719C442.266 379.948 442.089 381.089 441.734 382.141C441.38 383.182 440.865 384.094 440.188 384.875C439.51 385.646 438.682 386.245 437.703 386.672C436.724 387.099 435.604 387.312 434.344 387.312C433.094 387.312 431.974 387.099 430.984 386.672C429.995 386.245 429.161 385.646 428.484 384.875C427.807 384.094 427.292 383.182 426.938 382.141C426.583 381.089 426.406 379.948 426.406 378.719ZM430.531 378.391V378.719C430.531 379.458 430.604 380.151 430.75 380.797C430.896 381.443 431.12 382.01 431.422 382.5C431.724 382.99 432.115 383.375 432.594 383.656C433.083 383.927 433.667 384.062 434.344 384.062C435.01 384.062 435.583 383.927 436.062 383.656C436.542 383.375 436.932 382.99 437.234 382.5C437.547 382.01 437.776 381.443 437.922 380.797C438.068 380.151 438.141 379.458 438.141 378.719V378.391C438.141 377.661 438.068 376.979 437.922 376.344C437.776 375.698 437.547 375.13 437.234 374.641C436.932 374.141 436.536 373.75 436.047 373.469C435.568 373.177 434.99 373.031 434.312 373.031C433.646 373.031 433.073 373.177 432.594 373.469C432.115 373.75 431.724 374.141 431.422 374.641C431.12 375.13 430.896 375.698 430.75 376.344C430.604 376.979 430.531 377.661 430.531 378.391ZM454.578 383.406V375.609C454.578 375.036 454.479 374.542 454.281 374.125C454.083 373.708 453.781 373.385 453.375 373.156C452.969 372.927 452.453 372.812 451.828 372.812C451.276 372.812 450.792 372.906 450.375 373.094C449.969 373.281 449.656 373.547 449.438 373.891C449.219 374.224 449.109 374.609 449.109 375.047H444.969C444.969 374.349 445.135 373.688 445.469 373.062C445.802 372.427 446.276 371.865 446.891 371.375C447.516 370.875 448.26 370.484 449.125 370.203C450 369.922 450.979 369.781 452.062 369.781C453.344 369.781 454.484 370 455.484 370.438C456.495 370.865 457.286 371.51 457.859 372.375C458.443 373.24 458.734 374.328 458.734 375.641V383.016C458.734 383.859 458.786 384.583 458.891 385.188C459.005 385.781 459.172 386.297 459.391 386.734V387H455.188C454.99 386.573 454.839 386.031 454.734 385.375C454.63 384.708 454.578 384.052 454.578 383.406ZM455.156 376.703L455.188 379.156H452.578C451.932 379.156 451.365 379.224 450.875 379.359C450.385 379.484 449.984 379.672 449.672 379.922C449.359 380.161 449.125 380.453 448.969 380.797C448.812 381.13 448.734 381.51 448.734 381.938C448.734 382.354 448.828 382.729 449.016 383.062C449.214 383.396 449.495 383.661 449.859 383.859C450.234 384.047 450.672 384.141 451.172 384.141C451.901 384.141 452.536 383.995 453.078 383.703C453.62 383.401 454.042 383.036 454.344 382.609C454.646 382.182 454.807 381.776 454.828 381.391L456.016 383.172C455.87 383.599 455.651 384.052 455.359 384.531C455.068 385.01 454.693 385.458 454.234 385.875C453.776 386.292 453.224 386.635 452.578 386.906C451.932 387.177 451.182 387.312 450.328 387.312C449.234 387.312 448.255 387.094 447.391 386.656C446.526 386.219 445.844 385.62 445.344 384.859C444.844 384.099 444.594 383.234 444.594 382.266C444.594 381.37 444.76 380.578 445.094 379.891C445.427 379.203 445.922 378.625 446.578 378.156C447.234 377.677 448.047 377.318 449.016 377.078C449.995 376.828 451.115 376.703 452.375 376.703H455.156ZM471.75 382.375C471.75 382.021 471.656 381.703 471.469 381.422C471.281 381.141 470.927 380.885 470.406 380.656C469.896 380.417 469.146 380.193 468.156 379.984C467.281 379.797 466.474 379.562 465.734 379.281C464.995 379 464.359 378.661 463.828 378.266C463.297 377.859 462.88 377.385 462.578 376.844C462.286 376.292 462.141 375.656 462.141 374.938C462.141 374.24 462.292 373.583 462.594 372.969C462.896 372.344 463.333 371.797 463.906 371.328C464.479 370.849 465.177 370.474 466 370.203C466.823 369.922 467.75 369.781 468.781 369.781C470.219 369.781 471.453 370.016 472.484 370.484C473.526 370.953 474.323 371.599 474.875 372.422C475.427 373.234 475.703 374.151 475.703 375.172H471.578C471.578 374.724 471.474 374.318 471.266 373.953C471.068 373.589 470.76 373.297 470.344 373.078C469.927 372.849 469.401 372.734 468.766 372.734C468.193 372.734 467.708 372.828 467.312 373.016C466.927 373.203 466.635 373.448 466.438 373.75C466.24 374.052 466.141 374.385 466.141 374.75C466.141 375.021 466.193 375.266 466.297 375.484C466.411 375.693 466.594 375.885 466.844 376.062C467.094 376.24 467.432 376.401 467.859 376.547C468.297 376.693 468.833 376.833 469.469 376.969C470.729 377.219 471.828 377.552 472.766 377.969C473.714 378.375 474.453 378.917 474.984 379.594C475.516 380.271 475.781 381.135 475.781 382.188C475.781 382.938 475.62 383.625 475.297 384.25C474.974 384.865 474.505 385.401 473.891 385.859C473.276 386.318 472.542 386.677 471.688 386.938C470.833 387.188 469.87 387.312 468.797 387.312C467.245 387.312 465.932 387.036 464.859 386.484C463.786 385.922 462.974 385.214 462.422 384.359C461.87 383.495 461.594 382.599 461.594 381.672H465.547C465.578 382.328 465.755 382.854 466.078 383.25C466.401 383.646 466.807 383.932 467.297 384.109C467.797 384.276 468.323 384.359 468.875 384.359C469.5 384.359 470.026 384.276 470.453 384.109C470.88 383.932 471.203 383.698 471.422 383.406C471.641 383.104 471.75 382.76 471.75 382.375ZM496.203 383.406V375.609C496.203 375.036 496.104 374.542 495.906 374.125C495.708 373.708 495.406 373.385 495 373.156C494.594 372.927 494.078 372.812 493.453 372.812C492.901 372.812 492.417 372.906 492 373.094C491.594 373.281 491.281 373.547 491.062 373.891C490.844 374.224 490.734 374.609 490.734 375.047H486.594C486.594 374.349 486.76 373.688 487.094 373.062C487.427 372.427 487.901 371.865 488.516 371.375C489.141 370.875 489.885 370.484 490.75 370.203C491.625 369.922 492.604 369.781 493.688 369.781C494.969 369.781 496.109 370 497.109 370.438C498.12 370.865 498.911 371.51 499.484 372.375C500.068 373.24 500.359 374.328 500.359 375.641V383.016C500.359 383.859 500.411 384.583 500.516 385.188C500.63 385.781 500.797 386.297 501.016 386.734V387H496.812C496.615 386.573 496.464 386.031 496.359 385.375C496.255 384.708 496.203 384.052 496.203 383.406ZM496.781 376.703L496.812 379.156H494.203C493.557 379.156 492.99 379.224 492.5 379.359C492.01 379.484 491.609 379.672 491.297 379.922C490.984 380.161 490.75 380.453 490.594 380.797C490.438 381.13 490.359 381.51 490.359 381.938C490.359 382.354 490.453 382.729 490.641 383.062C490.839 383.396 491.12 383.661 491.484 383.859C491.859 384.047 492.297 384.141 492.797 384.141C493.526 384.141 494.161 383.995 494.703 383.703C495.245 383.401 495.667 383.036 495.969 382.609C496.271 382.182 496.432 381.776 496.453 381.391L497.641 383.172C497.495 383.599 497.276 384.052 496.984 384.531C496.693 385.01 496.318 385.458 495.859 385.875C495.401 386.292 494.849 386.635 494.203 386.906C493.557 387.177 492.807 387.312 491.953 387.312C490.859 387.312 489.88 387.094 489.016 386.656C488.151 386.219 487.469 385.62 486.969 384.859C486.469 384.099 486.219 383.234 486.219 382.266C486.219 381.37 486.385 380.578 486.719 379.891C487.052 379.203 487.547 378.625 488.203 378.156C488.859 377.677 489.672 377.318 490.641 377.078C491.62 376.828 492.74 376.703 494 376.703H496.781ZM503.344 378.719V378.391C503.344 377.151 503.521 376.01 503.875 374.969C504.229 373.917 504.745 373.005 505.422 372.234C506.099 371.464 506.927 370.865 507.906 370.438C508.885 370 510 369.781 511.25 369.781C512.521 369.781 513.646 370 514.625 370.438C515.615 370.865 516.448 371.464 517.125 372.234C517.802 373.005 518.318 373.917 518.672 374.969C519.026 376.01 519.203 377.151 519.203 378.391V378.719C519.203 379.948 519.026 381.089 518.672 382.141C518.318 383.182 517.802 384.094 517.125 384.875C516.448 385.646 515.62 386.245 514.641 386.672C513.661 387.099 512.542 387.312 511.281 387.312C510.031 387.312 508.911 387.099 507.922 386.672C506.932 386.245 506.099 385.646 505.422 384.875C504.745 384.094 504.229 383.182 503.875 382.141C503.521 381.089 503.344 379.948 503.344 378.719ZM507.469 378.391V378.719C507.469 379.458 507.542 380.151 507.688 380.797C507.833 381.443 508.057 382.01 508.359 382.5C508.661 382.99 509.052 383.375 509.531 383.656C510.021 383.927 510.604 384.062 511.281 384.062C511.948 384.062 512.521 383.927 513 383.656C513.479 383.375 513.87 382.99 514.172 382.5C514.484 382.01 514.714 381.443 514.859 380.797C515.005 380.151 515.078 379.458 515.078 378.719V378.391C515.078 377.661 515.005 376.979 514.859 376.344C514.714 375.698 514.484 375.13 514.172 374.641C513.87 374.141 513.474 373.75 512.984 373.469C512.505 373.177 511.927 373.031 511.25 373.031C510.583 373.031 510.01 373.177 509.531 373.469C509.052 373.75 508.661 374.141 508.359 374.641C508.057 375.13 507.833 375.698 507.688 376.344C507.542 376.979 507.469 377.661 507.469 378.391ZM531.5 382.375C531.5 382.021 531.406 381.703 531.219 381.422C531.031 381.141 530.677 380.885 530.156 380.656C529.646 380.417 528.896 380.193 527.906 379.984C527.031 379.797 526.224 379.562 525.484 379.281C524.745 379 524.109 378.661 523.578 378.266C523.047 377.859 522.63 377.385 522.328 376.844C522.036 376.292 521.891 375.656 521.891 374.938C521.891 374.24 522.042 373.583 522.344 372.969C522.646 372.344 523.083 371.797 523.656 371.328C524.229 370.849 524.927 370.474 525.75 370.203C526.573 369.922 527.5 369.781 528.531 369.781C529.969 369.781 531.203 370.016 532.234 370.484C533.276 370.953 534.073 371.599 534.625 372.422C535.177 373.234 535.453 374.151 535.453 375.172H531.328C531.328 374.724 531.224 374.318 531.016 373.953C530.818 373.589 530.51 373.297 530.094 373.078C529.677 372.849 529.151 372.734 528.516 372.734C527.943 372.734 527.458 372.828 527.062 373.016C526.677 373.203 526.385 373.448 526.188 373.75C525.99 374.052 525.891 374.385 525.891 374.75C525.891 375.021 525.943 375.266 526.047 375.484C526.161 375.693 526.344 375.885 526.594 376.062C526.844 376.24 527.182 376.401 527.609 376.547C528.047 376.693 528.583 376.833 529.219 376.969C530.479 377.219 531.578 377.552 532.516 377.969C533.464 378.375 534.203 378.917 534.734 379.594C535.266 380.271 535.531 381.135 535.531 382.188C535.531 382.938 535.37 383.625 535.047 384.25C534.724 384.865 534.255 385.401 533.641 385.859C533.026 386.318 532.292 386.677 531.438 386.938C530.583 387.188 529.62 387.312 528.547 387.312C526.995 387.312 525.682 387.036 524.609 386.484C523.536 385.922 522.724 385.214 522.172 384.359C521.62 383.495 521.344 382.599 521.344 381.672H525.297C525.328 382.328 525.505 382.854 525.828 383.25C526.151 383.646 526.557 383.932 527.047 384.109C527.547 384.276 528.073 384.359 528.625 384.359C529.25 384.359 529.776 384.276 530.203 384.109C530.63 383.932 530.953 383.698 531.172 383.406C531.391 383.104 531.5 382.76 531.5 382.375ZM115.797 422.062C116.38 422.062 116.901 421.948 117.359 421.719C117.818 421.49 118.182 421.167 118.453 420.75C118.734 420.333 118.885 419.849 118.906 419.297H122.797C122.776 420.443 122.453 421.469 121.828 422.375C121.203 423.281 120.37 424 119.328 424.531C118.297 425.052 117.141 425.312 115.859 425.312C114.557 425.312 113.422 425.094 112.453 424.656C111.484 424.219 110.677 423.609 110.031 422.828C109.396 422.047 108.917 421.141 108.594 420.109C108.281 419.078 108.125 417.974 108.125 416.797V416.297C108.125 415.12 108.281 414.016 108.594 412.984C108.917 411.953 109.396 411.047 110.031 410.266C110.677 409.484 111.484 408.875 112.453 408.438C113.422 408 114.552 407.781 115.844 407.781C117.208 407.781 118.406 408.047 119.438 408.578C120.479 409.109 121.292 409.859 121.875 410.828C122.469 411.797 122.776 412.938 122.797 414.25H118.906C118.885 413.646 118.75 413.104 118.5 412.625C118.25 412.146 117.896 411.76 117.438 411.469C116.979 411.177 116.422 411.031 115.766 411.031C115.068 411.031 114.484 411.177 114.016 411.469C113.557 411.76 113.198 412.161 112.938 412.672C112.688 413.172 112.51 413.734 112.406 414.359C112.312 414.974 112.266 415.62 112.266 416.297V416.797C112.266 417.484 112.312 418.141 112.406 418.766C112.51 419.391 112.688 419.953 112.938 420.453C113.198 420.943 113.557 421.333 114.016 421.625C114.484 421.917 115.078 422.062 115.797 422.062ZM133.141 425.312C131.859 425.312 130.708 425.104 129.688 424.688C128.667 424.271 127.797 423.693 127.078 422.953C126.37 422.203 125.823 421.333 125.438 420.344C125.062 419.344 124.875 418.271 124.875 417.125V416.5C124.875 415.198 125.062 414.016 125.438 412.953C125.812 411.88 126.344 410.958 127.031 410.188C127.719 409.417 128.542 408.823 129.5 408.406C130.458 407.99 131.516 407.781 132.672 407.781C133.87 407.781 134.927 407.984 135.844 408.391C136.76 408.786 137.526 409.349 138.141 410.078C138.755 410.807 139.219 411.682 139.531 412.703C139.844 413.714 140 414.833 140 416.062V417.797H126.75V414.953H135.938V414.641C135.917 413.984 135.792 413.385 135.562 412.844C135.333 412.292 134.979 411.854 134.5 411.531C134.021 411.198 133.401 411.031 132.641 411.031C132.026 411.031 131.49 411.167 131.031 411.438C130.583 411.698 130.208 412.073 129.906 412.562C129.615 413.042 129.396 413.615 129.25 414.281C129.104 414.948 129.031 415.688 129.031 416.5V417.125C129.031 417.833 129.125 418.49 129.312 419.094C129.51 419.698 129.797 420.224 130.172 420.672C130.557 421.109 131.016 421.453 131.547 421.703C132.089 421.943 132.703 422.062 133.391 422.062C134.255 422.062 135.036 421.896 135.734 421.562C136.443 421.219 137.057 420.714 137.578 420.047L139.656 422.203C139.302 422.724 138.823 423.224 138.219 423.703C137.625 424.182 136.906 424.573 136.062 424.875C135.219 425.167 134.245 425.312 133.141 425.312ZM146.812 411.703V425H142.688V408.094H146.562L146.812 411.703ZM146.156 415.938H144.938C144.948 414.708 145.115 413.594 145.438 412.594C145.76 411.594 146.214 410.734 146.797 410.016C147.391 409.297 148.094 408.745 148.906 408.359C149.719 407.974 150.625 407.781 151.625 407.781C152.438 407.781 153.172 407.896 153.828 408.125C154.484 408.354 155.047 408.719 155.516 409.219C155.995 409.719 156.359 410.375 156.609 411.188C156.87 411.99 157 412.979 157 414.156V425H152.844V414.125C152.844 413.354 152.729 412.745 152.5 412.297C152.281 411.849 151.958 411.531 151.531 411.344C151.115 411.156 150.599 411.062 149.984 411.062C149.349 411.062 148.792 411.193 148.312 411.453C147.844 411.703 147.448 412.052 147.125 412.5C146.812 412.948 146.573 413.464 146.406 414.047C146.24 414.63 146.156 415.26 146.156 415.938ZM168.641 408.094V411.062H158.953V408.094H168.641ZM161.547 403.938H165.688V420.125C165.688 420.625 165.755 421.01 165.891 421.281C166.026 421.552 166.229 421.734 166.5 421.828C166.771 421.922 167.094 421.969 167.469 421.969C167.74 421.969 167.99 421.953 168.219 421.922C168.448 421.891 168.641 421.859 168.797 421.828L168.812 424.922C168.469 425.036 168.078 425.13 167.641 425.203C167.214 425.276 166.729 425.312 166.188 425.312C165.26 425.312 164.448 425.156 163.75 424.844C163.052 424.521 162.51 424.005 162.125 423.297C161.74 422.578 161.547 421.63 161.547 420.453V403.938ZM175.516 411.547V425H171.391V408.094H175.297L175.516 411.547ZM180.656 407.984L180.594 411.828C180.365 411.786 180.104 411.755 179.812 411.734C179.531 411.714 179.266 411.703 179.016 411.703C178.38 411.703 177.823 411.792 177.344 411.969C176.865 412.135 176.464 412.38 176.141 412.703C175.828 413.026 175.589 413.422 175.422 413.891C175.255 414.349 175.161 414.87 175.141 415.453L174.25 415.344C174.25 414.271 174.359 413.276 174.578 412.359C174.797 411.443 175.115 410.641 175.531 409.953C175.948 409.266 176.469 408.734 177.094 408.359C177.729 407.974 178.458 407.781 179.281 407.781C179.51 407.781 179.755 407.802 180.016 407.844C180.286 407.875 180.5 407.922 180.656 407.984ZM181.75 416.719V416.391C181.75 415.151 181.927 414.01 182.281 412.969C182.635 411.917 183.151 411.005 183.828 410.234C184.505 409.464 185.333 408.865 186.312 408.438C187.292 408 188.406 407.781 189.656 407.781C190.927 407.781 192.052 408 193.031 408.438C194.021 408.865 194.854 409.464 195.531 410.234C196.208 411.005 196.724 411.917 197.078 412.969C197.432 414.01 197.609 415.151 197.609 416.391V416.719C197.609 417.948 197.432 419.089 197.078 420.141C196.724 421.182 196.208 422.094 195.531 422.875C194.854 423.646 194.026 424.245 193.047 424.672C192.068 425.099 190.948 425.312 189.688 425.312C188.438 425.312 187.318 425.099 186.328 424.672C185.339 424.245 184.505 423.646 183.828 422.875C183.151 422.094 182.635 421.182 182.281 420.141C181.927 419.089 181.75 417.948 181.75 416.719ZM185.875 416.391V416.719C185.875 417.458 185.948 418.151 186.094 418.797C186.24 419.443 186.464 420.01 186.766 420.5C187.068 420.99 187.458 421.375 187.938 421.656C188.427 421.927 189.01 422.062 189.688 422.062C190.354 422.062 190.927 421.927 191.406 421.656C191.885 421.375 192.276 420.99 192.578 420.5C192.891 420.01 193.12 419.443 193.266 418.797C193.411 418.151 193.484 417.458 193.484 416.719V416.391C193.484 415.661 193.411 414.979 193.266 414.344C193.12 413.698 192.891 413.13 192.578 412.641C192.276 412.141 191.88 411.75 191.391 411.469C190.911 411.177 190.333 411.031 189.656 411.031C188.99 411.031 188.417 411.177 187.938 411.469C187.458 411.75 187.068 412.141 186.766 412.641C186.464 413.13 186.24 413.698 186.094 414.344C185.948 414.979 185.875 415.661 185.875 416.391ZM209.906 420.375C209.906 420.021 209.812 419.703 209.625 419.422C209.438 419.141 209.083 418.885 208.562 418.656C208.052 418.417 207.302 418.193 206.312 417.984C205.438 417.797 204.63 417.562 203.891 417.281C203.151 417 202.516 416.661 201.984 416.266C201.453 415.859 201.036 415.385 200.734 414.844C200.443 414.292 200.297 413.656 200.297 412.938C200.297 412.24 200.448 411.583 200.75 410.969C201.052 410.344 201.49 409.797 202.062 409.328C202.635 408.849 203.333 408.474 204.156 408.203C204.979 407.922 205.906 407.781 206.938 407.781C208.375 407.781 209.609 408.016 210.641 408.484C211.682 408.953 212.479 409.599 213.031 410.422C213.583 411.234 213.859 412.151 213.859 413.172H209.734C209.734 412.724 209.63 412.318 209.422 411.953C209.224 411.589 208.917 411.297 208.5 411.078C208.083 410.849 207.557 410.734 206.922 410.734C206.349 410.734 205.865 410.828 205.469 411.016C205.083 411.203 204.792 411.448 204.594 411.75C204.396 412.052 204.297 412.385 204.297 412.75C204.297 413.021 204.349 413.266 204.453 413.484C204.568 413.693 204.75 413.885 205 414.062C205.25 414.24 205.589 414.401 206.016 414.547C206.453 414.693 206.99 414.833 207.625 414.969C208.885 415.219 209.984 415.552 210.922 415.969C211.87 416.375 212.609 416.917 213.141 417.594C213.672 418.271 213.938 419.135 213.938 420.188C213.938 420.938 213.776 421.625 213.453 422.25C213.13 422.865 212.661 423.401 212.047 423.859C211.432 424.318 210.698 424.677 209.844 424.938C208.99 425.188 208.026 425.312 206.953 425.312C205.401 425.312 204.089 425.036 203.016 424.484C201.943 423.922 201.13 423.214 200.578 422.359C200.026 421.495 199.75 420.599 199.75 419.672H203.703C203.734 420.328 203.911 420.854 204.234 421.25C204.557 421.646 204.964 421.932 205.453 422.109C205.953 422.276 206.479 422.359 207.031 422.359C207.656 422.359 208.182 422.276 208.609 422.109C209.036 421.932 209.359 421.698 209.578 421.406C209.797 421.104 209.906 420.76 209.906 420.375ZM235.188 421.406V401H239.344V425H235.594L235.188 421.406ZM224.328 416.75V416.422C224.328 415.13 224.474 413.958 224.766 412.906C225.068 411.844 225.505 410.932 226.078 410.172C226.651 409.411 227.344 408.823 228.156 408.406C228.979 407.99 229.911 407.781 230.953 407.781C231.964 407.781 232.844 407.984 233.594 408.391C234.354 408.797 235 409.375 235.531 410.125C236.073 410.875 236.505 411.766 236.828 412.797C237.151 413.818 237.385 414.943 237.531 416.172V417.062C237.385 418.26 237.151 419.359 236.828 420.359C236.505 421.359 236.073 422.234 235.531 422.984C235 423.724 234.354 424.297 233.594 424.703C232.833 425.109 231.943 425.312 230.922 425.312C229.891 425.312 228.964 425.099 228.141 424.672C227.328 424.245 226.635 423.646 226.062 422.875C225.5 422.104 225.068 421.198 224.766 420.156C224.474 419.115 224.328 417.979 224.328 416.75ZM228.469 416.422V416.75C228.469 417.479 228.531 418.161 228.656 418.797C228.781 419.432 228.984 419.995 229.266 420.484C229.547 420.964 229.906 421.339 230.344 421.609C230.792 421.88 231.333 422.016 231.969 422.016C232.781 422.016 233.448 421.839 233.969 421.484C234.5 421.12 234.911 420.625 235.203 420C235.495 419.365 235.682 418.651 235.766 417.859V415.406C235.724 414.781 235.615 414.203 235.438 413.672C235.271 413.141 235.031 412.682 234.719 412.297C234.417 411.911 234.042 411.609 233.594 411.391C233.146 411.172 232.615 411.062 232 411.062C231.365 411.062 230.823 411.203 230.375 411.484C229.927 411.755 229.562 412.135 229.281 412.625C229 413.115 228.792 413.682 228.656 414.328C228.531 414.974 228.469 415.672 228.469 416.422ZM250.672 425.312C249.391 425.312 248.24 425.104 247.219 424.688C246.198 424.271 245.328 423.693 244.609 422.953C243.901 422.203 243.354 421.333 242.969 420.344C242.594 419.344 242.406 418.271 242.406 417.125V416.5C242.406 415.198 242.594 414.016 242.969 412.953C243.344 411.88 243.875 410.958 244.562 410.188C245.25 409.417 246.073 408.823 247.031 408.406C247.99 407.99 249.047 407.781 250.203 407.781C251.401 407.781 252.458 407.984 253.375 408.391C254.292 408.786 255.057 409.349 255.672 410.078C256.286 410.807 256.75 411.682 257.062 412.703C257.375 413.714 257.531 414.833 257.531 416.062V417.797H244.281V414.953H253.469V414.641C253.448 413.984 253.323 413.385 253.094 412.844C252.865 412.292 252.51 411.854 252.031 411.531C251.552 411.198 250.932 411.031 250.172 411.031C249.557 411.031 249.021 411.167 248.562 411.438C248.115 411.698 247.74 412.073 247.438 412.562C247.146 413.042 246.927 413.615 246.781 414.281C246.635 414.948 246.562 415.688 246.562 416.5V417.125C246.562 417.833 246.656 418.49 246.844 419.094C247.042 419.698 247.328 420.224 247.703 420.672C248.089 421.109 248.547 421.453 249.078 421.703C249.62 421.943 250.234 422.062 250.922 422.062C251.786 422.062 252.568 421.896 253.266 421.562C253.974 421.219 254.589 420.714 255.109 420.047L257.188 422.203C256.833 422.724 256.354 423.224 255.75 423.703C255.156 424.182 254.438 424.573 253.594 424.875C252.75 425.167 251.776 425.312 250.672 425.312ZM278.406 421.406V401H282.562V425H278.812L278.406 421.406ZM267.547 416.75V416.422C267.547 415.13 267.693 413.958 267.984 412.906C268.286 411.844 268.724 410.932 269.297 410.172C269.87 409.411 270.562 408.823 271.375 408.406C272.198 407.99 273.13 407.781 274.172 407.781C275.182 407.781 276.062 407.984 276.812 408.391C277.573 408.797 278.219 409.375 278.75 410.125C279.292 410.875 279.724 411.766 280.047 412.797C280.37 413.818 280.604 414.943 280.75 416.172V417.062C280.604 418.26 280.37 419.359 280.047 420.359C279.724 421.359 279.292 422.234 278.75 422.984C278.219 423.724 277.573 424.297 276.812 424.703C276.052 425.109 275.161 425.312 274.141 425.312C273.109 425.312 272.182 425.099 271.359 424.672C270.547 424.245 269.854 423.646 269.281 422.875C268.719 422.104 268.286 421.198 267.984 420.156C267.693 419.115 267.547 417.979 267.547 416.75ZM271.688 416.422V416.75C271.688 417.479 271.75 418.161 271.875 418.797C272 419.432 272.203 419.995 272.484 420.484C272.766 420.964 273.125 421.339 273.562 421.609C274.01 421.88 274.552 422.016 275.188 422.016C276 422.016 276.667 421.839 277.188 421.484C277.719 421.12 278.13 420.625 278.422 420C278.714 419.365 278.901 418.651 278.984 417.859V415.406C278.943 414.781 278.833 414.203 278.656 413.672C278.49 413.141 278.25 412.682 277.938 412.297C277.635 411.911 277.26 411.609 276.812 411.391C276.365 411.172 275.833 411.062 275.219 411.062C274.583 411.062 274.042 411.203 273.594 411.484C273.146 411.755 272.781 412.135 272.5 412.625C272.219 413.115 272.01 413.682 271.875 414.328C271.75 414.974 271.688 415.672 271.688 416.422ZM285.562 416.719V416.391C285.562 415.151 285.74 414.01 286.094 412.969C286.448 411.917 286.964 411.005 287.641 410.234C288.318 409.464 289.146 408.865 290.125 408.438C291.104 408 292.219 407.781 293.469 407.781C294.74 407.781 295.865 408 296.844 408.438C297.833 408.865 298.667 409.464 299.344 410.234C300.021 411.005 300.536 411.917 300.891 412.969C301.245 414.01 301.422 415.151 301.422 416.391V416.719C301.422 417.948 301.245 419.089 300.891 420.141C300.536 421.182 300.021 422.094 299.344 422.875C298.667 423.646 297.839 424.245 296.859 424.672C295.88 425.099 294.76 425.312 293.5 425.312C292.25 425.312 291.13 425.099 290.141 424.672C289.151 424.245 288.318 423.646 287.641 422.875C286.964 422.094 286.448 421.182 286.094 420.141C285.74 419.089 285.562 417.948 285.562 416.719ZM289.688 416.391V416.719C289.688 417.458 289.76 418.151 289.906 418.797C290.052 419.443 290.276 420.01 290.578 420.5C290.88 420.99 291.271 421.375 291.75 421.656C292.24 421.927 292.823 422.062 293.5 422.062C294.167 422.062 294.74 421.927 295.219 421.656C295.698 421.375 296.089 420.99 296.391 420.5C296.703 420.01 296.932 419.443 297.078 418.797C297.224 418.151 297.297 417.458 297.297 416.719V416.391C297.297 415.661 297.224 414.979 297.078 414.344C296.932 413.698 296.703 413.13 296.391 412.641C296.089 412.141 295.693 411.75 295.203 411.469C294.724 411.177 294.146 411.031 293.469 411.031C292.802 411.031 292.229 411.177 291.75 411.469C291.271 411.75 290.88 412.141 290.578 412.641C290.276 413.13 290.052 413.698 289.906 414.344C289.76 414.979 289.688 415.661 289.688 416.391ZM313.734 421.406V413.609C313.734 413.036 313.635 412.542 313.438 412.125C313.24 411.708 312.938 411.385 312.531 411.156C312.125 410.927 311.609 410.812 310.984 410.812C310.432 410.812 309.948 410.906 309.531 411.094C309.125 411.281 308.812 411.547 308.594 411.891C308.375 412.224 308.266 412.609 308.266 413.047H304.125C304.125 412.349 304.292 411.688 304.625 411.062C304.958 410.427 305.432 409.865 306.047 409.375C306.672 408.875 307.417 408.484 308.281 408.203C309.156 407.922 310.135 407.781 311.219 407.781C312.5 407.781 313.641 408 314.641 408.438C315.651 408.865 316.443 409.51 317.016 410.375C317.599 411.24 317.891 412.328 317.891 413.641V421.016C317.891 421.859 317.943 422.583 318.047 423.188C318.161 423.781 318.328 424.297 318.547 424.734V425H314.344C314.146 424.573 313.995 424.031 313.891 423.375C313.786 422.708 313.734 422.052 313.734 421.406ZM314.312 414.703L314.344 417.156H311.734C311.089 417.156 310.521 417.224 310.031 417.359C309.542 417.484 309.141 417.672 308.828 417.922C308.516 418.161 308.281 418.453 308.125 418.797C307.969 419.13 307.891 419.51 307.891 419.938C307.891 420.354 307.984 420.729 308.172 421.062C308.37 421.396 308.651 421.661 309.016 421.859C309.391 422.047 309.828 422.141 310.328 422.141C311.057 422.141 311.693 421.995 312.234 421.703C312.776 421.401 313.198 421.036 313.5 420.609C313.802 420.182 313.964 419.776 313.984 419.391L315.172 421.172C315.026 421.599 314.807 422.052 314.516 422.531C314.224 423.01 313.849 423.458 313.391 423.875C312.932 424.292 312.38 424.635 311.734 424.906C311.089 425.177 310.339 425.312 309.484 425.312C308.391 425.312 307.411 425.094 306.547 424.656C305.682 424.219 305 423.62 304.5 422.859C304 422.099 303.75 421.234 303.75 420.266C303.75 419.37 303.917 418.578 304.25 417.891C304.583 417.203 305.078 416.625 305.734 416.156C306.391 415.677 307.203 415.318 308.172 415.078C309.151 414.828 310.271 414.703 311.531 414.703H314.312ZM328.547 422.062C329.13 422.062 329.651 421.948 330.109 421.719C330.568 421.49 330.932 421.167 331.203 420.75C331.484 420.333 331.635 419.849 331.656 419.297H335.547C335.526 420.443 335.203 421.469 334.578 422.375C333.953 423.281 333.12 424 332.078 424.531C331.047 425.052 329.891 425.312 328.609 425.312C327.307 425.312 326.172 425.094 325.203 424.656C324.234 424.219 323.427 423.609 322.781 422.828C322.146 422.047 321.667 421.141 321.344 420.109C321.031 419.078 320.875 417.974 320.875 416.797V416.297C320.875 415.12 321.031 414.016 321.344 412.984C321.667 411.953 322.146 411.047 322.781 410.266C323.427 409.484 324.234 408.875 325.203 408.438C326.172 408 327.302 407.781 328.594 407.781C329.958 407.781 331.156 408.047 332.188 408.578C333.229 409.109 334.042 409.859 334.625 410.828C335.219 411.797 335.526 412.938 335.547 414.25H331.656C331.635 413.646 331.5 413.104 331.25 412.625C331 412.146 330.646 411.76 330.188 411.469C329.729 411.177 329.172 411.031 328.516 411.031C327.818 411.031 327.234 411.177 326.766 411.469C326.307 411.76 325.948 412.161 325.688 412.672C325.438 413.172 325.26 413.734 325.156 414.359C325.062 414.974 325.016 415.62 325.016 416.297V416.797C325.016 417.484 325.062 418.141 325.156 418.766C325.26 419.391 325.438 419.953 325.688 420.453C325.948 420.943 326.307 421.333 326.766 421.625C327.234 421.917 327.828 422.062 328.547 422.062ZM326.875 425H329.953L329.781 425.891C330.375 425.995 330.917 426.245 331.406 426.641C331.896 427.036 332.141 427.688 332.141 428.594C332.141 429.135 332.026 429.625 331.797 430.062C331.578 430.5 331.245 430.875 330.797 431.188C330.349 431.51 329.792 431.755 329.125 431.922C328.469 432.089 327.703 432.172 326.828 432.172L326.719 429.859C327.094 429.859 327.427 429.812 327.719 429.719C328.021 429.625 328.255 429.474 328.422 429.266C328.599 429.068 328.688 428.812 328.688 428.5C328.688 428.188 328.609 427.943 328.453 427.766C328.297 427.599 328.047 427.469 327.703 427.375C327.37 427.292 326.932 427.234 326.391 427.203L326.875 425ZM347.609 421.406V413.609C347.609 413.036 347.51 412.542 347.312 412.125C347.115 411.708 346.812 411.385 346.406 411.156C346 410.927 345.484 410.812 344.859 410.812C344.307 410.812 343.823 410.906 343.406 411.094C343 411.281 342.688 411.547 342.469 411.891C342.25 412.224 342.141 412.609 342.141 413.047H338C338 412.349 338.167 411.688 338.5 411.062C338.833 410.427 339.307 409.865 339.922 409.375C340.547 408.875 341.292 408.484 342.156 408.203C343.031 407.922 344.01 407.781 345.094 407.781C346.375 407.781 347.516 408 348.516 408.438C349.526 408.865 350.318 409.51 350.891 410.375C351.474 411.24 351.766 412.328 351.766 413.641V421.016C351.766 421.859 351.818 422.583 351.922 423.188C352.036 423.781 352.203 424.297 352.422 424.734V425H348.219C348.021 424.573 347.87 424.031 347.766 423.375C347.661 422.708 347.609 422.052 347.609 421.406ZM348.188 414.703L348.219 417.156H345.609C344.964 417.156 344.396 417.224 343.906 417.359C343.417 417.484 343.016 417.672 342.703 417.922C342.391 418.161 342.156 418.453 342 418.797C341.844 419.13 341.766 419.51 341.766 419.938C341.766 420.354 341.859 420.729 342.047 421.062C342.245 421.396 342.526 421.661 342.891 421.859C343.266 422.047 343.703 422.141 344.203 422.141C344.932 422.141 345.568 421.995 346.109 421.703C346.651 421.401 347.073 421.036 347.375 420.609C347.677 420.182 347.839 419.776 347.859 419.391L349.047 421.172C348.901 421.599 348.682 422.052 348.391 422.531C348.099 423.01 347.724 423.458 347.266 423.875C346.807 424.292 346.255 424.635 345.609 424.906C344.964 425.177 344.214 425.312 343.359 425.312C342.266 425.312 341.286 425.094 340.422 424.656C339.557 424.219 338.875 423.62 338.375 422.859C337.875 422.099 337.625 421.234 337.625 420.266C337.625 419.37 337.792 418.578 338.125 417.891C338.458 417.203 338.953 416.625 339.609 416.156C340.266 415.677 341.078 415.318 342.047 415.078C343.026 414.828 344.146 414.703 345.406 414.703H348.188ZM348.5 401.141L350.953 401.312C350.953 402.073 350.797 402.76 350.484 403.375C350.182 403.979 349.771 404.458 349.25 404.812C348.729 405.167 348.13 405.344 347.453 405.344C346.953 405.344 346.521 405.276 346.156 405.141C345.802 405.005 345.474 404.844 345.172 404.656C344.88 404.469 344.578 404.307 344.266 404.172C343.953 404.026 343.589 403.953 343.172 403.953C342.797 403.953 342.474 404.094 342.203 404.375C341.943 404.656 341.812 405.036 341.812 405.516L339.344 405.391C339.344 404.641 339.495 403.958 339.797 403.344C340.099 402.729 340.51 402.24 341.031 401.875C341.562 401.51 342.167 401.328 342.844 401.328C343.271 401.328 343.656 401.396 344 401.531C344.354 401.667 344.693 401.828 345.016 402.016C345.339 402.193 345.667 402.354 346 402.5C346.344 402.635 346.714 402.703 347.109 402.703C347.495 402.703 347.823 402.562 348.094 402.281C348.365 402 348.5 401.62 348.5 401.141ZM354.75 416.719V416.391C354.75 415.151 354.927 414.01 355.281 412.969C355.635 411.917 356.151 411.005 356.828 410.234C357.505 409.464 358.333 408.865 359.312 408.438C360.292 408 361.406 407.781 362.656 407.781C363.927 407.781 365.052 408 366.031 408.438C367.021 408.865 367.854 409.464 368.531 410.234C369.208 411.005 369.724 411.917 370.078 412.969C370.432 414.01 370.609 415.151 370.609 416.391V416.719C370.609 417.948 370.432 419.089 370.078 420.141C369.724 421.182 369.208 422.094 368.531 422.875C367.854 423.646 367.026 424.245 366.047 424.672C365.068 425.099 363.948 425.312 362.688 425.312C361.438 425.312 360.318 425.099 359.328 424.672C358.339 424.245 357.505 423.646 356.828 422.875C356.151 422.094 355.635 421.182 355.281 420.141C354.927 419.089 354.75 417.948 354.75 416.719ZM358.875 416.391V416.719C358.875 417.458 358.948 418.151 359.094 418.797C359.24 419.443 359.464 420.01 359.766 420.5C360.068 420.99 360.458 421.375 360.938 421.656C361.427 421.927 362.01 422.062 362.688 422.062C363.354 422.062 363.927 421.927 364.406 421.656C364.885 421.375 365.276 420.99 365.578 420.5C365.891 420.01 366.12 419.443 366.266 418.797C366.411 418.151 366.484 417.458 366.484 416.719V416.391C366.484 415.661 366.411 414.979 366.266 414.344C366.12 413.698 365.891 413.13 365.578 412.641C365.276 412.141 364.88 411.75 364.391 411.469C363.911 411.177 363.333 411.031 362.656 411.031C361.99 411.031 361.417 411.177 360.938 411.469C360.458 411.75 360.068 412.141 359.766 412.641C359.464 413.13 359.24 413.698 359.094 414.344C358.948 414.979 358.875 415.661 358.875 416.391ZM391.719 421.406V401H395.875V425H392.125L391.719 421.406ZM380.859 416.75V416.422C380.859 415.13 381.005 413.958 381.297 412.906C381.599 411.844 382.036 410.932 382.609 410.172C383.182 409.411 383.875 408.823 384.688 408.406C385.51 407.99 386.443 407.781 387.484 407.781C388.495 407.781 389.375 407.984 390.125 408.391C390.885 408.797 391.531 409.375 392.062 410.125C392.604 410.875 393.036 411.766 393.359 412.797C393.682 413.818 393.917 414.943 394.062 416.172V417.062C393.917 418.26 393.682 419.359 393.359 420.359C393.036 421.359 392.604 422.234 392.062 422.984C391.531 423.724 390.885 424.297 390.125 424.703C389.365 425.109 388.474 425.312 387.453 425.312C386.422 425.312 385.495 425.099 384.672 424.672C383.859 424.245 383.167 423.646 382.594 422.875C382.031 422.104 381.599 421.198 381.297 420.156C381.005 419.115 380.859 417.979 380.859 416.75ZM385 416.422V416.75C385 417.479 385.062 418.161 385.188 418.797C385.312 419.432 385.516 419.995 385.797 420.484C386.078 420.964 386.438 421.339 386.875 421.609C387.323 421.88 387.865 422.016 388.5 422.016C389.312 422.016 389.979 421.839 390.5 421.484C391.031 421.12 391.443 420.625 391.734 420C392.026 419.365 392.214 418.651 392.297 417.859V415.406C392.255 414.781 392.146 414.203 391.969 413.672C391.802 413.141 391.562 412.682 391.25 412.297C390.948 411.911 390.573 411.609 390.125 411.391C389.677 411.172 389.146 411.062 388.531 411.062C387.896 411.062 387.354 411.203 386.906 411.484C386.458 411.755 386.094 412.135 385.812 412.625C385.531 413.115 385.323 413.682 385.188 414.328C385.062 414.974 385 415.672 385 416.422ZM407.203 425.312C405.922 425.312 404.771 425.104 403.75 424.688C402.729 424.271 401.859 423.693 401.141 422.953C400.432 422.203 399.885 421.333 399.5 420.344C399.125 419.344 398.938 418.271 398.938 417.125V416.5C398.938 415.198 399.125 414.016 399.5 412.953C399.875 411.88 400.406 410.958 401.094 410.188C401.781 409.417 402.604 408.823 403.562 408.406C404.521 407.99 405.578 407.781 406.734 407.781C407.932 407.781 408.99 407.984 409.906 408.391C410.823 408.786 411.589 409.349 412.203 410.078C412.818 410.807 413.281 411.682 413.594 412.703C413.906 413.714 414.062 414.833 414.062 416.062V417.797H400.812V414.953H410V414.641C409.979 413.984 409.854 413.385 409.625 412.844C409.396 412.292 409.042 411.854 408.562 411.531C408.083 411.198 407.464 411.031 406.703 411.031C406.089 411.031 405.552 411.167 405.094 411.438C404.646 411.698 404.271 412.073 403.969 412.562C403.677 413.042 403.458 413.615 403.312 414.281C403.167 414.948 403.094 415.688 403.094 416.5V417.125C403.094 417.833 403.188 418.49 403.375 419.094C403.573 419.698 403.859 420.224 404.234 420.672C404.62 421.109 405.078 421.453 405.609 421.703C406.151 421.943 406.766 422.062 407.453 422.062C408.318 422.062 409.099 421.896 409.797 421.562C410.505 421.219 411.12 420.714 411.641 420.047L413.719 422.203C413.365 422.724 412.885 423.224 412.281 423.703C411.688 424.182 410.969 424.573 410.125 424.875C409.281 425.167 408.307 425.312 407.203 425.312ZM434.094 420.375C434.094 420.021 434 419.703 433.812 419.422C433.625 419.141 433.271 418.885 432.75 418.656C432.24 418.417 431.49 418.193 430.5 417.984C429.625 417.797 428.818 417.562 428.078 417.281C427.339 417 426.703 416.661 426.172 416.266C425.641 415.859 425.224 415.385 424.922 414.844C424.63 414.292 424.484 413.656 424.484 412.938C424.484 412.24 424.635 411.583 424.938 410.969C425.24 410.344 425.677 409.797 426.25 409.328C426.823 408.849 427.521 408.474 428.344 408.203C429.167 407.922 430.094 407.781 431.125 407.781C432.562 407.781 433.797 408.016 434.828 408.484C435.87 408.953 436.667 409.599 437.219 410.422C437.771 411.234 438.047 412.151 438.047 413.172H433.922C433.922 412.724 433.818 412.318 433.609 411.953C433.411 411.589 433.104 411.297 432.688 411.078C432.271 410.849 431.745 410.734 431.109 410.734C430.536 410.734 430.052 410.828 429.656 411.016C429.271 411.203 428.979 411.448 428.781 411.75C428.583 412.052 428.484 412.385 428.484 412.75C428.484 413.021 428.536 413.266 428.641 413.484C428.755 413.693 428.938 413.885 429.188 414.062C429.438 414.24 429.776 414.401 430.203 414.547C430.641 414.693 431.177 414.833 431.812 414.969C433.073 415.219 434.172 415.552 435.109 415.969C436.057 416.375 436.797 416.917 437.328 417.594C437.859 418.271 438.125 419.135 438.125 420.188C438.125 420.938 437.964 421.625 437.641 422.25C437.318 422.865 436.849 423.401 436.234 423.859C435.62 424.318 434.885 424.677 434.031 424.938C433.177 425.188 432.214 425.312 431.141 425.312C429.589 425.312 428.276 425.036 427.203 424.484C426.13 423.922 425.318 423.214 424.766 422.359C424.214 421.495 423.938 420.599 423.938 419.672H427.891C427.922 420.328 428.099 420.854 428.422 421.25C428.745 421.646 429.151 421.932 429.641 422.109C430.141 422.276 430.667 422.359 431.219 422.359C431.844 422.359 432.37 422.276 432.797 422.109C433.224 421.932 433.547 421.698 433.766 421.406C433.984 421.104 434.094 420.76 434.094 420.375ZM450.578 421.406V413.609C450.578 413.036 450.479 412.542 450.281 412.125C450.083 411.708 449.781 411.385 449.375 411.156C448.969 410.927 448.453 410.812 447.828 410.812C447.276 410.812 446.792 410.906 446.375 411.094C445.969 411.281 445.656 411.547 445.438 411.891C445.219 412.224 445.109 412.609 445.109 413.047H440.969C440.969 412.349 441.135 411.688 441.469 411.062C441.802 410.427 442.276 409.865 442.891 409.375C443.516 408.875 444.26 408.484 445.125 408.203C446 407.922 446.979 407.781 448.062 407.781C449.344 407.781 450.484 408 451.484 408.438C452.495 408.865 453.286 409.51 453.859 410.375C454.443 411.24 454.734 412.328 454.734 413.641V421.016C454.734 421.859 454.786 422.583 454.891 423.188C455.005 423.781 455.172 424.297 455.391 424.734V425H451.188C450.99 424.573 450.839 424.031 450.734 423.375C450.63 422.708 450.578 422.052 450.578 421.406ZM451.156 414.703L451.188 417.156H448.578C447.932 417.156 447.365 417.224 446.875 417.359C446.385 417.484 445.984 417.672 445.672 417.922C445.359 418.161 445.125 418.453 444.969 418.797C444.812 419.13 444.734 419.51 444.734 419.938C444.734 420.354 444.828 420.729 445.016 421.062C445.214 421.396 445.495 421.661 445.859 421.859C446.234 422.047 446.672 422.141 447.172 422.141C447.901 422.141 448.536 421.995 449.078 421.703C449.62 421.401 450.042 421.036 450.344 420.609C450.646 420.182 450.807 419.776 450.828 419.391L452.016 421.172C451.87 421.599 451.651 422.052 451.359 422.531C451.068 423.01 450.693 423.458 450.234 423.875C449.776 424.292 449.224 424.635 448.578 424.906C447.932 425.177 447.182 425.312 446.328 425.312C445.234 425.312 444.255 425.094 443.391 424.656C442.526 424.219 441.844 423.62 441.344 422.859C440.844 422.099 440.594 421.234 440.594 420.266C440.594 419.37 440.76 418.578 441.094 417.891C441.427 417.203 441.922 416.625 442.578 416.156C443.234 415.677 444.047 415.318 445.016 415.078C445.995 414.828 447.115 414.703 448.375 414.703H451.156ZM462.5 411.703V425H458.375V408.094H462.25L462.5 411.703ZM461.844 415.938H460.625C460.635 414.708 460.802 413.594 461.125 412.594C461.448 411.594 461.901 410.734 462.484 410.016C463.078 409.297 463.781 408.745 464.594 408.359C465.406 407.974 466.312 407.781 467.312 407.781C468.125 407.781 468.859 407.896 469.516 408.125C470.172 408.354 470.734 408.719 471.203 409.219C471.682 409.719 472.047 410.375 472.297 411.188C472.557 411.99 472.688 412.979 472.688 414.156V425H468.531V414.125C468.531 413.354 468.417 412.745 468.188 412.297C467.969 411.849 467.646 411.531 467.219 411.344C466.802 411.156 466.286 411.062 465.672 411.062C465.036 411.062 464.479 411.193 464 411.453C463.531 411.703 463.135 412.052 462.812 412.5C462.5 412.948 462.26 413.464 462.094 414.047C461.927 414.63 461.844 415.26 461.844 415.938ZM487.078 408.094H490.828V424.484C490.828 426.016 490.495 427.312 489.828 428.375C489.172 429.448 488.25 430.26 487.062 430.812C485.875 431.375 484.495 431.656 482.922 431.656C482.245 431.656 481.51 431.562 480.719 431.375C479.938 431.188 479.182 430.891 478.453 430.484C477.734 430.089 477.135 429.573 476.656 428.938L478.516 426.5C479.078 427.156 479.714 427.651 480.422 427.984C481.13 428.328 481.896 428.5 482.719 428.5C483.552 428.5 484.26 428.344 484.844 428.031C485.438 427.729 485.891 427.281 486.203 426.688C486.526 426.104 486.688 425.385 486.688 424.531V411.953L487.078 408.094ZM475.656 416.75V416.422C475.656 415.13 475.812 413.958 476.125 412.906C476.438 411.844 476.885 410.932 477.469 410.172C478.062 409.411 478.776 408.823 479.609 408.406C480.453 407.99 481.401 407.781 482.453 407.781C483.568 407.781 484.505 407.984 485.266 408.391C486.036 408.797 486.672 409.375 487.172 410.125C487.682 410.875 488.078 411.766 488.359 412.797C488.651 413.818 488.875 414.943 489.031 416.172V417.062C488.885 418.26 488.651 419.359 488.328 420.359C488.016 421.359 487.599 422.234 487.078 422.984C486.557 423.724 485.911 424.297 485.141 424.703C484.37 425.109 483.464 425.312 482.422 425.312C481.38 425.312 480.443 425.099 479.609 424.672C478.776 424.245 478.062 423.646 477.469 422.875C476.885 422.104 476.438 421.198 476.125 420.156C475.812 419.115 475.656 417.979 475.656 416.75ZM479.781 416.422V416.75C479.781 417.479 479.854 418.161 480 418.797C480.146 419.432 480.37 419.995 480.672 420.484C480.974 420.964 481.354 421.339 481.812 421.609C482.271 421.88 482.818 422.016 483.453 422.016C484.307 422.016 485.005 421.839 485.547 421.484C486.099 421.12 486.516 420.625 486.797 420C487.089 419.365 487.276 418.651 487.359 417.859V415.406C487.307 414.781 487.193 414.203 487.016 413.672C486.849 413.141 486.615 412.682 486.312 412.297C486.01 411.911 485.625 411.609 485.156 411.391C484.688 411.172 484.13 411.062 483.484 411.062C482.859 411.062 482.312 411.203 481.844 411.484C481.375 411.755 480.99 412.135 480.688 412.625C480.385 413.115 480.156 413.682 480 414.328C479.854 414.974 479.781 415.672 479.781 416.422ZM504.609 420.984V408.094H508.766V425H504.859L504.609 420.984ZM505.141 417.484L506.422 417.453C506.422 418.589 506.297 419.635 506.047 420.594C505.797 421.552 505.406 422.385 504.875 423.094C504.354 423.792 503.693 424.339 502.891 424.734C502.089 425.12 501.141 425.312 500.047 425.312C499.214 425.312 498.453 425.198 497.766 424.969C497.078 424.729 496.484 424.359 495.984 423.859C495.495 423.349 495.115 422.698 494.844 421.906C494.573 421.104 494.438 420.141 494.438 419.016V408.094H498.562V419.047C498.562 419.609 498.625 420.078 498.75 420.453C498.885 420.828 499.068 421.135 499.297 421.375C499.536 421.604 499.812 421.771 500.125 421.875C500.448 421.969 500.792 422.016 501.156 422.016C502.156 422.016 502.943 421.818 503.516 421.422C504.099 421.016 504.516 420.474 504.766 419.797C505.016 419.109 505.141 418.339 505.141 417.484ZM520.016 425.312C518.734 425.312 517.583 425.104 516.562 424.688C515.542 424.271 514.672 423.693 513.953 422.953C513.245 422.203 512.698 421.333 512.312 420.344C511.938 419.344 511.75 418.271 511.75 417.125V416.5C511.75 415.198 511.938 414.016 512.312 412.953C512.688 411.88 513.219 410.958 513.906 410.188C514.594 409.417 515.417 408.823 516.375 408.406C517.333 407.99 518.391 407.781 519.547 407.781C520.745 407.781 521.802 407.984 522.719 408.391C523.635 408.786 524.401 409.349 525.016 410.078C525.63 410.807 526.094 411.682 526.406 412.703C526.719 413.714 526.875 414.833 526.875 416.062V417.797H513.625V414.953H522.812V414.641C522.792 413.984 522.667 413.385 522.438 412.844C522.208 412.292 521.854 411.854 521.375 411.531C520.896 411.198 520.276 411.031 519.516 411.031C518.901 411.031 518.365 411.167 517.906 411.438C517.458 411.698 517.083 412.073 516.781 412.562C516.49 413.042 516.271 413.615 516.125 414.281C515.979 414.948 515.906 415.688 515.906 416.5V417.125C515.906 417.833 516 418.49 516.188 419.094C516.385 419.698 516.672 420.224 517.047 420.672C517.432 421.109 517.891 421.453 518.422 421.703C518.964 421.943 519.578 422.062 520.266 422.062C521.13 422.062 521.911 421.896 522.609 421.562C523.318 421.219 523.932 420.714 524.453 420.047L526.531 422.203C526.177 422.724 525.698 423.224 525.094 423.703C524.5 424.182 523.781 424.573 522.938 424.875C522.094 425.167 521.12 425.312 520.016 425.312ZM529.812 422.984C529.812 422.359 530.026 421.833 530.453 421.406C530.88 420.979 531.458 420.766 532.188 420.766C532.917 420.766 533.495 420.979 533.922 421.406C534.349 421.833 534.562 422.359 534.562 422.984C534.562 423.599 534.349 424.12 533.922 424.547C533.495 424.964 532.917 425.172 532.188 425.172C531.458 425.172 530.88 424.964 530.453 424.547C530.026 424.12 529.812 423.599 529.812 422.984Z" fill="#FAF1F1"/>
</svg>
