<svg width="300" height="425" viewBox="0 0 300 425" fill="none" xmlns="http://www.w3.org/2000/svg">
<g clip-path="url(#clip0_98_7212)">
<path d="M4.12352e-06 423.694C-0.000356337 423.814 0.0229191 423.933 0.0684919 424.044C0.114065 424.155 0.181047 424.256 0.265614 424.341C0.350182 424.426 0.450658 424.494 0.561345 424.54C0.672032 424.586 0.79076 424.61 0.910715 424.611H299.084C299.327 424.611 299.56 424.514 299.732 424.342C299.903 424.17 300 423.937 300 423.694C300 423.451 299.903 423.218 299.732 423.047C299.56 422.875 299.327 422.778 299.084 422.778H0.916166C0.796207 422.778 0.677336 422.801 0.566373 422.847C0.45541 422.892 0.354518 422.959 0.269444 423.044C0.18437 423.128 0.116791 423.229 0.0705594 423.34C0.0243275 423.45 0.00035544 423.569 4.12352e-06 423.689V423.694Z" fill="#CCCCCC"/>
<path opacity="0.5" d="M119.156 298.219C122.405 297.562 125.732 297.381 129.032 297.683C129.338 297.681 129.63 297.558 129.846 297.342C130.062 297.126 130.185 296.834 130.187 296.528C130.181 296.224 130.057 295.934 129.842 295.718C129.626 295.503 129.336 295.379 129.032 295.373C125.524 295.069 121.99 295.278 118.542 295.992C118.247 296.073 117.997 296.269 117.846 296.535C117.695 296.802 117.655 297.117 117.737 297.412C117.818 297.707 118.013 297.958 118.28 298.109C118.546 298.261 118.861 298.3 119.156 298.219Z" fill="#CCCCCC"/>
<path d="M39.877 278.13C33.5264 269.683 29.8559 260.237 29.7356 249.468C29.531 248.888 29.565 248.25 29.83 247.695C30.0951 247.139 30.5696 246.712 31.1495 246.506L52.7957 238.847C53.376 238.642 54.0138 238.676 54.5692 238.941C55.1245 239.206 55.5521 239.681 55.758 240.261L65.8994 268.923C66.104 269.503 66.0701 270.141 65.805 270.696C65.5399 271.252 65.0654 271.679 64.4855 271.885L42.8393 279.544C42.259 279.749 41.6211 279.715 41.0658 279.45C40.5104 279.185 40.0829 278.71 39.877 278.13Z" fill="#F2F2F2"/>
<path opacity="0.2" d="M44.764 277.619C44.1837 277.824 43.5459 277.79 42.9905 277.525C42.4352 277.26 42.0076 276.785 41.8017 276.206C35.4511 267.759 31.7806 258.313 31.6603 247.544C31.5278 247.162 31.4986 246.752 31.5755 246.355L31.1495 246.506C30.5696 246.712 30.0951 247.139 29.83 247.695C29.565 248.25 29.531 248.888 29.7356 249.468C29.8559 260.237 33.5264 269.683 39.877 278.13C40.0829 278.71 40.5105 279.185 41.0658 279.45C41.6212 279.715 42.259 279.749 42.8393 279.544L64.4855 271.885C64.8695 271.748 65.2104 271.511 65.4736 271.2C65.7368 270.888 65.913 270.513 65.9842 270.111L44.764 277.619Z" fill="black"/>
<path d="M54.9052 256.167L40.4139 261.339C40.1833 261.421 39.9294 261.409 39.7082 261.304C39.4869 261.199 39.3163 261.011 39.234 260.78C39.1517 260.549 39.1644 260.296 39.2692 260.074C39.3741 259.853 39.5625 259.683 39.7931 259.6L54.2844 254.428C54.5148 254.346 54.7682 254.359 54.989 254.464C55.2097 254.569 55.3798 254.757 55.462 254.987C55.5442 255.218 55.5317 255.471 55.4273 255.692C55.3229 255.913 55.1352 256.084 54.9052 256.167Z" fill="white"/>
<path d="M41.8999 255.433L38.7118 256.571C38.5977 256.612 38.4766 256.631 38.3554 256.625C38.2342 256.619 38.1152 256.59 38.0054 256.539C37.8955 256.487 37.7969 256.414 37.7152 256.325C37.6335 256.235 37.5702 256.13 37.5291 256.016C37.4879 255.902 37.4697 255.781 37.4754 255.659C37.4811 255.538 37.5106 255.419 37.5623 255.31C37.614 255.2 37.6868 255.101 37.7766 255.02C37.8664 254.938 37.9714 254.875 38.0856 254.834L38.0911 254.832L41.2792 253.694C41.5096 253.613 41.7628 253.626 41.9835 253.731C42.2041 253.836 42.3742 254.024 42.4563 254.254C42.5385 254.484 42.526 254.737 42.4217 254.958C42.3174 255.179 42.1298 255.35 41.8999 255.433Z" fill="white"/>
<path d="M57.6339 263.811L43.1426 268.984C42.9122 269.065 42.659 269.052 42.4383 268.947C42.2177 268.842 42.0476 268.654 41.9655 268.424C41.8833 268.194 41.8958 267.941 42.0001 267.72C42.1044 267.499 42.292 267.328 42.5219 267.245L57.0132 262.072C57.2435 261.99 57.4971 262.002 57.7185 262.106C57.9398 262.21 58.1108 262.398 58.1937 262.628C58.2767 262.858 58.2649 263.112 58.161 263.334C58.0571 263.555 57.8695 263.726 57.6394 263.809L57.6339 263.811Z" fill="white"/>
<path d="M56.2695 259.989L41.7782 265.162C41.5477 265.244 41.2938 265.232 41.0725 265.127C40.8511 265.023 40.6803 264.834 40.5977 264.604C40.5151 264.373 40.5275 264.12 40.632 263.898C40.7366 263.677 40.9249 263.506 41.1554 263.423L41.1575 263.423L55.6488 258.25C55.8792 258.168 56.1325 258.182 56.3533 258.287C56.5741 258.391 56.7442 258.58 56.8263 258.81C56.9085 259.04 56.896 259.294 56.7916 259.515C56.6873 259.736 56.4995 259.906 56.2695 259.989Z" fill="white"/>
<path d="M41.3963 246.802C43.5223 246.802 45.2457 245.079 45.2457 242.953C45.2457 240.827 43.5223 239.104 41.3963 239.104C39.2703 239.104 37.5469 240.827 37.5469 242.953C37.5469 245.079 39.2703 246.802 41.3963 246.802Z" fill="#CCCCCC"/>
<path d="M182.285 76.6893C182.346 82.3248 184.14 94.0578 182.854 99.5778L182.647 99.1159C181.578 99.9631 180.442 100.723 179.251 101.387C178.392 99.2975 177.108 97.4097 175.479 95.8439C175.693 98.4344 175.387 101.042 174.578 103.512C169.766 105.244 161.321 99.7857 156.086 99.6702C147.663 99.4778 139.456 97.3837 131.411 95.1664C128.555 94.3811 125.414 93.3572 124.12 90.986C122.827 88.6147 125.142 86.0552 124.99 83.3795C123.911 64.3206 132.989 61.1259 141.627 56.0333C143.528 54.9126 144.46 52.4996 146.608 51.5603C149.588 50.2592 153.137 50.8828 156.378 51.5372C155.573 51.272 154.85 50.8041 154.278 50.1784C153.707 49.5528 153.306 48.7905 153.114 47.9649C152.979 47.1558 153.07 46.325 153.377 45.5642C153.684 44.8035 154.195 44.1423 154.854 43.6536C156.64 42.2755 159.304 42.1062 161.583 42.6913C163.784 43.3797 165.867 44.4028 167.757 45.7246C169.041 46.4287 170.188 47.3569 171.145 48.4654C171.595 48.9899 171.875 49.6396 171.947 50.3275C172.018 51.0154 171.878 51.7087 171.545 52.3148C171.134 52.8343 170.611 53.2544 170.015 53.5437C169.419 53.8329 168.766 53.9839 168.103 53.9854C167.083 54.0151 166.063 53.909 165.07 53.6698C169.62 54.7922 173.721 57.2735 176.826 60.7835C180.683 65.2719 182.215 71.0537 182.285 76.6893Z" fill="#2F2E41"/>
<path d="M47.7097 131C48.4925 132.662 49.8928 133.952 51.6126 134.597C53.3324 135.242 55.236 135.19 56.9183 134.453C57.2579 134.298 57.5841 134.115 57.8935 133.906L77.7171 148.471L88.6467 141.012L59.3336 123.996C58.3674 122.78 57.026 121.919 55.5186 121.545C54.0112 121.172 52.4226 121.308 51.0008 121.933C50.1952 122.296 49.469 122.814 48.8637 123.458C48.2583 124.102 47.7858 124.859 47.4729 125.685C47.16 126.512 47.013 127.391 47.0402 128.275C47.0674 129.158 47.2683 130.027 47.6315 130.833C47.6567 130.889 47.6828 130.945 47.7097 131Z" fill="#FFB6B6"/>
<path d="M252.028 117.782C250.206 118.01 248.544 118.939 247.396 120.373C246.248 121.807 245.705 123.632 245.882 125.46C245.924 125.831 245.996 126.198 246.099 126.557L226.09 140.866L229.779 153.574L255.069 131.009C256.525 130.469 257.761 129.462 258.585 128.145C259.409 126.829 259.773 125.277 259.622 123.731C259.527 122.852 259.261 122.001 258.837 121.225C258.414 120.45 257.842 119.765 257.153 119.211C256.465 118.656 255.675 118.243 254.827 117.994C253.979 117.745 253.09 117.666 252.212 117.76C252.15 117.767 252.089 117.774 252.028 117.782Z" fill="#FFB6B6"/>
<path d="M106.934 411.042L100.49 410.987L97.6388 385.555L107.148 385.635L106.934 411.042Z" fill="#FFB6B6"/>
<path d="M86.2951 421.288C86.2894 422.051 86.5869 422.786 87.1223 423.331C87.6578 423.876 88.3874 424.186 89.1512 424.194L101.962 424.3L104.205 419.754L105.029 424.324L109.862 424.368L108.642 408.071L106.96 407.959L100.1 407.486L97.8873 407.338L97.8485 411.949L87.5575 418.929C87.172 419.191 86.8557 419.542 86.6358 419.953C86.416 420.364 86.299 420.822 86.2951 421.288Z" fill="#2F2E41"/>
<path d="M191.871 382.497L186.61 386.217L169.436 367.244L177.2 361.752L191.871 382.497Z" fill="#FFB6B6"/>
<path d="M181.108 402.87C181.55 403.494 182.22 403.916 182.973 404.045C183.726 404.175 184.499 404 185.124 403.56L195.583 396.162L194.747 391.162L198.085 394.389L202.034 391.6L191.521 379.088L190.091 379.979L184.248 383.604L182.365 384.776L185.028 388.541L180.754 400.219C180.594 400.656 180.543 401.126 180.604 401.588C180.666 402.05 180.839 402.49 181.108 402.87Z" fill="#2F2E41"/>
<path d="M111.767 204.846L130.483 161.382H173.594L161.159 206.742L111.767 204.846Z" fill="#FFB6B6"/>
<path d="M72.1933 411.236C71.8354 411.253 71.4811 411.159 71.1785 410.967C70.8758 410.776 70.6393 410.496 70.5011 410.165C70.3629 409.835 70.3297 409.47 70.4059 409.12C70.482 408.77 70.664 408.451 70.9271 408.208L71.0468 407.732C71.031 407.694 71.0152 407.656 70.9992 407.618C70.6387 406.767 70.0346 406.041 69.2628 405.531C68.491 405.022 67.5859 404.752 66.6612 404.755C65.7365 404.759 64.8335 405.035 64.0655 405.551C63.2975 406.066 62.6988 406.796 62.3446 407.65C60.9291 411.059 59.127 414.474 58.6832 418.079C58.4878 419.672 58.5702 421.288 58.9269 422.853C55.6023 415.6 53.8759 407.718 53.8648 399.74C53.8641 397.738 53.9753 395.738 54.198 393.748C54.382 392.117 54.6373 390.498 54.9638 388.89C56.7457 380.166 60.5716 371.99 66.1272 365.032C68.8161 363.564 70.9907 361.308 72.3578 358.567C72.8531 357.582 73.2032 356.53 73.3971 355.444C73.0938 355.484 72.2534 350.865 72.4822 350.581C72.0595 349.94 71.3029 349.621 70.8412 348.995C68.5452 345.882 65.3818 346.426 63.7304 350.656C60.2027 352.436 60.1685 355.389 62.3331 358.229C63.7103 360.036 63.8995 362.481 65.1078 364.415C64.9835 364.574 64.8542 364.728 64.7299 364.887C62.4574 367.81 60.4768 370.947 58.8164 374.256C59.2202 370.549 58.7383 366.8 57.4103 363.316C56.0644 360.069 53.5417 357.335 51.3202 354.528C50.7326 353.774 49.9347 353.211 49.0273 352.91C48.1199 352.61 47.1437 352.585 46.2222 352.839C45.3006 353.093 44.4751 353.615 43.8499 354.338C43.2247 355.061 42.828 355.953 42.7098 356.902C42.7053 356.943 42.7008 356.984 42.6965 357.026C43.0265 357.212 43.3495 357.409 43.6655 357.618C44.0625 357.884 44.3702 358.263 44.5481 358.706C44.726 359.149 44.766 359.635 44.6627 360.102C44.5594 360.568 44.3177 360.992 43.9693 361.318C43.6209 361.645 43.1819 361.858 42.71 361.931L42.6617 361.939C42.7793 363.128 42.987 364.306 43.2833 365.464C40.4333 376.486 46.5862 380.5 55.3715 380.68C55.5655 380.78 55.7545 380.879 55.9484 380.974C54.2802 385.701 53.2338 390.625 52.8356 395.623C52.6101 398.571 52.6234 401.533 52.8753 404.479L52.8604 404.375C52.2239 401.098 50.4762 398.142 47.9127 396.006C44.1051 392.878 38.7258 391.726 34.6182 389.212C34.1816 388.932 33.674 388.782 33.1553 388.781C32.6365 388.78 32.1281 388.927 31.6902 389.205C31.2523 389.483 30.9031 389.881 30.6837 390.351C30.4644 390.821 30.384 391.344 30.4522 391.858L30.469 391.968C31.0813 392.217 31.6775 392.505 32.2541 392.828C32.584 393.014 32.907 393.212 33.2231 393.421C33.6201 393.686 33.9277 394.065 34.1057 394.508C34.2836 394.951 34.3235 395.438 34.2203 395.904C34.117 396.37 33.8753 396.794 33.5268 397.121C33.1784 397.447 32.7395 397.661 32.2676 397.734L32.2192 397.741C32.1844 397.746 32.1546 397.751 32.1198 397.756C33.1661 400.254 34.6345 402.554 36.4609 404.553C38.2429 414.175 45.8965 415.088 54.0836 412.286H54.0886C54.9869 416.189 56.2884 419.989 57.9721 423.623H71.8456C71.8953 423.469 71.9401 423.31 71.9848 423.156C70.7007 423.237 69.4115 423.16 68.146 422.927C69.1753 421.664 70.2047 420.391 71.234 419.128C71.257 419.105 71.2785 419.08 71.2986 419.054C71.8208 418.407 72.3479 417.766 72.87 417.119L72.8703 417.118C72.8981 415.137 72.6703 413.16 72.1933 411.236Z" fill="#F2F2F2"/>
<path d="M222.317 411.236C222.675 411.253 223.029 411.159 223.332 410.967C223.634 410.776 223.871 410.496 224.009 410.165C224.147 409.835 224.181 409.47 224.104 409.12C224.028 408.77 223.846 408.451 223.583 408.208L223.463 407.732C223.479 407.694 223.495 407.656 223.511 407.618C223.871 406.767 224.476 406.04 225.247 405.531C226.019 405.022 226.924 404.752 227.849 404.755C228.774 404.759 229.677 405.035 230.445 405.551C231.213 406.066 231.811 406.796 232.165 407.65C233.581 411.059 235.383 414.474 235.827 418.079C236.022 419.672 235.94 421.287 235.583 422.853C238.908 415.6 240.634 407.718 240.645 399.74C240.646 397.738 240.535 395.738 240.312 393.748C240.128 392.117 239.873 390.498 239.546 388.89C237.764 380.166 233.939 371.99 228.383 365.032C225.694 363.564 223.519 361.308 222.152 358.567C221.657 357.582 221.307 356.53 221.113 355.444C221.416 355.484 222.257 350.865 222.028 350.581C222.451 349.94 223.207 349.621 223.669 348.995C225.965 345.882 229.128 346.426 230.78 350.656C234.308 352.436 234.342 355.389 232.177 358.229C230.8 360.036 230.611 362.481 229.402 364.415C229.527 364.574 229.656 364.728 229.78 364.887C232.053 367.81 234.033 370.947 235.694 374.256C235.29 370.549 235.772 366.8 237.1 363.316C238.446 360.069 240.968 357.335 243.19 354.528C243.778 353.774 244.575 353.211 245.483 352.91C246.39 352.61 247.366 352.585 248.288 352.839C249.21 353.093 250.035 353.615 250.66 354.338C251.285 355.061 251.682 355.953 251.8 356.902C251.805 356.943 251.809 356.984 251.814 357.026C251.484 357.212 251.161 357.409 250.845 357.619C250.448 357.884 250.14 358.263 249.962 358.706C249.784 359.149 249.744 359.635 249.847 360.102C249.951 360.568 250.192 360.992 250.541 361.318C250.889 361.645 251.328 361.858 251.8 361.931L251.848 361.939C251.731 363.128 251.523 364.306 251.227 365.464C254.077 376.486 247.924 380.5 239.139 380.68C238.945 380.78 238.756 380.879 238.562 380.974C240.23 385.701 241.276 390.625 241.675 395.623C241.9 398.571 241.887 401.533 241.635 404.479L241.65 404.375C242.286 401.098 244.034 398.142 246.597 396.006C250.405 392.878 255.784 391.726 259.892 389.212C260.328 388.932 260.836 388.782 261.355 388.781C261.874 388.78 262.382 388.927 262.82 389.205C263.258 389.483 263.607 389.881 263.826 390.351C264.046 390.821 264.126 391.344 264.058 391.858L264.041 391.968C263.429 392.217 262.833 392.505 262.256 392.828C261.926 393.014 261.603 393.212 261.287 393.421C260.89 393.686 260.582 394.065 260.404 394.508C260.226 394.951 260.187 395.438 260.29 395.904C260.393 396.37 260.635 396.794 260.983 397.121C261.332 397.447 261.771 397.661 262.242 397.734L262.291 397.741C262.326 397.746 262.355 397.751 262.39 397.756C261.344 400.254 259.876 402.554 258.049 404.553C256.267 414.175 248.614 415.088 240.426 412.286H240.421C239.523 416.189 238.222 419.989 236.538 423.623H222.665C222.615 423.469 222.57 423.31 222.525 423.156C223.809 423.237 225.099 423.16 226.364 422.927C225.335 421.664 224.305 420.391 223.276 419.128C223.253 419.104 223.232 419.08 223.211 419.054C222.689 418.407 222.162 417.766 221.64 417.119L221.64 417.118C221.612 415.137 221.84 413.16 222.317 411.236Z" fill="#F2F2F2"/>
<path d="M111.767 201.582L93.1846 240.347L94.5109 394.829H110.427C110.427 394.829 113.522 390.655 113.522 387.731C113.522 384.807 108.258 384.382 111.767 380.793C115.276 377.203 116.446 376.033 116.446 372.524V316.381L128.996 261.957L127.669 321.757L172.765 375.578L183.27 365.073C183.27 365.073 186.342 363.719 183.27 360.811C180.198 357.902 178.282 363.039 178.071 354.914C177.859 346.789 179.613 348.544 177.859 346.789C176.104 345.035 151.544 315.716 151.544 315.716C151.544 315.716 173.764 221.04 162.652 202.909L111.767 201.582Z" fill="#2F2E41"/>
<path d="M163.822 205.833C163.822 205.833 115.861 188.872 119.371 179.514C122.88 170.155 128.775 171.956 121.733 169.009C114.692 166.061 110.026 165.476 114.406 161.382C118.786 157.288 125.219 153.194 125.219 149.1C125.219 145.006 130.483 112.837 130.483 112.837H138.91L147.445 98.2152H159.502L165.576 111.667H178.402L179.028 132.138C179.028 132.138 179.857 171.684 175.934 173.26C172.01 174.835 168.501 174.835 172.01 178.344C175.519 181.853 177.518 183.668 175.934 186.855C174.349 190.041 163.822 205.833 163.822 205.833Z" fill="#E6E6E6"/>
<path d="M170.84 117.516L178.402 111.667C178.402 111.667 191.311 111.667 193.066 118.686C194.82 125.705 205.381 142.868 205.381 142.868C205.381 142.868 215.876 136.817 219.97 136.817C224.064 136.817 226.989 139.742 226.989 136.232C226.989 132.723 224.649 132.138 228.158 132.138C231.668 132.138 241.026 128.629 241.026 128.629L251.008 138.611C251.008 138.611 249.799 147.93 245.705 147.345C241.611 146.76 239.271 143.836 239.271 147.345C239.271 150.854 241.611 156.118 236.347 156.703C231.083 157.288 195.99 166.061 195.99 166.061L172.01 130.968L170.84 117.516Z" fill="#E6E6E6"/>
<path d="M140.426 117.516L132.864 111.667C132.864 111.667 119.955 111.667 118.201 118.686C116.446 125.705 105.296 142.868 105.296 142.868C105.296 142.868 95.3905 136.817 91.2964 136.817C87.2022 136.817 84.2778 139.742 84.2778 136.232C84.2778 132.723 86.6174 132.138 83.1081 132.138C79.5988 132.138 70.2407 128.629 70.2407 128.629L60.2585 138.611C60.2585 138.611 61.4675 147.93 65.5616 147.345C69.6558 146.76 71.9953 143.836 71.9953 147.345C71.9953 150.854 69.6558 156.118 74.9197 156.703C80.1836 157.288 115.276 166.061 115.276 166.061L139.257 130.968L140.426 117.516Z" fill="#E6E6E6"/>
<path d="M152.071 95.0386C162.38 95.0386 170.736 86.682 170.736 76.3736C170.736 66.0651 162.38 57.7085 152.071 57.7085C141.763 57.7085 133.406 66.0651 133.406 76.3736C133.406 86.682 141.763 95.0386 152.071 95.0386Z" fill="#FFB6B6"/>
<path d="M172.438 73.5558C170.244 76.2119 166.98 76.0733 164.077 75.6499C163.161 75.519 162.245 75.3727 161.329 75.2033C161.167 74.6875 160.982 74.1717 160.774 73.6713C159.915 71.5817 158.631 69.6939 157.002 68.1281C157.173 70.1752 157.015 72.2366 156.532 74.2333C154.831 73.8407 153.137 73.4018 151.451 72.9168C149.959 72.6743 148.618 71.8679 147.704 70.6643C146.789 69.4607 146.373 67.952 146.539 66.4498C144.114 68.2975 141.473 69.8989 138.702 69.9297C137.14 69.8891 135.631 69.3492 134.398 68.3891C133.165 67.4289 132.272 66.0991 131.85 64.5944C131.095 62.2847 131.211 59.6209 131.519 57.1265C131.888 54.1625 132.72 50.9059 134.722 49.7126C136.331 48.7425 138.186 49.4354 139.841 50.2207C143.488 51.9708 146.945 54.0914 150.158 56.5491L150.196 57.3575C151.028 53.3772 153.776 50.3054 156.771 49.9974C158.788 49.7972 160.759 50.7288 162.661 51.6681C165.146 52.7645 167.457 54.2197 169.52 55.9871C171.851 58.1071 173.47 60.8955 174.155 63.9708C174.871 67.3044 174.332 71.2616 172.438 73.5558Z" fill="#2F2E41"/>
<path d="M153.961 47.6524C154.153 47.6685 153.683 47.5606 153.835 47.6248C153.76 47.5905 153.688 47.5503 153.62 47.5044C153.608 47.4969 153.457 47.3742 153.556 47.4596C153.327 47.2819 153.156 47.0418 153.061 46.7685C152.849 46.1042 152.75 45.409 152.769 44.712C152.807 43.7959 152.65 42.8822 152.31 42.0308C152.209 41.8002 152.056 41.5967 151.861 41.4367C151.667 41.2767 151.438 41.1648 151.192 41.11C150.947 41.0552 150.692 41.0591 150.448 41.1214C150.204 41.1837 149.978 41.3026 149.789 41.4685C149.159 42.0863 149.109 43.1299 149.065 43.96C149.017 44.8217 149.108 45.6856 149.335 46.5183C149.726 47.8874 150.506 49.1134 151.581 50.0467C152.823 51.1342 154.382 51.7925 156.028 51.9238C156.254 51.9188 156.474 51.8481 156.66 51.7203C156.847 51.5926 156.992 51.4133 157.079 51.2044C157.165 50.9954 157.189 50.7658 157.148 50.5436C157.106 50.3213 157.001 50.1159 156.844 49.9524L154.778 47.9907C154.561 47.7741 154.268 47.6524 153.961 47.6524C153.655 47.6524 153.361 47.7741 153.145 47.9906C152.928 48.2072 152.806 48.5009 152.806 48.8072C152.806 49.1135 152.928 49.4072 153.145 49.6238L155.211 51.5856L156.028 49.6142C155.687 49.5835 155.35 49.5147 155.024 49.4092C154.671 49.311 154.334 49.1631 154.022 48.97C153.717 48.8027 153.431 48.6026 153.169 48.3733C153.001 48.226 152.841 48.0703 152.689 47.9067C152.634 47.8473 152.58 47.7869 152.527 47.7254C152.531 47.7298 152.31 47.4521 152.405 47.5791C152.166 47.2524 151.958 46.9041 151.784 46.5387C151.722 46.4093 151.672 46.2751 151.632 46.1375C151.559 45.911 151.499 45.6805 151.453 45.4471C151.365 44.9566 151.339 44.457 151.374 43.96C151.384 43.7492 151.405 43.5391 151.437 43.3305C151.466 43.2205 151.488 43.1086 151.502 42.9957C151.506 42.7153 151.463 43.1454 151.317 43.2107L150.734 43.3684C150.639 43.3606 150.547 43.3316 150.465 43.2835C150.383 43.2354 150.313 43.1694 150.259 43.0904C150.235 42.994 150.242 43.0111 150.28 43.1417C150.324 43.295 150.358 43.4509 150.382 43.6084C150.426 43.9747 150.452 44.3431 150.459 44.712C150.466 45.4936 150.557 46.2722 150.73 47.0345C150.892 47.8006 151.291 48.496 151.871 49.0217C152.452 49.5474 153.183 49.8765 153.961 49.9621C154.267 49.9597 154.559 49.8372 154.775 49.6212C154.991 49.4051 155.114 49.1128 155.116 48.8073C155.11 48.5029 154.986 48.2127 154.771 47.9974C154.556 47.7821 154.266 47.6585 153.961 47.6524Z" fill="#2F2E41"/>
<path d="M249.285 122.614C242.934 114.167 239.264 104.721 239.143 93.9521C238.939 93.3717 238.973 92.7339 239.238 92.1786C239.503 91.6232 239.977 91.1957 240.557 90.9898L262.204 83.3307C262.784 83.1261 263.422 83.1601 263.977 83.4252C264.532 83.6902 264.96 84.1648 265.166 84.7447L275.307 113.407C275.512 113.987 275.478 114.625 275.213 115.18C274.948 115.736 274.473 116.163 273.893 116.369L252.247 124.028C251.667 124.233 251.029 124.199 250.474 123.934C249.918 123.669 249.491 123.194 249.285 122.614Z" fill="#AC2727"/>
<path opacity="0.2" d="M254.172 122.103C253.592 122.308 252.954 122.274 252.399 122.009C251.843 121.744 251.416 121.269 251.21 120.689C244.859 112.242 241.189 102.796 241.068 92.0274C240.936 91.6456 240.907 91.2357 240.984 90.8391L240.558 90.9898C239.978 91.1957 239.503 91.6232 239.238 92.1786C238.973 92.7339 238.939 93.3717 239.144 93.9521C239.264 104.721 242.934 114.167 249.285 122.614C249.491 123.194 249.919 123.669 250.474 123.934C251.029 124.199 251.667 124.233 252.247 124.028L273.894 116.369C274.278 116.232 274.619 115.995 274.882 115.684C275.145 115.372 275.321 114.997 275.392 114.595L254.172 122.103Z" fill="black"/>
<path d="M264.313 100.65L249.822 105.823C249.591 105.905 249.337 105.893 249.116 105.788C248.895 105.683 248.724 105.494 248.642 105.264C248.56 105.033 248.572 104.779 248.677 104.558C248.782 104.337 248.97 104.166 249.201 104.084L263.692 98.9114C263.806 98.8706 263.928 98.8527 264.049 98.8588C264.17 98.8648 264.288 98.8946 264.398 98.9466C264.508 98.9985 264.606 99.0715 264.687 99.1614C264.769 99.2512 264.831 99.3563 264.872 99.4705C264.913 99.5847 264.931 99.7057 264.925 99.8268C264.919 99.9479 264.889 100.067 264.837 100.176C264.785 100.286 264.712 100.384 264.622 100.465C264.532 100.547 264.427 100.61 264.313 100.65Z" fill="white"/>
<path d="M251.308 99.9167L248.12 101.055C248.005 101.096 247.884 101.114 247.763 101.108C247.642 101.102 247.524 101.072 247.414 101.02C247.304 100.969 247.206 100.896 247.124 100.806C247.043 100.716 246.98 100.611 246.939 100.497C246.898 100.383 246.88 100.262 246.886 100.141C246.892 100.02 246.922 99.9009 246.973 99.7912C247.025 99.6816 247.098 99.5833 247.188 99.5018C247.278 99.4203 247.383 99.3574 247.497 99.3165L247.499 99.3157L250.687 98.1778C250.918 98.0958 251.171 98.1086 251.392 98.2135C251.613 98.3184 251.784 98.5068 251.866 98.7372C251.948 98.9676 251.936 99.2213 251.831 99.4425C251.726 99.6636 251.538 99.8342 251.308 99.9167Z" fill="white"/>
<path d="M267.042 108.295L252.551 113.468C252.32 113.55 252.066 113.538 251.845 113.434C251.623 113.329 251.453 113.141 251.37 112.91C251.287 112.68 251.3 112.426 251.404 112.204C251.509 111.983 251.697 111.812 251.928 111.73L251.93 111.729L266.421 106.556C266.652 106.474 266.905 106.487 267.126 106.592C267.347 106.697 267.518 106.885 267.6 107.116C267.682 107.346 267.67 107.6 267.565 107.821C267.46 108.042 267.272 108.213 267.042 108.295Z" fill="white"/>
<path d="M265.678 104.473L251.186 109.645C251.072 109.686 250.951 109.704 250.83 109.698C250.709 109.693 250.59 109.663 250.481 109.611C250.371 109.559 250.273 109.486 250.191 109.397C250.11 109.307 250.047 109.202 250.006 109.088C249.965 108.974 249.947 108.853 249.953 108.731C249.959 108.61 249.988 108.492 250.04 108.382C250.092 108.272 250.165 108.174 250.255 108.093C250.344 108.011 250.449 107.948 250.563 107.907L250.566 107.907L265.057 102.734C265.171 102.693 265.292 102.675 265.413 102.681C265.534 102.687 265.653 102.716 265.763 102.768C265.872 102.82 265.971 102.893 266.052 102.983C266.134 103.072 266.196 103.177 266.237 103.292C266.278 103.406 266.296 103.527 266.29 103.648C266.284 103.769 266.255 103.888 266.203 103.997C266.151 104.107 266.078 104.205 265.989 104.287C265.899 104.368 265.794 104.431 265.68 104.472L265.678 104.473Z" fill="white"/>
<path d="M250.804 91.2862C252.93 91.2862 254.654 89.5628 254.654 87.4368C254.654 85.3109 252.93 83.5874 250.804 83.5874C248.678 83.5874 246.955 85.3109 246.955 87.4368C246.955 89.5628 248.678 91.2862 250.804 91.2862Z" fill="#3F3D56"/>
<path d="M60.7217 24.497C64.5986 14.6659 70.7289 6.59627 79.844 0.860243C80.2316 0.382271 80.7929 0.0775656 81.4049 0.0129572C82.0169 -0.0516511 82.6295 0.129121 83.1083 0.51562L100.959 14.9572C101.437 15.3448 101.742 15.9062 101.807 16.5181C101.871 17.1301 101.69 17.7427 101.304 18.2215L82.1816 41.8583C81.7941 42.3363 81.2327 42.641 80.6207 42.7056C80.0088 42.7702 79.3962 42.5894 78.9173 42.2029L61.0663 27.7613C60.5884 27.3737 60.2836 26.8124 60.219 26.2004C60.1544 25.5885 60.3352 24.9759 60.7217 24.497Z" fill="#AC2727"/>
<path opacity="0.2" d="M63.7135 28.3948C63.2356 28.0072 62.9309 27.4459 62.8662 26.8339C62.8016 26.2219 62.9824 25.6093 63.3689 25.1305C67.2458 15.2993 73.3761 7.22971 82.4913 1.49368C82.7473 1.18113 83.0814 0.941766 83.4596 0.799789L83.1083 0.515583C82.6295 0.12909 82.0169 -0.0516935 81.4049 0.0129088C80.793 0.077511 80.2316 0.382225 79.844 0.860183C70.7289 6.59623 64.5986 14.6658 60.7217 24.497C60.3352 24.9758 60.1544 25.5884 60.219 26.2004C60.2836 26.8124 60.5883 27.3737 61.0663 27.7613L78.9173 42.2029C79.2352 42.4584 79.6151 42.6252 80.0183 42.6865C80.4215 42.7479 80.8338 42.7015 81.2133 42.5522L63.7135 28.3948Z" fill="black"/>
<path d="M87.3021 25.8152L75.313 16.1707C75.1229 16.0171 75.0015 15.7942 74.9755 15.5512C74.9494 15.3081 75.0209 15.0647 75.1741 14.8742C75.3273 14.6837 75.5498 14.5618 75.7928 14.5351C76.0358 14.5085 76.2795 14.5793 76.4703 14.7321L88.4595 24.3765C88.6495 24.5302 88.7709 24.753 88.7969 24.9961C88.8229 25.2391 88.7515 25.4825 88.5983 25.673C88.4451 25.8634 88.2226 25.9853 87.9796 26.012C87.7366 26.0387 87.4929 25.9679 87.3021 25.8152Z" fill="white"/>
<path d="M81.124 14.3476L78.4864 12.2258C78.2966 12.072 78.1755 11.8492 78.1496 11.6063C78.1237 11.3634 78.1951 11.1201 78.3483 10.9298C78.5014 10.7395 78.7237 10.6176 78.9665 10.5908C79.2094 10.5641 79.4529 10.6346 79.6438 10.7871L82.2814 12.9089C82.4713 13.0626 82.5925 13.2854 82.6184 13.5284C82.6444 13.7713 82.573 14.0147 82.4198 14.2051C82.2667 14.3955 82.0443 14.5174 81.8014 14.5441C81.5585 14.5708 81.3149 14.5001 81.124 14.3476Z" fill="white"/>
<path d="M82.2141 32.14L70.225 22.4956C70.0349 22.3419 69.9135 22.1191 69.8875 21.8761C69.8614 21.633 69.9328 21.3895 70.0861 21.199C70.2393 21.0085 70.4618 20.8866 70.7048 20.86C70.9478 20.8333 71.1915 20.9042 71.3823 21.0569L83.3715 30.7014C83.5613 30.8552 83.6824 31.0779 83.7083 31.3208C83.7342 31.5637 83.6627 31.807 83.5096 31.9973C83.3565 32.1877 83.1342 32.3096 82.8914 32.3363C82.6485 32.3631 82.405 32.2925 82.2141 32.14Z" fill="white"/>
<path d="M84.7581 28.9776L72.769 19.3332C72.6743 19.2575 72.5955 19.1638 72.537 19.0576C72.4785 18.9514 72.4415 18.8347 72.4281 18.7142C72.4011 18.4709 72.4718 18.2268 72.6248 18.0356C72.7777 17.8444 73.0004 17.7218 73.2437 17.6947C73.4871 17.6677 73.7312 17.7384 73.9224 17.8914L73.9263 17.8945L85.9155 27.539C86.1066 27.6919 86.2292 27.9146 86.2563 28.1579C86.2833 28.4013 86.2126 28.6454 86.0596 28.8366C85.9067 29.0278 85.684 29.1504 85.4407 29.1774C85.1973 29.2045 84.9532 29.1337 84.762 28.9808L84.7581 28.9776Z" fill="white"/>
<path d="M91.4966 11.2393C93.6226 11.2393 95.346 9.51588 95.346 7.38991C95.346 5.26394 93.6226 3.5405 91.4966 3.5405C89.3707 3.5405 87.6472 5.26394 87.6472 7.38991C87.6472 9.51588 89.3707 11.2393 91.4966 11.2393Z" fill="#3F3D56"/>
<path d="M16.5666 139.58C7.17319 127.086 1.74395 113.114 1.56603 97.185C1.2634 96.3266 1.31362 95.3832 1.70569 94.5617C2.09776 93.7403 2.79965 93.1079 3.65739 92.8034L35.6751 81.4746C36.5336 81.1719 37.477 81.2222 38.2984 81.6142C39.1199 82.0063 39.7522 82.7082 40.0568 83.5659L55.0574 125.961C55.36 126.819 55.3098 127.763 54.9177 128.584C54.5256 129.406 53.8238 130.038 52.966 130.343L20.9483 141.672C20.0899 141.974 19.1464 141.924 18.325 141.532C17.5036 141.14 16.8712 140.438 16.5666 139.58Z" fill="#AC2727"/>
<path opacity="0.2" d="M23.7951 138.825C22.9367 139.127 21.9933 139.077 21.1718 138.685C20.3504 138.293 19.718 137.591 19.4135 136.733C10.02 124.239 4.59082 110.267 4.41284 94.3381C4.21694 93.7735 4.17363 93.1671 4.28733 92.5804L3.65726 92.8033C2.79954 93.1079 2.09766 93.7403 1.70558 94.5617C1.31351 95.3831 1.26327 96.3265 1.56588 97.185C1.74381 113.114 7.173 127.086 16.5665 139.58C16.8711 140.438 17.5035 141.14 18.3249 141.532C19.1463 141.924 20.0897 141.974 20.9481 141.671L52.9659 130.343C53.5339 130.14 54.0382 129.79 54.4275 129.329C54.8168 128.868 55.0774 128.313 55.1828 127.719L23.7951 138.825Z" fill="black"/>
<path d="M38.7952 107.093L17.3606 114.744C17.1915 114.805 17.0121 114.832 16.8327 114.823C16.6532 114.814 16.4772 114.771 16.3147 114.694C16.1522 114.617 16.0065 114.509 15.8858 114.376C15.7652 114.243 15.672 114.087 15.6116 113.918C15.5512 113.749 15.5248 113.569 15.5339 113.39C15.5429 113.211 15.5873 113.035 15.6645 112.872C15.7417 112.71 15.8502 112.565 15.9836 112.444C16.1171 112.324 16.273 112.231 16.4424 112.172L37.8771 104.52C38.046 104.46 38.2251 104.434 38.4042 104.443C38.5833 104.452 38.7589 104.496 38.9209 104.573C39.083 104.649 39.2283 104.757 39.3486 104.89C39.469 105.023 39.5619 105.179 39.6222 105.348C39.6825 105.516 39.7089 105.696 39.7 105.875C39.6911 106.054 39.6469 106.229 39.5701 106.391C39.4933 106.553 39.3854 106.699 39.2524 106.819C39.1194 106.939 38.9641 107.032 38.7952 107.093Z" fill="white"/>
<path d="M19.5586 106.008L14.8429 107.691C14.5022 107.811 14.1275 107.792 13.8011 107.637C13.4746 107.481 13.2231 107.203 13.1016 106.862C12.9801 106.522 12.9985 106.147 13.1528 105.82C13.3071 105.494 13.5847 105.241 13.9248 105.119L18.6404 103.435C18.9812 103.315 19.3559 103.334 19.6823 103.49C20.0087 103.645 20.2603 103.923 20.3818 104.264C20.5033 104.604 20.4849 104.979 20.3306 105.306C20.1762 105.633 19.8986 105.885 19.5586 106.008Z" fill="white"/>
<path d="M42.8315 118.401L21.3969 126.052C21.0558 126.173 20.6803 126.155 20.353 126C20.0258 125.844 19.7735 125.566 19.6517 125.225C19.53 124.884 19.5487 124.508 19.7038 124.181C19.8589 123.853 20.1377 123.601 20.4788 123.479L41.9134 115.828C42.0823 115.768 42.2614 115.742 42.4405 115.751C42.6196 115.76 42.7952 115.804 42.9573 115.88C43.1193 115.957 43.2647 116.065 43.385 116.198C43.5053 116.331 43.5983 116.486 43.6586 116.655C43.7189 116.824 43.7453 117.003 43.7363 117.182C43.7274 117.362 43.6833 117.537 43.6065 117.699C43.5297 117.861 43.4217 118.007 43.2888 118.127C43.1558 118.247 43.0004 118.34 42.8315 118.401Z" fill="white"/>
<path d="M40.8134 112.747L19.3787 120.398C19.2098 120.458 19.0307 120.484 18.8516 120.475C18.6725 120.467 18.4969 120.422 18.3349 120.346C18.1728 120.269 18.0275 120.161 17.9071 120.028C17.7868 119.895 17.6939 119.74 17.6336 119.571C17.5733 119.402 17.5468 119.223 17.5558 119.044C17.5647 118.864 17.6088 118.689 17.6856 118.527C17.7624 118.365 17.8704 118.219 18.0034 118.099C18.1363 117.979 18.2917 117.886 18.4606 117.826L39.8952 110.174C40.0641 110.114 40.2432 110.088 40.4223 110.097C40.6014 110.106 40.777 110.15 40.9391 110.226C41.1011 110.303 41.2465 110.411 41.3668 110.544C41.4871 110.677 41.5801 110.833 41.6404 111.001C41.7007 111.17 41.7271 111.349 41.7182 111.529C41.7092 111.708 41.6651 111.883 41.5883 112.045C41.5115 112.207 41.4035 112.353 41.2706 112.473C41.1376 112.593 40.9823 112.686 40.8134 112.747Z" fill="white"/>
<path d="M18.8137 93.2419C21.9583 93.2419 24.5075 90.6927 24.5075 87.5481C24.5075 84.4035 21.9583 81.8542 18.8137 81.8542C15.6691 81.8542 13.1199 84.4035 13.1199 87.5481C13.1199 90.6927 15.6691 93.2419 18.8137 93.2419Z" fill="#3F3D56"/>
<path d="M227.853 345.512C217.285 345.458 207.543 342.667 198.895 336.247C198.309 336.059 197.822 335.646 197.54 335.099C197.258 334.552 197.205 333.916 197.392 333.329L204.389 311.46C204.577 310.874 204.99 310.387 205.537 310.105C206.084 309.823 206.721 309.77 207.307 309.957L236.264 319.222C236.85 319.41 237.337 319.823 237.619 320.37C237.901 320.917 237.954 321.553 237.768 322.14L230.77 344.009C230.582 344.595 230.169 345.082 229.622 345.364C229.075 345.646 228.439 345.699 227.853 345.512Z" fill="#F2F2F2"/>
<path opacity="0.2" d="M230.402 341.312C230.214 341.898 229.801 342.385 229.254 342.667C228.707 342.949 228.071 343.002 227.484 342.815C216.917 342.762 207.175 339.97 198.527 333.55C198.143 333.425 197.799 333.2 197.53 332.899L197.392 333.329C197.205 333.916 197.258 334.552 197.54 335.099C197.822 335.646 198.309 336.059 198.895 336.247C207.543 342.667 217.285 345.458 227.852 345.512C228.439 345.699 229.075 345.646 229.622 345.364C230.169 345.082 230.582 344.595 230.77 344.009L237.767 322.14C237.89 321.751 237.908 321.336 237.82 320.938C237.731 320.54 237.538 320.173 237.262 319.873L230.402 341.312Z" fill="black"/>
<path d="M219.456 320.258L214.807 334.926C214.771 335.042 214.713 335.15 214.635 335.243C214.558 335.336 214.462 335.413 214.355 335.47C214.247 335.526 214.13 335.561 214.009 335.572C213.888 335.583 213.766 335.57 213.651 335.534C213.535 335.497 213.427 335.439 213.334 335.361C213.241 335.283 213.164 335.188 213.108 335.08C213.052 334.973 213.017 334.855 213.006 334.734C212.996 334.613 213.009 334.492 213.045 334.376L213.047 334.369L217.696 319.701C217.77 319.468 217.934 319.275 218.151 319.163C218.368 319.051 218.62 319.03 218.853 319.104C219.086 319.177 219.28 319.34 219.393 319.557C219.506 319.773 219.528 320.025 219.456 320.258Z" fill="white"/>
<path d="M211.004 330.17L209.981 333.397C209.945 333.513 209.886 333.62 209.809 333.713C209.731 333.806 209.636 333.883 209.528 333.939C209.421 333.996 209.304 334.03 209.183 334.041C209.062 334.052 208.94 334.039 208.825 334.003C208.709 333.967 208.601 333.908 208.508 333.83C208.415 333.753 208.338 333.658 208.282 333.55C208.226 333.443 208.191 333.325 208.18 333.205C208.17 333.084 208.183 332.962 208.219 332.846L208.221 332.839L209.244 329.612C209.28 329.497 209.338 329.389 209.416 329.296C209.494 329.203 209.589 329.126 209.696 329.07C209.804 329.014 209.921 328.979 210.042 328.968C210.163 328.957 210.284 328.97 210.4 329.006C210.516 329.042 210.623 329.101 210.716 329.179C210.809 329.256 210.886 329.352 210.943 329.459C210.999 329.567 211.033 329.684 211.044 329.805C211.055 329.925 211.042 330.047 211.006 330.163L211.004 330.17Z" fill="white"/>
<path d="M227.194 322.711L222.546 337.379C222.509 337.494 222.451 337.602 222.373 337.695C222.296 337.788 222.2 337.865 222.093 337.921C221.985 337.977 221.868 338.012 221.747 338.023C221.627 338.034 221.505 338.021 221.389 337.984C221.273 337.948 221.166 337.89 221.073 337.812C220.98 337.734 220.903 337.639 220.847 337.532C220.79 337.424 220.756 337.307 220.745 337.186C220.734 337.065 220.747 336.944 220.783 336.828L220.785 336.821L225.434 322.153C225.47 322.037 225.528 321.929 225.606 321.836C225.683 321.743 225.779 321.665 225.886 321.609C225.994 321.553 226.111 321.518 226.232 321.507C226.353 321.496 226.475 321.509 226.591 321.545C226.707 321.581 226.814 321.64 226.907 321.718C227.001 321.796 227.077 321.891 227.134 321.999C227.19 322.106 227.224 322.224 227.235 322.345C227.246 322.466 227.232 322.588 227.196 322.703L227.194 322.711Z" fill="white"/>
<path d="M223.325 321.485L218.677 336.152C218.641 336.268 218.582 336.376 218.504 336.469C218.427 336.563 218.332 336.64 218.224 336.696C218.117 336.752 217.999 336.787 217.878 336.798C217.757 336.809 217.636 336.796 217.52 336.76C217.404 336.724 217.296 336.665 217.203 336.587C217.11 336.509 217.033 336.414 216.977 336.306C216.921 336.199 216.886 336.081 216.875 335.96C216.865 335.84 216.878 335.718 216.914 335.602L216.916 335.595L221.565 320.927C221.601 320.811 221.659 320.704 221.737 320.611C221.815 320.517 221.91 320.441 222.017 320.384C222.125 320.328 222.242 320.293 222.363 320.283C222.484 320.272 222.605 320.285 222.721 320.321C222.837 320.357 222.944 320.416 223.037 320.493C223.131 320.571 223.207 320.666 223.264 320.774C223.32 320.881 223.354 320.998 223.365 321.119C223.376 321.24 223.363 321.362 223.327 321.477L223.325 321.485Z" fill="white"/>
<path d="M200.762 326.87C202.888 326.87 204.611 325.147 204.611 323.021C204.611 320.895 202.888 319.172 200.762 319.172C198.636 319.172 196.913 320.895 196.913 323.021C196.913 325.147 198.636 326.87 200.762 326.87Z" fill="#CCCCCC"/>
<path d="M285.502 172.72C285.878 171.236 284.454 169.594 282.32 169.053C280.187 168.513 278.152 169.278 277.776 170.762C277.4 172.246 278.824 173.888 280.958 174.428C283.092 174.969 285.126 174.204 285.502 172.72Z" fill="white"/>
<path d="M259.447 172.552C259.823 171.068 258.398 169.426 256.264 168.886C254.131 168.345 252.096 169.11 251.72 170.594C251.344 172.078 252.769 173.72 254.902 174.261C257.036 174.801 259.071 174.036 259.447 172.552Z" fill="#3F3D56"/>
<path d="M290.392 194.337C290.768 192.853 289.343 191.211 287.21 190.671C285.076 190.13 283.042 190.895 282.665 192.379C282.289 193.863 283.714 195.505 285.848 196.046C287.981 196.586 290.016 195.821 290.392 194.337Z" fill="#FF6584"/>
<path d="M296.466 202.488C296.62 201.106 295.966 199.898 295.004 199.791C294.042 199.683 293.138 200.717 292.983 202.099C292.829 203.482 293.483 204.69 294.445 204.797C295.406 204.904 296.311 203.871 296.466 202.488Z" fill="#E6E6E6"/>
<path d="M298.608 218.816C298.763 217.433 298.108 216.226 297.146 216.118C296.185 216.011 295.28 217.044 295.125 218.427C294.971 219.809 295.625 221.017 296.587 221.125C297.549 221.232 298.454 220.198 298.608 218.816Z" fill="#3F3D56"/>
<path d="M271.97 187.7C272.125 186.318 271.47 185.11 270.509 185.003C269.547 184.895 268.642 185.929 268.487 187.311C268.333 188.694 268.987 189.902 269.949 190.009C270.911 190.117 271.816 189.083 271.97 187.7Z" fill="#E6E6E6"/>
<path d="M285.082 182.774C285.237 181.392 284.583 180.184 283.621 180.077C282.659 179.969 281.754 181.003 281.6 182.385C281.445 183.768 282.1 184.976 283.061 185.083C284.023 185.19 284.928 184.157 285.082 182.774Z" fill="#FF6584"/>
<path d="M268.929 169.466C269.083 168.083 268.429 166.876 267.467 166.768C266.505 166.661 265.6 167.694 265.446 169.077C265.291 170.459 265.946 171.667 266.908 171.774C267.869 171.882 268.774 170.848 268.929 169.466Z" fill="#3F3D56"/>
<path d="M42.2196 163.481C42.5957 161.997 41.171 160.356 39.0374 159.815C36.9038 159.274 34.8692 160.039 34.4931 161.523C34.1169 163.008 35.5416 164.649 37.6753 165.19C39.8089 165.731 41.8434 164.966 42.2196 163.481Z" fill="white"/>
<path d="M16.164 163.314C16.5402 161.829 15.1155 160.188 12.9819 159.647C10.8482 159.106 8.81368 159.871 8.43754 161.355C8.06139 162.84 9.4861 164.481 11.6197 165.022C13.7533 165.563 15.7879 164.798 16.164 163.314Z" fill="#3F3D56"/>
<path d="M47.1091 185.099C47.4852 183.614 46.0605 181.973 43.9269 181.432C41.7933 180.891 39.7587 181.656 39.3826 183.141C39.0065 184.625 40.4312 186.266 42.5648 186.807C44.6984 187.348 46.733 186.583 47.1091 185.099Z" fill="#FF6584"/>
<path d="M53.1829 193.25C53.3374 191.867 52.683 190.66 51.7213 190.552C50.7596 190.445 49.8547 191.478 49.7002 192.861C49.5458 194.243 50.2002 195.451 51.1619 195.558C52.1236 195.666 53.0284 194.632 53.1829 193.25Z" fill="#E6E6E6"/>
<path d="M55.3255 209.577C55.48 208.195 54.8256 206.987 53.8639 206.88C52.9021 206.772 51.9973 207.806 51.8428 209.188C51.6883 210.571 52.3427 211.778 53.3045 211.886C54.2662 211.993 55.171 210.96 55.3255 209.577Z" fill="#3F3D56"/>
<path d="M28.6873 178.462C28.8418 177.079 28.1874 175.872 27.2257 175.764C26.264 175.657 25.3591 176.69 25.2046 178.073C25.0502 179.455 25.7046 180.663 26.6663 180.77C27.628 180.878 28.5328 179.844 28.6873 178.462Z" fill="#E6E6E6"/>
<path d="M41.7997 173.536C41.9542 172.153 41.2998 170.946 40.3381 170.838C39.3764 170.731 38.4715 171.764 38.3171 173.147C38.1626 174.529 38.817 175.737 39.7787 175.844C40.7404 175.952 41.6453 174.918 41.7997 173.536Z" fill="#FF6584"/>
<path d="M25.6458 160.227C25.8003 158.845 25.1459 157.637 24.1842 157.53C23.2224 157.422 22.3176 158.456 22.1631 159.838C22.0086 161.221 22.663 162.428 23.6248 162.536C24.5865 162.643 25.4913 161.61 25.6458 160.227Z" fill="#3F3D56"/>
<path d="M208.481 237.327C202.131 228.88 198.46 219.434 198.34 208.665C198.135 208.084 198.169 207.446 198.434 206.891C198.699 206.336 199.174 205.908 199.754 205.702L221.4 198.043C221.98 197.839 222.618 197.873 223.173 198.138C223.729 198.403 224.156 198.877 224.362 199.457L234.504 228.119C234.708 228.699 234.674 229.337 234.409 229.893C234.144 230.448 233.67 230.875 233.09 231.081L211.443 238.74C210.863 238.945 210.225 238.911 209.67 238.646C209.115 238.381 208.687 237.906 208.481 237.327Z" fill="#F2F2F2"/>
<path opacity="0.2" d="M213.368 236.816C212.788 237.02 212.15 236.986 211.595 236.721C211.039 236.456 210.612 235.982 210.406 235.402C204.055 226.955 200.385 217.509 200.264 206.74C200.132 206.358 200.103 205.948 200.18 205.552L199.754 205.702C199.174 205.908 198.699 206.336 198.434 206.891C198.169 207.446 198.135 208.084 198.34 208.664C198.46 219.434 202.131 228.879 208.481 237.327C208.687 237.906 209.115 238.381 209.67 238.646C210.225 238.911 210.863 238.945 211.443 238.74L233.09 231.081C233.474 230.944 233.815 230.708 234.078 230.396C234.341 230.085 234.517 229.709 234.588 229.307L213.368 236.816Z" fill="black"/>
<path d="M223.509 215.363L209.018 220.535C208.787 220.618 208.534 220.605 208.312 220.5C208.091 220.395 207.92 220.207 207.838 219.976C207.756 219.746 207.769 219.492 207.873 219.271C207.978 219.049 208.167 218.879 208.397 218.796L222.889 213.624C223.003 213.583 223.124 213.565 223.245 213.571C223.366 213.577 223.485 213.607 223.594 213.659C223.704 213.711 223.802 213.784 223.883 213.874C223.965 213.964 224.028 214.069 224.068 214.183C224.109 214.297 224.127 214.418 224.121 214.539C224.115 214.66 224.085 214.779 224.033 214.889C223.981 214.998 223.908 215.096 223.818 215.178C223.729 215.259 223.623 215.322 223.509 215.363Z" fill="white"/>
<path d="M210.504 214.629L207.316 215.767C207.202 215.808 207.081 215.826 206.96 215.82C206.839 215.814 206.72 215.785 206.61 215.733C206.501 215.681 206.402 215.608 206.321 215.518C206.239 215.429 206.176 215.324 206.135 215.209C206.094 215.095 206.076 214.974 206.082 214.853C206.088 214.732 206.118 214.613 206.17 214.504C206.222 214.394 206.294 214.296 206.384 214.214C206.474 214.133 206.579 214.07 206.693 214.029L206.695 214.028L209.883 212.89C210.114 212.808 210.367 212.821 210.588 212.926C210.81 213.031 210.98 213.219 211.062 213.45C211.144 213.68 211.132 213.934 211.027 214.155C210.923 214.376 210.734 214.547 210.504 214.629Z" fill="white"/>
<path d="M226.238 223.008L211.747 228.18C211.633 228.221 211.512 228.239 211.391 228.233C211.269 228.227 211.151 228.198 211.041 228.146C210.931 228.094 210.833 228.021 210.752 227.932C210.67 227.842 210.607 227.737 210.566 227.623C210.525 227.509 210.507 227.387 210.513 227.266C210.519 227.145 210.549 227.026 210.601 226.917C210.652 226.807 210.725 226.709 210.815 226.627C210.905 226.546 211.01 226.483 211.124 226.442L211.126 226.441L225.617 221.269C225.848 221.187 226.102 221.2 226.323 221.304C226.544 221.409 226.714 221.598 226.796 221.828C226.879 222.059 226.866 222.312 226.761 222.533C226.657 222.755 226.468 222.925 226.238 223.008Z" fill="white"/>
<path d="M224.874 219.185L210.382 224.358C210.268 224.399 210.147 224.417 210.026 224.411C209.905 224.405 209.786 224.375 209.677 224.324C209.567 224.272 209.469 224.199 209.387 224.109C209.306 224.019 209.243 223.914 209.202 223.8C209.161 223.686 209.143 223.565 209.149 223.444C209.155 223.323 209.184 223.204 209.236 223.094C209.288 222.985 209.361 222.886 209.451 222.805C209.54 222.724 209.645 222.661 209.76 222.62L209.762 222.619L224.253 217.446C224.483 217.364 224.737 217.376 224.959 217.481C225.18 217.585 225.351 217.773 225.433 218.004C225.516 218.234 225.504 218.488 225.399 218.71C225.294 218.931 225.106 219.102 224.876 219.184L224.874 219.185Z" fill="white"/>
<path d="M210.001 205.999C212.127 205.999 213.85 204.275 213.85 202.149C213.85 200.023 212.127 198.3 210.001 198.3C207.875 198.3 206.151 200.023 206.151 202.149C206.151 204.275 207.875 205.999 210.001 205.999Z" fill="#CCCCCC"/>
</g>
<defs>
<clipPath id="clip0_98_7212">
<rect width="300" height="424.611" fill="white"/>
</clipPath>
</defs>
</svg>
